<svg xmlns="http://www.w3.org/2000/svg" viewBox="0 0 4680 3120"><g data-name="8"><rect width="3191.176" height="1998.494" x="744.413" y="360" fill="#f5f5f5"/><rect width="953.521" height="313.536" x="2837.592" y="514.624" fill="#fff"/><rect width="35.248" height="269.219" x="2957.824" y="558.941" fill="#e1e1e1"/><rect width="35.248" height="161.144" x="3025.87" y="667.016" fill="#f5f5f5"/><rect width="35.248" height="229.664" x="3093.916" y="598.496" fill="#e1e1e1"/><rect width="35.248" height="256.93" x="3161.961" y="571.23" fill="#f5f5f5"/><rect width="35.241" height="154.67" x="3230.007" y="673.49" fill="#e1e1e1"/><rect width="35.248" height="114.733" x="3298.046" y="713.427" fill="#f5f5f5"/><rect width="35.248" height="236.559" x="3366.091" y="591.6" fill="#e1e1e1"/><rect width="35.248" height="185.077" x="3434.137" y="643.082" fill="#f5f5f5"/><rect width="35.248" height="226.213" x="3502.183" y="601.947" fill="#e1e1e1"/><rect width="35.248" height="138.502" x="3570.228" y="689.658" fill="#f5f5f5"/><rect width="35.241" height="174.178" x="3638.274" y="653.982" fill="#e1e1e1"/><path fill="#e1e1e1" d="M3651.6894,631.0873a11.41139,11.41139,0,0,1-2.1241-.2366c-1.5347-.2446-3.5734-.57-6.164-.9836-2.6929-.5244-6.0564-.9488-10.0497-1.3083q-2.99835-.31665-6.4285-.6786-3.46425-.15285-7.3546-.3237a193.141,193.141,0,0,0-37.7531,2.0495,209.92187,209.92187,0,0,0-48.2198,13.125,197.56447,197.56447,0,0,0-52.0078,30.7375c-17.0431,13.6625-31.9201,31.8251-46.5502,51.6164-14.7923,19.595-29.8854,41.1519-50.8303,58.5057a127.77182,127.77182,0,0,1-35.2735,21.3197,84.6564,84.6564,0,0,1-42.0905,5.1799c-14.4384-1.7538-27.8141-7.7107-39.6831-15.0602a167.77335,167.77335,0,0,1-31.4805-26.569c-18.616-19.7088-32.1482-42.0689-46.3995-62.0803-14.1124-20.0961-28.9621-38.4158-46.3466-51.5868a120.29613,120.29613,0,0,0-27.2215-15.4828,128.52165,128.52165,0,0,0-27.9502-7.5213,127.46668,127.46668,0,0,0-104.1412,29.6727c-1.9409,1.7605-3.4682,3.1462-4.6179,4.1895a11.52777,11.52777,0,0,1-1.6496,1.3601,11.26787,11.26787,0,0,1,1.4341-1.5734c1.1041-1.1002,2.57-2.5621,4.433-4.4194a122.48593,122.48593,0,0,1,19.2224-14.4771,134.23235,134.23235,0,0,1,85.6173-16.8258,130.00469,130.00469,0,0,1,28.4986,7.4712,122.24488,122.24488,0,0,1,27.8568,15.6466c17.769,13.3298,32.865,31.8417,47.0941,51.9702,14.3702,20.0626,27.9036,42.28,46.2812,61.6651a165.36573,165.36573,0,0,0,30.9446,26.0695c11.6016,7.1686,24.5815,12.9316,38.5017,14.6154a81.80382,81.80382,0,0,0,40.6428-4.9962,125.16625,125.16625,0,0,0,34.4754-20.8021c20.5893-16.9942,35.6261-38.3179,50.5003-57.9112,7.4257-9.8495,14.802-19.4004,22.5729-28.2022,3.9193-4.3647,7.796-8.6771,12.0043-12.5322q3.1179-2.92845,6.1862-5.8102c2.1041-1.8538,4.2993-3.5689,6.4165-5.3357a198.383,198.383,0,0,1,52.7797-30.7774,208.836,208.836,0,0,1,48.7682-12.8211,188.6529,188.6529,0,0,1,38.0398-1.5615q3.9054.24315,7.3859.4607,3.43785.436,6.4467.8186a92.31862,92.31862,0,0,1,10.0475,1.5945c2.5734.5364,4.5991.9585,6.1236,1.2759A11.38184,11.38184,0,0,1,3651.6894,631.0873Z"/><path fill="#1a2e35" d="M3198.7083 710.093c-.0632-.3914 3.0529.0961 4.2379 4.1207a7.51 7.51 0 01-1.3971 6.8159c-1.8915 2.3465-5.6561 2.8488-8.4758 1.508-2.8755-1.2202-4.9979-4.371-4.4973-7.3438a7.5118 7.5118 0 014.1742-5.5673c3.7976-1.7827 6.2288.2253 5.8943.438-.1382.4346-2.3112-.4027-4.8477 1.3767a5.70555 5.70555 0 00-2.5062 4.0405 5.09623 5.09623 0 008.2425 3.7083 5.70431 5.70431 0 001.3612-4.5559C3200.5433 711.5555 3198.4751 710.4849 3198.7083 710.093zM3539.3591 633.2722c-.0011-.174.7031-.4238 1.9995-.1991a7.87207 7.87207 0 014.6327 2.9626 8.1902 8.1902 0 011.2486 8.2812 9.4577 9.4577 0 01-8.6396 5.5588 8.75966 8.75966 0 01-8.0486-6.3677 8.3528 8.3528 0 011.6707-8.1737c3.4842-3.5223 6.7977-2.9648 6.7038-2.6861.1695.4631-2.7754.8988-5.0695 3.9961a6.357 6.357 0 00-.7156 6.0002 6.17143 6.17143 0 005.5041 4.2686 6.98288 6.98288 0 006.1077-3.7208 6.20808 6.20808 0 00-.4767-5.9541C3542.2267 633.8911 3539.2476 633.7313 3539.3591 633.2722z"/><rect width="921.506" height="391.689" x="919.204" y="556.628" fill="#fff" rx="22.718"/><path fill="#fafafa" d="M1190.066,702.1223c-13.8223-29.764-41.4567-53.805-81.1616-58.2634-1.0613-.1194-2.1296-.229-3.2082-.3203-.6825-.0574-1.3524-.1332-2.0418-.1791q-3.0084-.2007-6.1058-.2491c-.0935-.0018-.1842-.0104-.2784-.0121h-.0137c-.0873-.0017-.1694-.0097-.2561-.0109v.0155l-.4494,84.1597-.1056,19.7773,101.1667,23.3327.124.0287v-.0006a100.07749,100.07749,0,0,0,2.5102-21.792A109.18919,109.18919,0,0,0,1190.066,702.1223Z"/><path fill="#e1e1e1" d="M1081.049 757.9881l.2211-18.6143.4494-84.1597c-24.785-.1515-50.1669 9.3502-69.7467 26.2453-23.0635 19.9018-38.03962 50.0579-34.48993 86.7589q.5226 5.4063 1.6004 10.9987l-.77087.1642c13.4779 48.4627 57.2359 85.0994 100.4377 82.328 49.7088-3.1892 91.8258-33.9572 102.5266-80.6054zM1444.2914 687.4148c0 .8261-40.6084 1.4948-90.6897 1.4948-50.0981 0-90.6979-.6687-90.6979-1.4948 0-.8248 40.5998-1.4941 90.6979-1.4941C1403.683 685.9207 1444.2914 686.59 1444.2914 687.4148zM1444.2914 722.2606c0 .8255-40.6084 1.4948-90.6897 1.4948-50.0981 0-90.6979-.6693-90.6979-1.4948s40.5998-1.4947 90.6979-1.4947C1403.683 720.7659 1444.2914 721.4352 1444.2914 722.2606zM1444.2914 757.1064c0 .8255-40.6084 1.4948-90.6897 1.4948-50.0981 0-90.6979-.6693-90.6979-1.4948s40.5998-1.4947 90.6979-1.4947C1403.683 755.6117 1444.2914 756.281 1444.2914 757.1064zM1444.2914 791.9516c0 .8261-40.6084 1.4954-90.6897 1.4954-50.0981 0-90.6979-.6693-90.6979-1.4954 0-.8248 40.5998-1.4941 90.6979-1.4941C1403.683 790.4575 1444.2914 791.1268 1444.2914 791.9516zM1369.2046 829.6537c0 .4128-5.9492.7865-15.5674 1.0568-9.6188.271-22.9056.438-37.5804.438-14.68 0-27.9679-.167-37.5862-.438-9.6182-.2703-15.5668-.644-15.5668-1.0568s5.9486-.7864 15.5668-1.0567 22.9062-.4374 37.5862-.4374c14.6748 0 27.9616.167 37.5804.4374C1363.2554 828.8673 1369.2046 829.241 1369.2046 829.6537zM1573.5 655.4173c-.074-.1532 1.2284-1.0521 3.9016-2.1078a33.44863 33.44863 0 0116.1558-1.9333c.7152.0919 1.4442.2084 2.183.3571l.2772.0568.0351.0069c-.7578-1.2244 1.0527 1.6704.8633 1.3794l-.004.0166-.0138.0672-.0281.1343-.1137.5407-.2319 1.097q-.9678 4.5066-2.0297 9.4466c-1.5126 6.7809-3.1491 14.1174-4.8752 21.8552l-.2577 1.156-1.1968-.0051c-2.4327-.0092-4.998-.0195-7.6006-.0299-9.3571-.0964-18.2452-.1883-26.3658-.2721l-1.3811-.0137.0333-1.3662a36.578 36.578 0 013.7196-15.4049 31.97954 31.97954 0 017.5926-9.713 28.459 28.459 0 016.65-4.3625c1.6675-.7801 2.6324-1.0252 2.6869-.9053.213.3789-3.5175 1.8805-8.2216 6.4744a33.09482 33.09482 0 00-9.7009 23.9434l-1.3467-1.3788c8.1161.0029 16.999.0064 26.3498.0092 2.6026.0178 5.1678.035 7.6005.0517l-1.4533 1.1498c1.8374-7.7126 3.5795-15.025 5.1896-21.7835q1.2081-4.9026 2.3128-9.3823l.272-1.0872.1349-.5361.0333-.1332.0167-.0672.004-.0166c-.182-.3054 1.6204 2.5854.849 1.3604l-.0322-.0074-.2554-.0626c-.6802-.1659-1.3541-.3025-2.0189-.4173a32.98723 32.98723 0 00-3.8556-.434C1579.3763 652.7275 1573.643 655.9603 1573.5 655.4173z"/><path fill="#e1e1e1" d="M1591.7498 691.0306l-6.0806-.0718-27.4931-.1469a35.07847 35.07847 0 008.5735 22.7845 32.51681 32.51681 0 0028.3427 11.2674q1.766-.17055 3.5928-.5229l.054.252c15.8314-4.4028 27.8002-18.6981 26.895-32.8109-1.0418-16.239-11.0935-29.9982-26.3325-33.494zM1573.5 778.976a32.61493 32.61493 0 00-19.0338 26.5144c-.0391.3467-.0747.6952-.1045 1.0476-.019.2233-.0436.442-.0586.667q-.0654.9834-.0815 1.9947c-.0005.031-.0034.0603-.004.0913v.0046c-.0006.0281-.0034.0551-.0034.0832h.0051l27.4932.147 6.4612.0344 7.6224-33.0491.0091-.0407h0a32.67246 32.67246 0 00-7.1189-.8197A35.67181 35.67181 0 001573.5 778.976z"/><path fill="#e1e1e1" d="M1591.7504 814.5904c-.1292-.1654.4621-3.4545 1.582-9.1809 1.2731-6.1575 2.928-14.1639 4.921-23.8034l.2096-1.0166 1.0797.2095c9.9052 1.9201 20.7175 10.1412 25.1041 22.8592 2.0986 6.1867 3.4803 13.4171 1.4075 20.6153a35.83534 35.83534 0 01-12.695 18.1194 42.07871 42.07871 0 01-14.2236 7.185l-1.5177.4328-.3266-1.551-.0528-.2508 1.7243 1.1446a36.05268 36.05268 0 01-17.4949-.8524 33.73711 33.73711 0 01-13.94-8.5563 36.06544 36.06544 0 01-10.4277-25.58l.0224-1.0958 1.0597.0264c9.9477.2485 18.2101.454 24.5651.613a62.11458 62.11458 0 019.0029.682c.2227.1435-3.1479.3702-9.0127.5062-6.3549.0902-14.6179.2084-24.5673.3502l1.0808-1.0688a34.20665 34.20665 0 0010.1722 23.6725 31.74772 31.74772 0 0028.9833 8.3967l1.4155-.299.31 1.4448.054.2508-1.8432-1.1176a39.52029 39.52029 0 0013.1783-6.6908 33.18138 33.18138 0 0011.7146-16.5684c1.8948-6.3125.7123-13.0343-1.1951-18.8841-3.9797-11.9011-13.7701-19.6188-22.9791-21.6864l1.2881-.8065c-2.5137 10.2933-4.6456 18.5264-6.1294 24.1099C1592.7308 811.7874 1591.879 814.7557 1591.7504 814.5904zM1774.6826 796.6356c0 .8255-25.7166 1.4948-57.4323 1.4948-31.726 0-57.4374-.6693-57.4374-1.4948s25.7114-1.4947 57.4374-1.4947C1748.966 795.1409 1774.6826 795.8102 1774.6826 796.6356zM1717.2481 811.9763c0 .826-12.8586 1.4947-28.7165 1.4947-15.863 0-28.7187-.6687-28.7187-1.4947 0-.8249 12.8557-1.4942 28.7187-1.4942C1704.3895 810.4821 1717.2481 811.1514 1717.2481 811.9763zM1774.6826 673.1631c0 .8254-25.7166 1.4948-57.4323 1.4948-31.726 0-57.4374-.6694-57.4374-1.4948s25.7114-1.4942 57.4374-1.4942C1748.966 671.6689 1774.6826 672.3377 1774.6826 673.1631zM1717.2481 688.5043c0 .8255-12.8586 1.4948-28.7165 1.4948-15.863 0-28.7187-.6693-28.7187-1.4948s12.8557-1.4947 28.7187-1.4947C1704.3895 687.0096 1717.2481 687.6789 1717.2481 688.5043zM1501.067 894.639c-.8255 0-1.4948-69.1101-1.4948-154.3421 0-85.2613.6693-154.3565 1.4948-154.3565.8248 0 1.4947 69.0952 1.4947 154.3565C1502.5617 825.5289 1501.8918 894.639 1501.067 894.639z"/><rect width="3191.173" height="38.967" x="744.411" y="2358.49" fill="#e1e1e1"/><ellipse cx="2329.371" cy="2652.552" fill="#f5f5f5" rx="1155.857" ry="107.448"/><rect width="191.437" height="19.602" x="1703.908" y="1342.302" fill="#e0e0e0"/><rect width="138.218" height="19.602" x="1948.986" y="1489.803" fill="#e0e0e0"/><rect width="91.722" height="19.602" x="2108.736" y="1489.743" fill="#f9af5f"/><rect width="91.722" height="19.601" x="2296.389" y="2082.228" fill="#f9af5f"/><rect width="91.722" height="19.601" x="1706.309" y="1861.091" fill="#f9af5f"/><rect width="221.453" height="19.602" x="2218.579" y="1489.666" fill="#f9af5f"/><rect width="142.3" height="19.601" x="1706.276" y="1786.737" fill="#e0e0e0"/><rect width="142.3" height="19.6" x="2088.701" y="1934.711" fill="#f9af5f"/><rect width="86.87" height="19.6" x="1904.7" y="1934.804" fill="#e0e0e0"/><rect width="172.111" height="19.6" x="1706.341" y="1934.873" fill="#f9af5f"/><rect width="94.93" height="19.601" x="1706.374" y="2008.687" fill="#e0e0e0"/><rect width="135.9" height="19.602" x="1932.588" y="1342.214" fill="#404aa9"/><rect width="135.9" height="19.602" x="1932.685" y="1563.609" fill="#f9af5f"/><rect width="58.066" height="19.601" x="1864.767" y="1637.455" fill="#e0e0e0"/><rect width="130.425" height="19.601" x="1806.734" y="1712.352" fill="#f9af5f"/><rect width="180.052" height="19.601" x="1956.877" y="1712.275" fill="#f9af5f"/><rect width="135.901" height="19.601" x="1706.21" y="1638.052" fill="#f9af5f"/><rect width="80.638" height="19.601" x="1706.243" y="1712.407" fill="#f9af5f"/><rect width="76.076" height="19.601" x="1950.21" y="1637.958" fill="#bd313a"/><rect width="76.077" height="19.601" x="1708.686" y="2082.49" fill="#bd313a"/><rect width="135.901" height="19.602" x="1705.601" y="1489.911" fill="#f9af5f"/><rect width="135.9" height="19.601" x="1825.948" y="1861.029" fill="#f9af5f"/><rect width="135.9" height="19.601" x="1827.689" y="2008.625" fill="#f9af5f"/><rect width="135.901" height="19.601" x="2069.109" y="2008.519" fill="#f9af5f"/><rect width="193.73" height="19.602" x="1705.633" y="1563.696" fill="#f9af5f"/><rect width="135.901" height="19.601" x="2129.543" y="2082.292" fill="#f9af5f"/><rect width="173.143" height="19.602" x="2105.077" y="1342.129" fill="#404aa9"/><rect width="173.143" height="19.601" x="1813.484" y="2082.423" fill="#f9af5f"/><rect width="173.143" height="19.601" x="2417.224" y="2082.157" fill="#f9af5f"/><rect width="173.143" height="19.6" x="2390.509" y="1934.571" fill="#f9af5f"/><rect width="173.143" height="19.602" x="2342.021" y="1563.421" fill="#f9af5f"/><rect width="37.325" height="19.6" x="2018.766" y="1934.765" fill="#bd313a"/><rect width="173.143" height="19.602" x="2406.281" y="1341.997" fill="#ed4343"/><rect width="101.522" height="19.602" x="2208.811" y="1563.495" fill="#bd313a"/><rect width="101.523" height="19.6" x="2129.446" y="1861.992" fill="#bd313a"/><rect width="63.377" height="19.602" x="2310.236" y="1342.063" fill="#e0e0e0"/><rect width="63.377" height="19.602" x="2105.174" y="1563.549" fill="#f9af5f"/><rect width="99.149" height="19.601" x="1703.941" y="1416.121" fill="#404aa9"/><rect width="78.283" height="19.601" x="1968.652" y="1787.18" fill="#f9af5f"/><rect width="32.015" height="19.601" x="1827.428" y="1416.081" fill="#404aa9"/><rect width="264.614" height="19.601" x="2231.034" y="2008.419" fill="#f9af5f"/><rect width="32.668" height="19.601" x="1882.964" y="1416.057" fill="#bd313a"/><rect width="86.572" height="19.601" x="2373.645" y="1415.829" fill="#404aa9"/><rect width="86.572" height="19.602" x="2460.249" y="1489.589" fill="#404aa9"/><rect width="86.572" height="19.6" x="2267.21" y="1934.645" fill="#bd313a"/><rect width="86.572" height="19.601" x="2015.349" y="2082.353" fill="#bd313a"/><rect width="184.2" height="19.601" x="2166.527" y="1415.898" fill="#404aa9"/><rect width="107.618" height="19.6" x="1995.267" y="1862.05" fill="#f9af5f"/><rect width="53.809" height="19.601" x="1988.412" y="2008.572" fill="#f9af5f"/><rect width="63.376" height="19.601" x="2077.015" y="1415.964" fill="#404aa9"/><rect width="63.377" height="19.602" x="1863.722" y="1489.857" fill="#bd313a"/><rect width="63.377" height="19.601" x="1876.485" y="1787.224" fill="#bd313a"/><rect width="110.42" height="19.601" x="1942.421" y="1416.013" fill="#bd313a"/><polygon fill="#ed4343" points="2472.038 1348.909 2574.488 1246.37 2995.574 1246.185 2995.572 1240.956 2572.32 1241.143 2468.339 1345.214 2472.038 1348.909"/><polygon fill="#404aa9" points="2210.92 1347.668 2214.614 1343.971 2049.232 1178.734 1816.736 1178.836 1816.739 1184.064 2047.069 1183.963 2210.92 1347.668"/><rect width="37.174" height="112.911" x="2767.096" y="1105.898" fill="#a12c34"/><path fill="#ed4343" d="M2929.8681,1160.2252l-288.3732.1269a16.31166,16.31166,0,0,1-16.3188-16.3044l-.0853-193.8229a16.312,16.312,0,0,1,16.3048-16.3192l288.3728-.1269a16.3125,16.3125,0,0,1,16.3197,16.3053l.0853,193.8215A16.31256,16.31256,0,0,1,2929.8681,1160.2252Z"/><rect width="295.854" height="178.04" x="2637.7" y="946.763" fill="#f5f5f5"/><rect width="167.24" height="8.522" x="2702.088" y="1214.548" fill="#a12c34"/><rect width="95.088" height="109.924" x="2822.776" y="1000.758" fill="#fff" transform="rotate(179.975 2870.32 1055.72)"/><rect width="97.971" height="13.703" x="2710.089" y="1000.807" fill="#e0e0e0" transform="rotate(179.975 2759.074 1007.659)"/><rect width="97.971" height="13.703" x="2710.101" y="1028.943" fill="#fff" transform="rotate(179.975 2759.087 1035.795)"/><rect width="97.971" height="56.526" x="2710.122" y="1054.206" fill="#fff" transform="rotate(179.975 2759.107 1082.469)"/><rect width="41.569" height="113.051" x="2654.695" y="997.717" fill="#fff" transform="rotate(179.975 2675.48 1054.243)"/><rect width="263.168" height="28.23" x="2655.627" y="960.472" fill="#fff" transform="rotate(179.975 2787.21 974.587)"/><path fill="#404aa9" d="M1865.6106,1154.2608l131.759-.058a15.60748,15.60748,0,0,0,15.6006-15.6144l-.0877-199.1804a15.60782,15.60782,0,0,0-15.6147-15.601l-131.7577.058a15.60838,15.60838,0,0,0-15.6015,15.6153l.0877,199.1799A15.60733,15.60733,0,0,0,1865.6106,1154.2608Z"/><rect width="144.959" height="189.079" x="1858.955" y="934.487" fill="#fff" transform="rotate(179.975 1931.434 1029.027)"/><rect width="126.162" height="25.17" x="1868.667" y="948.084" fill="#d7d7e6" transform="rotate(179.975 1931.748 960.669)"/><rect width="51.929" height="123.374" x="1942.937" y="982.996" fill="#d7d7e6" transform="rotate(179.975 1968.902 1044.683)"/><rect width="64.588" height="14.289" x="1868.68" y="983.026" fill="#d7d7e6" transform="rotate(179.975 1900.974 990.17)"/><rect width="64.588" height="14.289" x="1868.691" y="1007.726" fill="#d7d7e6" transform="rotate(179.975 1900.985 1014.87)"/><rect width="64.588" height="14.289" x="1868.702" y="1032.427" fill="#d7d7e6" transform="rotate(179.975 1900.996 1039.571)"/><rect width="64.588" height="49.273" x="1868.72" y="1057.127" fill="#d7d7e6" transform="rotate(179.975 1901.014 1081.763)"/><polygon fill="#e0e0e0" points="2571.337 1683.699 2400.289 1683.774 2400.344 1807.752 2400.355 1833.865 2426.457 1807.741 2571.391 1807.677 2571.337 1683.699"/><rect width="586.259" height="1193.934" x="896.699" y="1051.143" fill="#f5f5f5"/><rect width="1156.476" height="533.437" x="611.59" y="1381.392" fill="#fff" transform="rotate(90 1189.828 1648.11)"/><polygon fill="#f5f5f5" points="1343.275 1093.89 1380.875 1093.89 1380.875 1200.658 1308.481 1200.658 1308.481 1122.109 1343.275 1093.89"/><polygon fill="#f5f5f5" points="1343.275 1222.604 1380.875 1222.604 1380.875 1329.372 1308.481 1329.372 1308.481 1250.823 1343.275 1222.604"/><polygon fill="#f5f5f5" points="1058.894 1115.002 1136.368 1115.002 1136.368 1334.996 987.202 1334.996 987.202 1173.148 1058.894 1115.002"/><rect width="136.052" height="6.085" x="1152.766" y="1235.635" fill="#f5f5f5"/><rect width="136.052" height="6.085" x="1152.766" y="1255.989" fill="#e1e1e1"/><rect width="136.052" height="6.085" x="1152.766" y="1279.45" fill="#f5f5f5"/><rect width="136.052" height="6.085" x="1152.766" y="1302.912" fill="#e1e1e1"/><rect width="136.052" height="6.085" x="1152.766" y="1326.374" fill="#e1e1e1"/><rect width="392.032" height="17.535" x="1000.161" y="1891.792" fill="#e1e1e1"/><rect width="392.032" height="17.535" x="1000.161" y="1825.69" fill="#f5f5f5"/><rect width="392.032" height="17.535" x="1000.161" y="1759.589" fill="#f5f5f5"/><rect width="392.032" height="17.535" x="1000.161" y="1693.487" fill="#f5f5f5"/><rect width="392.032" height="17.535" x="1000.161" y="1950.441" fill="#f5f5f5"/><rect width="392.032" height="17.535" x="1000.161" y="2018.046" fill="#e1e1e1"/><rect width="392.032" height="17.535" x="1000.161" y="2085.651" fill="#f5f5f5"/><rect width="392.032" height="17.535" x="1000.161" y="2153.256" fill="#f5f5f5"/><path fill="#d6d4d4" d="M989.039 1413.1558a54.99216 54.99216 0 01.9638-10.8742 22.49055 22.49055 0 014.267-9.9106 11.89407 11.89407 0 019.6355-4.4049 12.03974 12.03974 0 0110.3925 5.3682q4.61025 6.6075 4.611 19.8215a56.56121 56.56121 0 01-.9634 11.012 22.57588 22.57588 0 01-4.267 9.9794 12.16412 12.16412 0 01-9.7731 4.405 11.91828 11.91828 0 01-9.7041-4.3361q-2.8908-3.51-4.1984-9.9795A57.52773 57.52773 0 01989.039 1413.1558zm3.3036 0a46.649 46.649 0 001.7895 14.2467q2.8215 8.60415 9.7732 8.6031 6.8814 0 9.7731-8.5342a45.38293 45.38293 0 001.9268-14.3156q0-8.73945-1.8582-14.109-2.89065-8.3265-9.8417-8.3276-6.74565 0-9.6355 8.3276A44.18436 44.18436 0 00992.3426 1413.1558zM1036.5275 1394.8485l15.4857-6.8824h1.9267v47.0071h14.2469v2.4088h-31.3839v-2.4088h14.2464v-43.7926l-13.4348 6.0457zM1084.9794 1394.8485l15.4856-6.8824h1.9268v47.0071h14.2469v2.4088h-31.384v-2.4088h14.2465v-43.7926l-13.4348 6.0457zM1134.3946 1413.1558a54.99971 54.99971 0 01.9638-10.8742 22.4917 22.4917 0 014.267-9.9106 11.89421 11.89421 0 019.6355-4.4049 12.03979 12.03979 0 0110.3926 5.3682q4.61025 6.6075 4.6109 19.8215a56.56173 56.56173 0 01-.9633 11.012 22.577 22.577 0 01-4.267 9.9794 12.16432 12.16432 0 01-9.7732 4.405 11.91842 11.91842 0 01-9.7041-4.3361q-2.8908-3.51-4.1984-9.9795A57.53569 57.53569 0 011134.3946 1413.1558zm3.3036 0a46.65213 46.65213 0 001.7895 14.2467q2.8215 8.60415 9.7732 8.6031 6.88155 0 9.7732-8.5342a45.38609 45.38609 0 001.9267-14.3156q0-8.73945-1.8581-14.109-2.8908-8.3265-9.8418-8.3276-6.74565 0-9.6355 8.3276A44.18719 44.18719 0 001137.6982 1413.1558zM1181.8831 1394.8485l15.4857-6.8824h1.9267v47.0071h14.247v2.4088h-31.384v-2.4088h14.2465v-43.7926l-13.4348 6.0457zM1231.2984 1413.1558a54.99216 54.99216 0 01.9638-10.8742 22.4917 22.4917 0 014.267-9.9106 11.89421 11.89421 0 019.6355-4.4049 12.0395 12.0395 0 0110.3925 5.3682q4.61025 6.6075 4.611 19.8215a56.56121 56.56121 0 01-.9634 11.012 22.57585 22.57585 0 01-4.2669 9.9794 12.16432 12.16432 0 01-9.7732 4.405 11.91842 11.91842 0 01-9.7041-4.3361q-2.8908-3.51-4.1984-9.9795A57.52773 57.52773 0 011231.2984 1413.1558zm3.3036 0a46.649 46.649 0 001.7895 14.2467q2.8215 8.60415 9.7732 8.6031 6.8814 0 9.7732-8.5342a45.38609 45.38609 0 001.9267-14.3156q0-8.73945-1.8581-14.109-2.8908-8.3265-9.8418-8.3276-6.74565 0-9.6355 8.3276A44.18436 44.18436 0 001234.602 1413.1558zM1278.7869 1394.8485l15.4857-6.8824h1.9267v47.0071h14.2469v2.4088h-31.3839v-2.4088h14.2464v-43.7926l-13.4347 6.0457zM1328.2022 1413.1558a54.99216 54.99216 0 01.9638-10.8742 22.49055 22.49055 0 014.267-9.9106 11.89394 11.89394 0 019.6355-4.4049 12.03974 12.03974 0 0110.3925 5.3682q4.61025 6.6075 4.611 19.8215a56.56121 56.56121 0 01-.9634 11.012 22.57588 22.57588 0 01-4.267 9.9794 12.16412 12.16412 0 01-9.7731 4.405 11.91828 11.91828 0 01-9.7041-4.3361q-2.8908-3.51-4.1984-9.9795A57.52773 57.52773 0 011328.2022 1413.1558zm3.3036 0a46.649 46.649 0 001.7895 14.2467q2.8215 8.60415 9.7732 8.6031 6.8814 0 9.7731-8.5342a45.38583 45.38583 0 001.9268-14.3156q0-8.73945-1.8582-14.109-2.89065-8.3265-9.8417-8.3276-6.74565 0-9.6355 8.3276A44.18436 44.18436 0 001331.5058 1413.1558zM1375.6907 1394.8485l15.4856-6.8824h1.9268v47.0071H1407.35v2.4088h-31.3839v-2.4088h14.2464v-43.7926l-13.4348 6.0457zM989.039 1495.745a54.99145 54.99145 0 01.9638-10.8742 22.49151 22.49151 0 014.267-9.9107 11.89407 11.89407 0 019.6355-4.4049 12.0396 12.0396 0 0110.3925 5.3683q4.61025 6.60735 4.611 19.8215a56.56087 56.56087 0 01-.9634 11.0119 22.57683 22.57683 0 01-4.267 9.9795 12.164 12.164 0 01-9.7731 4.4049 11.91821 11.91821 0 01-9.7041-4.336q-2.8908-3.51015-4.1984-9.9795A57.52847 57.52847 0 01989.039 1495.745zm3.3036 0a46.649 46.649 0 001.7895 14.2467q2.8215 8.60415 9.7732 8.6031 6.8814 0 9.7731-8.5342a45.38337 45.38337 0 001.9268-14.3156q0-8.7396-1.8582-14.109-2.89065-8.3265-9.8417-8.3277-6.74565 0-9.6355 8.3277A44.18436 44.18436 0 00992.3426 1495.745zM1036.5275 1477.4376l15.4857-6.8824h1.9267v47.0071h14.2469v2.4089h-31.3839v-2.4089h14.2464v-43.7926l-13.4348 6.0458zM1085.9427 1495.745a54.991 54.991 0 01.9639-10.8742 22.49148 22.49148 0 014.2669-9.9107 11.89421 11.89421 0 019.6355-4.4049 12.03965 12.03965 0 0110.3926 5.3683q4.61025 6.60735 4.611 19.8215a56.56087 56.56087 0 01-.9634 11.0119 22.578 22.578 0 01-4.267 9.9795 12.1641 12.1641 0 01-9.7732 4.4049 11.91834 11.91834 0 01-9.7041-4.336q-2.8908-3.51015-4.1983-9.9795A57.528 57.528 0 011085.9427 1495.745zm3.3036 0a46.64864 46.64864 0 001.7896 14.2467q2.82135 8.60415 9.7731 8.6031 6.88155 0 9.7732-8.5342a45.38652 45.38652 0 001.9267-14.3156q0-8.7396-1.8581-14.109-2.8908-8.3265-9.8418-8.3277-6.74565 0-9.6355 8.3277A44.18719 44.18719 0 001089.2463 1495.745zM1134.3946 1495.745a54.999 54.999 0 01.9638-10.8742 22.49265 22.49265 0 014.267-9.9107 11.89421 11.89421 0 019.6355-4.4049 12.03965 12.03965 0 0110.3926 5.3683q4.61025 6.60735 4.6109 19.8215a56.56138 56.56138 0 01-.9633 11.0119 22.578 22.578 0 01-4.267 9.9795 12.16424 12.16424 0 01-9.7732 4.4049 11.91834 11.91834 0 01-9.7041-4.336q-2.8908-3.51015-4.1984-9.9795A57.53643 57.53643 0 011134.3946 1495.745zm3.3036 0a46.65213 46.65213 0 001.7895 14.2467q2.8215 8.60415 9.7732 8.6031 6.88155 0 9.7732-8.5342a45.38652 45.38652 0 001.9267-14.3156q0-8.7396-1.8581-14.109-2.8908-8.3265-9.8418-8.3277-6.74565 0-9.6355 8.3277A44.18719 44.18719 0 001137.6982 1495.745zM1181.8831 1477.4376l15.4857-6.8824h1.9267v47.0071h14.247v2.4089h-31.384v-2.4089h14.2465v-43.7926l-13.4348 6.0458zM1231.2984 1495.745a54.99145 54.99145 0 01.9638-10.8742 22.49265 22.49265 0 014.267-9.9107 11.89421 11.89421 0 019.6355-4.4049 12.03936 12.03936 0 0110.3925 5.3683q4.61025 6.60735 4.611 19.8215a56.56087 56.56087 0 01-.9634 11.0119 22.5768 22.5768 0 01-4.2669 9.9795 12.16424 12.16424 0 01-9.7732 4.4049 11.91834 11.91834 0 01-9.7041-4.336q-2.8908-3.51015-4.1984-9.9795A57.52847 57.52847 0 011231.2984 1495.745zm3.3036 0a46.649 46.649 0 001.7895 14.2467q2.8215 8.60415 9.7732 8.6031 6.8814 0 9.7732-8.5342a45.38652 45.38652 0 001.9267-14.3156q0-8.7396-1.8581-14.109-2.8908-8.3265-9.8418-8.3277-6.74565 0-9.6355 8.3277A44.18436 44.18436 0 001234.602 1495.745zM1278.7869 1477.4376l15.4857-6.8824h1.9267v47.0071h14.2469v2.4089h-31.3839v-2.4089h14.2464v-43.7926l-13.4347 6.0458zM1328.2022 1495.745a54.99145 54.99145 0 01.9638-10.8742 22.49151 22.49151 0 014.267-9.9107 11.89394 11.89394 0 019.6355-4.4049 12.0396 12.0396 0 0110.3925 5.3683q4.61025 6.60735 4.611 19.8215a56.56087 56.56087 0 01-.9634 11.0119 22.57683 22.57683 0 01-4.267 9.9795 12.164 12.164 0 01-9.7731 4.4049 11.91821 11.91821 0 01-9.7041-4.336q-2.8908-3.51015-4.1984-9.9795A57.52847 57.52847 0 011328.2022 1495.745zm3.3036 0a46.649 46.649 0 001.7895 14.2467q2.8215 8.60415 9.7732 8.6031 6.8814 0 9.7731-8.5342a45.38626 45.38626 0 001.9268-14.3156q0-8.7396-1.8582-14.109-2.89065-8.3265-9.8417-8.3277-6.74565 0-9.6355 8.3277A44.18436 44.18436 0 001331.5058 1495.745zM1375.6907 1477.4376l15.4856-6.8824h1.9268v47.0071H1407.35v2.4089h-31.3839v-2.4089h14.2464v-43.7926l-13.4348 6.0458zM989.039 1578.3344a54.99145 54.99145 0 01.9638-10.8742 22.49151 22.49151 0 014.267-9.9107 11.89407 11.89407 0 019.6355-4.4049 12.0396 12.0396 0 0110.3925 5.3683q4.61025 6.60735 4.611 19.8215a56.56087 56.56087 0 01-.9634 11.0119 22.57683 22.57683 0 01-4.267 9.9795 12.164 12.164 0 01-9.7731 4.4049 11.91821 11.91821 0 01-9.7041-4.336q-2.8908-3.51015-4.1984-9.9795A57.52847 57.52847 0 01989.039 1578.3344zm3.3036 0a46.649 46.649 0 001.7895 14.2467q2.8215 8.60415 9.7732 8.6031 6.8814 0 9.7731-8.5343a45.38226 45.38226 0 001.9268-14.3155q0-8.7396-1.8582-14.109-2.89065-8.3265-9.8417-8.3277-6.74565 0-9.6355 8.3277A44.18436 44.18436 0 00992.3426 1578.3344zM1037.4908 1578.3344a54.991 54.991 0 01.9639-10.8742 22.49151 22.49151 0 014.267-9.9107 11.89388 11.89388 0 019.6354-4.4049 12.03965 12.03965 0 0110.3926 5.3683q4.61025 6.60735 4.611 19.8215a56.56087 56.56087 0 01-.9634 11.0119 22.57683 22.57683 0 01-4.267 9.9795 12.1641 12.1641 0 01-9.7732 4.4049 11.91848 11.91848 0 01-9.7041-4.336q-2.89065-3.51015-4.1983-9.9795A57.528 57.528 0 011037.4908 1578.3344zm3.3037 0a46.649 46.649 0 001.7895 14.2467q2.82135 8.60415 9.7731 8.6031 6.88155 0 9.7732-8.5343a45.38542 45.38542 0 001.9267-14.3155q0-8.7396-1.8581-14.109-2.8908-8.3265-9.8418-8.3277-6.7455 0-9.6354 8.3277A44.18436 44.18436 0 001040.7945 1578.3344zM1084.9794 1560.027l15.4856-6.8824h1.9268v47.0071h14.2469v2.4089h-31.384v-2.4089h14.2465v-43.7926l-13.4348 6.0458zM1133.4313 1560.027l15.4856-6.8824h1.9267v47.0071h14.247v2.4089h-31.384v-2.4089h14.2465v-43.7926l-13.4348 6.0458zM1182.8465 1578.3344a54.999 54.999 0 01.9638-10.8742 22.49265 22.49265 0 014.267-9.9107 11.89421 11.89421 0 019.6355-4.4049 12.03936 12.03936 0 0110.3925 5.3683q4.6104 6.60735 4.611 19.8215a56.56917 56.56917 0 01-.9633 11.0119 22.578 22.578 0 01-4.267 9.9795 12.16424 12.16424 0 01-9.7732 4.4049 11.91834 11.91834 0 01-9.7041-4.336q-2.8908-3.51015-4.1984-9.9795A57.53643 57.53643 0 011182.8465 1578.3344zm3.3036 0a46.65213 46.65213 0 001.7895 14.2467q2.8215 8.60415 9.7732 8.6031 6.8814 0 9.7732-8.5343a45.38542 45.38542 0 001.9267-14.3155q0-8.7396-1.8581-14.109-2.8908-8.3265-9.8418-8.3277-6.74565 0-9.6355 8.3277A44.18719 44.18719 0 001186.1501 1578.3344zM1230.335 1560.027l15.4857-6.8824h1.9267v47.0071h14.2469v2.4089h-31.3839v-2.4089h14.2465v-43.7926l-13.4348 6.0458zM1279.7503 1578.3344a54.99145 54.99145 0 01.9638-10.8742 22.49151 22.49151 0 014.267-9.9107 11.89421 11.89421 0 019.6355-4.4049 12.03948 12.03948 0 0110.3925 5.3683q4.61025 6.60735 4.611 19.8215a56.56087 56.56087 0 01-.9634 11.0119 22.57683 22.57683 0 01-4.267 9.9795 12.164 12.164 0 01-9.7731 4.4049 11.91821 11.91821 0 01-9.7041-4.336q-2.8908-3.51015-4.1984-9.9795A57.52847 57.52847 0 011279.7503 1578.3344zm3.3036 0a46.649 46.649 0 001.7895 14.2467q2.8215 8.60415 9.7732 8.6031 6.8814 0 9.7731-8.5343a45.38226 45.38226 0 001.9268-14.3155q0-8.7396-1.8581-14.109-2.8908-8.3265-9.8418-8.3277-6.74565 0-9.6355 8.3277A44.18436 44.18436 0 001283.0539 1578.3344zM1327.2388 1560.027l15.4857-6.8824h1.9267v47.0071h14.2469v2.4089h-31.3839v-2.4089h14.2464v-43.7926l-13.4348 6.0458zM1376.654 1578.3344a54.991 54.991 0 01.9639-10.8742 22.49151 22.49151 0 014.267-9.9107 11.89388 11.89388 0 019.6354-4.4049 12.03965 12.03965 0 0110.3926 5.3683q4.61025 6.60735 4.611 19.8215a56.56087 56.56087 0 01-.9634 11.0119 22.57683 22.57683 0 01-4.267 9.9795 12.1641 12.1641 0 01-9.7732 4.4049 11.91848 11.91848 0 01-9.7041-4.336q-2.8908-3.51015-4.1983-9.9795A57.528 57.528 0 011376.654 1578.3344zm3.3037 0a46.649 46.649 0 001.7895 14.2467q2.82135 8.60415 9.7731 8.6031 6.88155 0 9.7732-8.5343a45.38542 45.38542 0 001.9267-14.3155q0-8.7396-1.8581-14.109-2.8908-8.3265-9.8418-8.3277-6.74565 0-9.6354 8.3277A44.18436 44.18436 0 001379.9577 1578.3344z"/><g opacity=".45"><path fill="#fff" d="M2446.0036 360C1946.9151 918.4872 1088.979 1878.5859 744.41268 2264.3507V1359.4273C1011.3125 1063.5263 1388.1686 647.2624 1654.1 360zM3935.5885 1575.871v782.6234H3224.4149c97.6124-108.143 206.4875-228.5284 317.4349-350.8172q40.731-44.8869 81.6985-89.9652C3730.4188 1800.1197 3837.1314 1683.1243 3935.5885 1575.871zM3569.7696 360C3276.673 687.9767 2312.7788 1766.6136 1784.0021 2358.4944h-317.063C1759.4162 2027.657 2828.6263 819.6246 3252.8866 360zM3789.2881 360c-225.8705 252.7541-1220.928 1366.2374-1785.7787 1998.4944H1891.7962C2377.7527 1802.9353 3314.335 734.8287 3658.8227 360z"/></g><path fill="#fcc4a7" d="M2024.7731,998.8118c1.9822-2.9395-74.1527-23.46-76.4613-29.2376-1.6894-4.246-2.3991-14.9792-2.2415-25.9151.1578-11.6005,1.2841-23.4374,3.2212-27.9537,5.2257-12.2874,10.9697-14.0895,12.096-28.1451.0225-.2027.045-.4167.0563-.6308.8673-12.5802-1.3289-26.9061-5.147-38.8782-1.588-4.9894-3.6153-10.0801-2.9394-15.2719.5067-3.9195,2.4777-7.3545,4.5949-10.7558,2.5003-3.987,5.2147-7.9064,6.0369-12.4678q1.8411,3.4296,3.4013,6.859c7.3993,16.0717,10.6205,32.346,12.9632,49.1271,1.4304,10.2378,2.5341,20.6557,4.0543,31.3325.6421,4.4938,27.7398,5.9241,33.1795,9.5281,7.2194,4.7866,12.5466,11.8708,17.7159,18.8085,1.5882,2.1287,3.1649,4.2459,4.7531,6.3634,1.3289,1.7794,2.6578,3.5701,3.987,5.3497C2056.5222,953.6601,2033.8621,985.3418,2024.7731,998.8118Z"/><path fill="#fb9a77" d="M1961.4438 886.9295c.8673-12.5802-1.3289-26.9061-5.147-38.8782-1.588-4.9894-3.6153-10.0801-2.9394-15.2719.5067-3.9195 2.4777-7.3545 4.5949-10.7558a50.63456 50.63456 0 019.4382-5.6088c7.3993 16.0717 10.6205 32.346 12.9632 49.1271a183.93614 183.93614 0 01-18.9662 22.0184C1961.41 887.3576 1961.4325 887.1436 1961.4438 886.9295zM2024.7731 998.8118c1.9822-2.9395-74.1527-23.46-76.4613-29.2376-1.6894-4.246-2.3991-14.9792-2.2415-25.9151 18.0426 3.2211 36.3893 4.8654 54.7135 2.1736 14.3147-2.106 23.6401-10.8344 37.4593-13.5151l1.8134-.7432c1.3289 1.7794 2.6578 3.5701 3.987 5.3497C2056.5222 953.6601 2033.8621 985.3418 2024.7731 998.8118z" opacity=".7"/><path fill="#bd313a" d="M1940.9103,959.2159a63.76527,63.76527,0,0,1,3.8035-12.3555c10.1683,2.7323,20.1273,7.1131,30.0575,10.8789,26.0258,9.8697,53.2343,19.9077,80.9239,17.0719-1.2821,41.3737,14.0916,79.5636,13.7765,120.23-.0771,9.9423-6.8103,113.859-5.1216,114.3144q-50.11845-13.51725-100.2371-27.0345c-6.0639-1.6354-12.3482-3.3843-17.1165-7.472-8.26-7.0809-9.8144-19.0801-10.5407-29.943-2.4102-36.0576.455-72.1501,2.6066-108.1413C1940.4046,1014.3125,1935.9253,983.1347,1940.9103,959.2159Z"/><path fill="#bc641b" d="M1777.3641,2598.9067c14.5994,20.7472,82.7048,23.5525,109.7112,26.3376,27.0067,2.7852,44.8206,6.4938,71.6034-3.9118,26.7831-10.4057,55.3855-15.6905,81.2742-22.4044,25.8884-6.714,38.0998-20.6862,61.2348-29.2944a162.69989,162.69989,0,0,1,4.1467-17.2905c-7.6318-11.9735-12.0757-22.6378-28.7453-22.3341-37.9598.6915-44.4571,26.9963-74.9646.0793-20.6249-18.1973-79.7818-55.0062-74.6364-90.8912-11.7826-1.7732-48.9273,4.326-54.8988,5.0134-37.6757,4.3365-64.2976,3.2977-98.8591,3.6979.7552,28.9821-2.1805,57.9373-1.2455,87.042C1772.0539,2556.9808,1763.0288,2578.5346,1777.3641,2598.9067Z"/><path fill="#ed9b3a" d="M1889.4055,2592.6577c14.1795-35.2955,52.8119-29.126,83.0382-24.6731,17.9559,2.6452,35.1134-11.5516,43.014-23.2757h0c21.6625-32.7298,36.8228-15.5577,58.0752-15.0542,27.9949.6634,18.6505,10.3418,32.1984,22.7125-2.503,5.8233-3.2758,11.2352-4.6014,17.261-22.493,8.6738-36.0375,22.5084-61.1051,29.3076s-56.1904,11.8254-80.9483,22.4373-50.6892,6.0819-68.9434,4.1676,2.9516.0621-8.6512-.9031C1885.0536,2613.149,1884.7495,2604.2468,1889.4055,2592.6577Z"/><path fill="#512301" d="M1765.9905,2448.8675c15.4061.6491-13.9423.3819,10.6496.2726,24.5923-.1093,83.3827-7.5444,115.7232-7.2363.4335,33.8225-5.9062,66.2741-47.3093,72.6909-18.3455,2.8432-50.9363,5.0096-71.7637,4.6911-2.248-13.1685-4.806-55.2377-5.6573-62.2855C1766.0774,2444.1217,1768.6784,2456.2278,1765.9905,2448.8675Z"/><path d="M1776.6139,2598.8207c-5.7826-7.1784-3.939-19.5935-5.4392-28.1337,23.3237,7.4806,33.2456,14.0174,59.004,13.3005,46.393-1.2911,81.6782,20.0346,131.2098,11.54,37.2744-6.3925,104.5181-21.7195,130.2809-59.8711,7.7787,3.9813,9.9724,10.3592,13.5529,16.7092-1.3413,5.8295-3.1389,11.2302-4.0267,17.2674-23.1974,8.6092-35.2869,22.5816-61.2491,29.2951s-54.34,12.0033-81.3005,22.4037-44.1396,6.7092-71.6802,3.9087S1793.4539,2619.7253,1776.6139,2598.8207Z" style="mix-blend-mode:multiply" fill="#c9c9c9"/><path fill="#a55316" d="M1771.7724,2587.9776c-2.1264,17.0748-3.7436,34.2908-5.6275,51.4255,34.9955,24.0754,83.3242,25.1028,124.3468,21.3067.1216-7.7971-.6611-15.5954-.5796-23.3959,19.0987,2.0301,37.4446,2.9631,55.6569-4.0619,1.154,2.619,2.7348,5.0675,4.131,7.5676,39.9377-7.7599,152.8024-25.9873,163.8596-78.3035-3.4116-3.6713-5.5966-8.0887-9.8613-11.2331-.3711,7.6736-43.3537,31.1159-45.7331,32.1334-41.765,17.8618-109.708,42.1501-156.4897,38.3441-34.1197-2.7759-84.0786-5.8989-117.632-24.8789C1780.2857,2594.869,1773.8221,2591.4726,1771.7724,2587.9776Z"/><path fill="#bc641b" d="M2009.3961,2606.6427c10.504,19.7998,122.0456,29.8108,122.0456,29.8108l103.1489,16.0981,84.8373-4.4561,63.5799-21.02,8.2088-17.4517s-3.1808-27.612-23.0448-33.4693c-45.234-13.3383-91.9081-24.5497-133.6132-47.2061-28.1947-15.3169-78.6141-36.3631-75.3117-75.07-.0007.0101-48.032,7.7452-52.8476,8.0216-30.3822,1.7434-62.1194-1.9345-92.5566-2.8741-.3432,27.7377-4.9752,55.7055-5.217,83.0503C2004.6249,2562.2703,1999.3642,2587.0535,2009.3961,2606.6427Z"/><path fill="#ed9b3a" d="M2135.3029,2605.2812c12.7298-30.1076,59.7395-32.8572,92.0327-30.9167a42.59215,42.59215,0,0,0,42.803-28.985h0c40.8532,23.1784,82.9238,26.331,98.0155,30.7698,19.8798,5.8461,23.0625,33.4745,23.0625,33.4745l-8.2088,17.4517-63.5799,21.02-84.8373,4.4561-103.1489-16.0981s-2.0906-.1868-5.7043-.5638A178.27071,178.27071,0,0,1,2135.3029,2605.2812Z"/><path fill="#512301" d="M2007.4318,2460.3804l4.7786-.0356c.9752-.008,72.858-.5367,115.6382-.8046,1.0806,21.481-1.3568,68.6294-43.8455,68.576-18.8264-.0236-46.0498-.0578-73.73-.0926-1.2242-33.8119-2.5798-62.2504-2.6092-62.8995Z"/><path d="M2009.3961,2606.6427c-3.6018-6.8018-4.2576-17.2417-3.4225-29.0224,14.4054,7.5303,34.789,14.1671,59.6107,14.8343,44.7062,1.1975,41.2538,8.0321,165.6138,23.5929,93.586,11.7072,136.5725-14.443,152.1237-28.1012,6.5296,9.8228,7.8948,21.6775,7.8948,21.6775l-8.2088,17.4517-63.5799,21.02-84.8373,4.4561-103.1489-16.0981S2019.9001,2626.4425,2009.3961,2606.6427Z" style="mix-blend-mode:multiply" fill="#c9c9c9"/><path fill="#a55316" d="M2005.1535,2595.3182l-8.2769,52.2665c37.9903,30.4301,132.9372,23.7456,132.9372,23.7456l3.8507-22.806,83.2938,9.9904,3.8048,10.6429c146.8575,18.3008,175.8322-46.9251,175.8322-46.9251s-5.9717-14.3908-5.9738-14.396c1.5358,3.701-49.928,23.9573-53.2854,25.094-58.9357,19.9539-121.6478,8.9384-181.9526,1.6926-43.9826-5.2847-99.5175-7.9565-138.9094-30.2999C2012.2972,2601.9541,2007.9193,2599.3612,2005.1535,2595.3182Z"/><path fill="#20326b" d="M2035.1123,1719.2641q-12.1809,77.35695-24.6987,154.6686v.0112q-15.8298,97.76475-32.2336,195.4279-.4731,2.8212-.9349,5.6763c-9.269,57.5404-13.7628,122.2325-18.7069,182.5434-3.9193,47.6632,7.7372,147.6971-26.2643,185.2464-32.5039,35.6911-117.8402,31.5352-161.933,45.3205,1.115-257.0226,1.9146-509.2925-13.729-765.6507-.2703-4.4261-.2365-20.8469-.124-44.1491.2026-42.6738.6759-108.402,0-165.5369-.7432-62.6425-2.8605-114.9682-8.1876-115.3286.0786.0112,244.0481,16.387,244.0481,16.387S2035.1123,1719.253,2035.1123,1719.2641Z"/><path fill="#14244c" d="M2010.4136,1873.9327v.0112q-15.8298,97.76475-32.2336,195.4279-.4731,2.8212-.9349,5.6763c-35.6007-123.7416-70.2556-243.3949-164.8272-340.1741-18.4595-18.8986-38.7884-36.5807-55.93-56.5154.2026-42.6738.6759-108.402,0-165.5369,23.0434-5.3159,48.0575-.5181,70.2559,8.4469,101.7006,41.097,151.47,156.5156,171.3258,264.3996C2003.1377,1813.2164,2007.3164,1843.0058,2010.4136,1873.9327Z"/><path fill="#2f3e93" d="M2210.3124,2166.2314c-.0113,106.6902-21.3087,212.6032-19.0675,317.5589-20.5316,3.7279-186.5417-6.0593-186.9357,23.1445.0222-1.498.6868-51.2672,1.3176-119.4506,1.2052-129.7221,2.3089-326.0734-1.3176-383.2083-3.7731-59.6802-65.1878-173.2406-99.5724-298.6377-14.5962-53.238-24.3157-108.6161-22.694-162.9016.0226-.7207.0451-1.4529.079-2.1736q.2532-7.33215.7996-14.6526c13.9992-186.8794,228.9899-63.9263,228.9899-63.9263s6.082,27.9199,15.4412,71.506c1.4526,6.78,2.9845,13.943,4.5839,21.4439,5.372,25.0479,11.4991,53.8238,18.0086,84.5817q2.5341,12.0285,5.147,24.4173c25.6562,121.7593,55.3218,266.2804,66.6066,335.4888C2230.7989,2055.2953,2210.3236,2110.1889,2210.3124,2166.2314Z"/><path fill="#20326b" d="M2047.7373,1844.6518c-10.6317,55.0401-.9684,112.2651-3.6265,167.8909-2.4326,51.0981-9.4491,102.7819-14.889,153.8013q-11.80875,110.5701-23.595,221.1402c1.2052-129.7221,2.3089-326.0734-1.3176-383.2083-3.7731-59.6802-65.1878-173.2406-99.5724-298.6377-14.5962-53.238-24.3157-108.6161-22.694-162.9016.0226-.7207.0451-1.4529.079-2.1736,45.7257-39.892,108.3344-60.2547,165.7057-42.6063,31.7155,9.7534,59.3423,31.6817,84.1089,56.9773,5.372,25.0479,11.4991,53.8238,18.0086,84.5817q2.5341,12.0285,5.147,24.4173C2108.8705,1717.9481,2061.1963,1775.0267,2047.7373,1844.6518Z"/><path fill="#14244c" d="M2149.9452,1639.5141c-16.0491-12.5128-30.8706-27.2442-49.8143-34.3395-80.6399-30.195-146.1315,34.4183-195.3939,100.4619-14.5962-53.2381-24.316-108.616-22.6939-162.9016a233.68374,233.68374,0,0,1,65.5928-17.1079c55.5357-6.1718,117.9867-26.3993,170.1772,2.2301q4.86525,2.66925,9.5393,5.6313C2133.6709,1562.94,2141.487,1599.5433,2149.9452,1639.5141Z"/><path fill="#ed4343" d="M2136.1598,1538.106a115.96936,115.96936,0,0,1-.4619,25.5772c0,.0339-.011.079-.011.1128-1.5318-.1128-3.3562-.2254-5.485-.3154-23.7077-1.0475-83.5906.0338-161.2458,28.5731-19.7433,7.2643-36.1642,13.7515-50.1748,19.4279-2.4664,1.0024-4.8655,1.9709-7.1966,2.9282-38.3716,15.6887-57.7206,24.451-80.7414,25.5321a121.19871,121.19871,0,0,1-20.7681-.9346c-.7771-.0902-1.5544-.1916-2.3427-.3041-1.3064-.1691-2.6465-.3717-4.0093-.5857q-3.514-.55755-6.9266-1.2615c-24.9239-5.0907-45.5682-15.5197-59.3649-24.1017a152.71657,152.71657,0,0,1-18.8196-13.5264s57.957-111.0601,37.7295-187.2399c-9.3254-35.1278-29.8232-87.6903-48.1699-138.1914-21.4552-59.0047-39.9934-115.1821-34.3959-137.4144,16.8825-67.0347-38.2025-169.0059,30.2062-210.6435a98.21449,98.21449,0,0,1,17.3555-8.233c14.8891-5.451,26.6587-3.5139,39.8471-.2365,5.6873,1.4191,11.6453,3.0972,18.2227,4.5276,26.6584,5.8001,53.2381,12.0058,79.6374,18.9436,41.7391,10.9698,93.0288,21.2637,128.1341,48.046,52.8889,40.365,134.9705,233.8668,156.6171,296.1826,1.0248,2.962,1.9258,5.6312,2.6691,7.9739,16.4547,51.5149-34.3734,82.6783-38.3939,82.6783h-46.447s.1353.1464.4056.4393c.1127.1126.2364.2478.383.4167,1.1823,1.3176,3.6829,4.1783,7.1067,8.6159.991,1.2952,2.0721,2.7143,3.1984,4.2796.2477.3267.4955.6646.7435,1.0026.7432,1.0248,1.509,2.0946,2.2976,3.2322.7996,1.1262,1.6218,2.3088,2.4552,3.559q.42225.6081.8447,1.2501c.2928.428.5744.856.8669,1.2952.5747.8785,1.1604,1.7682,1.757,2.6918.0564.0789.1128.1688.1692.2477.5405.8447,1.0924,1.7007,1.6442,2.5905q1.99335,3.1422,4.0769,6.6335c.5406.901,1.0927,1.8247,1.6333,2.7594.991,1.6894,1.982,3.435,3.007,5.2371.6534,1.1714,1.3177,2.3764,1.9823,3.5927,4.0543,7.4334,8.2552,15.745,12.4339,24.9578.642,1.4079,1.2725,2.8157,1.892,4.2348A457.02154,457.02154,0,0,1,2136.1598,1538.106Z"/><path fill="#bd313a" d="M2135.6979 1563.6832c0 .0339-.011.079-.011.1128-1.5318-.1128-3.3562-.2254-5.485-.3154-5.5185-24.0793-20.2388-46.4467-37.9322-64.2191-24.5524-24.6425-54.826-42.64-82.2617-64.0051-36.0063-28.0437-69.1071-68.0145-72.8125-114.9568-3.5476-44.9151-23.0657-85.9783-23.5725-131.1975-.0338-2.6917.0113-5.3834.124-8.0978 0-.135 0-.2816.0113-.4166-.0789-.0676-.1466-.124-.2252-.1915-.3605-.3041-.6759-.5969-.9574-.856-.6195-.5969-1.0135-1.07-1.0026-1.3065.1241-3.5926.2481-7.1966.3831-10.7894q1.75695 4.8147 3.7167 9.6406c2.1623 2.2638 4.4035 5.2597 5.1132 8.0866.0902.3491-.8334-.1126-2.1175-.946 5.8455 13.5263 12.7606 27.1314 20.2052 40.5903 14.1569 25.5546 30.2849 50.5462 44.8699 73.4092 18.741 29.3615 53.3733 54.5106 80.9553 75.2339l2.3089 2.1623h-5.3838s.1353.1464.4056.4393c.1014.1126.2364.2478.383.4167 1.1823 1.3176 3.6829 4.1783 7.1067 8.6159.9797 1.2952 2.0609 2.7143 3.1984 4.2796.2477.3267.4955.6646.7435 1.0026.732 1.0248 1.509 2.1059 2.2976 3.2322.7996 1.1262 1.6218 2.3088 2.4552 3.559q.42225.6081.8447 1.2501c.2928.428.5744.856.8669 1.2952.5747.8785 1.1604 1.7682 1.757 2.6918.597.9236 1.2052 1.8695 1.8134 2.8382q1.99335 3.1422 4.0769 6.6335c.5406.901 1.0812 1.8247 1.6333 2.7594.991 1.6894 1.982 3.435 3.007 5.2371.6534 1.1714 1.3177 2.3764 1.9823 3.5927 4.0543 7.4334 8.2552 15.745 12.4339 24.9578.642 1.4079 1.2725 2.8157 1.892 4.2348 10.5867 23.8428 19.8222 49.3073 25.7801 74.5805a85.49335 85.49335 0 011.8582 10.8684A115.96936 115.96936 0 012135.6979 1563.6832zM1870.4087 1527.7558c-16.4547-47.1902-14.1571-97.8492-30.9945-143.9805-17.4119-47.7194-38.4956-91.4068-62.1244-136.3782a1342.68776 1342.68776 0 01-57.7206-125.0368c-10.2149-25.4872-19.7881-52.0331-19.3602-79.4798.6646-42.336 24.7215-80.2908 47.956-115.6776 7.974-2.3427 2.2525 9.5619 7.6808 3.2773a22.97533 22.97533 0 005.3388-13.211c-13.1884-3.2774-24.958-5.2145-39.8471.2365a98.21449 98.21449 0 00-17.3555 8.233c-68.4087 41.6376-13.3237 143.6088-30.2062 210.6435-5.5975 22.2323 12.9407 78.4097 34.3959 137.4144 18.3467 50.5011 38.8445 103.0636 48.1699 138.1914 20.2275 76.1798-37.7295 187.2399-37.7295 187.2399a152.71657 152.71657 0 0018.8196 13.5264c13.7967 8.582 34.441 19.011 59.3649 24.1017q3.41265.70965 6.9266 1.2615c1.3628.214 2.7029.4166 4.0093.5857.7883.1125 1.5656.2139 2.3427.3041a121.19871 121.19871 0 0020.7681.9346c23.0208-1.0811 42.3698-9.8434 80.7414-25.5321 2.3311-.9573 4.7302-1.9258 7.1966-2.9282C1897.1009 1587.5936 1881.0744 1558.3561 1870.4087 1527.7558zm-115.6891 88.1744c17.243 2.5905 23.7641 3.7504 34.9254 14.0445C1778.2247 1625.2893 1766.6019 1621.5615 1754.7196 1615.9302z"/><path fill="#fcc4a7" d="M1912.4635,933.5457a8.47117,8.47117,0,0,1-.5856,1.5993c-8.0867,16.2293-42.2008,23.978-77.1147,27.1315-28.9788,2.6128-58.4979,2.0497-74.1302.5293-1.5766-.1577-3.0182-.3153-4.2911-.4844.214-.7996.4394-1.5992.6421-2.3988.8898-3.2549,1.7345-6.521,2.5566-9.7983a597.45189,597.45189,0,0,0,11.7919-59.8606c.4842-3.345.9458-6.7012,1.3627-10.0461q2.247-17.43465,3.4238-34.9816.7095-10.33875,1.0474-20.7117c.0676-2.23.1353-4.4601.1801-6.6788.0115-.6306.0225-1.2726.0341-1.9147.0225-1.3514.0225-2.7141.011-4.0881a84.2746,84.2746,0,0,0-1.8695-18.4482,37.49373,37.49373,0,0,0-8.6157-17.2429c1.8243-1.7344-2.2864-7.0279-.462-8.7735,18.1103,11.1048,37.831,24.2145,58.2724,33.461,2.4104,1.0925,4.843,2.1398,7.2756,3.1085,4.1223,1.6443,8.2555,3.1085,12.4229,4.3472,12.8279,3.8181,25.8137,5.4512,38.7656,3.5479a157.79963,157.79963,0,0,0-.856,21.5113,166.2908,166.2908,0,0,0,3.1085,27.8411,173.93431,173.93431,0,0,0,5.3833,20.5203c1.622,4.9556,5.9695,12.2762,10.373,20.0924,2.8269,4.9893,5.6538,10.1701,7.8274,15.0581C1911.8779,923.3419,1913.5785,929.2886,1912.4635,933.5457Z"/><path fill="#fb9a77" d="M1776.1184,845.2385a519.94062,519.94062,0,0,0,91.4456,54.3348c13.7467,6.4068,27.621,12.1919,41.4506,17.287-2.1706-4.8855-5.0034-10.0686-7.8221-15.058-4.4024-7.8126-8.7485-15.1359-10.3786-20.0914a168.98978,168.98978,0,0,1-8.488-48.3562c-3.7293-1.6539-7.4329-3.3148-11.1004-5.0239-14.1305-6.5878-27.9521-14.0384-42.1706-20.4049a198.93463,198.93463,0,0,0-27.8778-10.3284,116.698,116.698,0,0,0-25.6603-4.1994c1.8442,7.8266,2.0048,16.3625,1.8303,24.4518q-.07575,3.32865-.186,6.6718Q1776.8236,834.89045,1776.1184,845.2385Z" opacity=".7"/><path fill="#fcc4a7" d="M1981.9203,793.7118a36.75736,36.75736,0,0,1-7.0714.7203c-24.102.9237-2.7252,45.0784-14.7575,60.7791-12.9553,16.9052-43.9689,10.5177-61.807,8.1933-19.8782-2.5904-39.4301-9.1227-57.8667-16.8826-4.1896-1.7681-8.6611-3.7278-13.3237-5.8903-16.9276-7.9176-36.1303-18.3917-52.1118-30.5891-10.4179-7.9401-19.4617-16.601-25.6561-25.7574q-1.50345-2.2131-2.9059-4.6177c-13.6951-23.1784-21.2748-57.7093-27.7282-82.5883-5.0569-19.4167,13.9767-20.7456,27.4692-35.6008,17.2994-19.0561,39.205-21.6018,59.3649-34.3846,22.2776-14.112,46.323-23.0319,73.0377-22.8179,9.4269.0676,19.0001,1.2615,27.5933,5.1132a57.45309,57.45309,0,0,1,16.3081,11.3976A104.61636,104.61636,0,0,1,1934.5389,635c2.6578,3.6829,5.4735,7.6474,8.2553,11.7919,8.5145,12.6929,16.7137,27.1429,19.2813,40.9057,2.0837,11.0934,2.8272,22.6826,7.0391,33.0103a203.29117,203.29117,0,0,0,20.1263,36.716C1998.9604,771.8287,2002.1816,789.2068,1981.9203,793.7118Z"/><path fill="#fb9a77" d="M1942.7942,646.7919a43.88039,43.88039,0,0,0-34.2606-1.7908c-11.9948,4.5501-21.6466,15.1255-24.6088,27.6045-1.3627,5.7327-1.374,11.6794-1.374,17.5584.0113,13.988-.1801,28.2463.5293,42.0318-4.3023-2.2637-7.5007-6.1606-11.4314-9.0889-17.0854-12.7492-26.4221,20.5767-26.9512,33.4047-.2705,6.7462,1.25,13.4026,2.0045,20.115a88.524,88.524,0,0,1-14.0105,58.1259,21.8894,21.8894,0,0,1-5.5975,5.8791c-16.9276-7.9176-36.1303-18.3917-52.1118-30.5891-10.4179-7.9401-19.4617-16.601-25.6561-25.7574q-1.50345-2.2131-2.9059-4.6177c-.1462-.4505-.2815-.9236-.4053-1.374a9.38474,9.38474,0,0,1-.2815-4.888,10.17032,10.17032,0,0,1,3.3111-4.4938c7.0278-6.3632,18.8422-8.5931,24.9129-14.9791,4.6738-4.9217,6.014-15.2044,8.6496-21.3651,12.7492-29.8796,31.9407-57.9345,59.2073-75.6054,17.772-11.5103,38.5291-19.7884,57.225-29.8345,7.1741-3.8517,15.5309-6.8702,23.4259-6.3409A104.61636,104.61636,0,0,1,1934.5389,635C1937.1967,638.6829,1940.0124,642.6474,1942.7942,646.7919Z" opacity=".7"/><path fill="#ed4343" d="M1936.5089,971.613c-35.4545,12.6704-61.1782,19.9348-99.0428,16.1845-20.633-2.0386-40.6802-5.8565-58.34-14.0219a102.17747,102.17747,0,0,1-18.4931-10.9698c-1.2389-.9235-2.4551-1.8922-3.649-2.8832a92.84774,92.84774,0,0,1-16.0041-17.1866,17.01188,17.01188,0,0,1-3.1084-8.3007c-.8109-7.3093,2.275-15.4634,5.4624-22.3672,6.3294-13.7516,13.8415-28.6407,27.7959-34.0692.4955.7657,1.0248,1.5091,1.5654,2.2187,9.9111,13.132,26.726,19.0111,42.3247,24.0118,32.8866,10.5416,64.7935,19.2138,97.4436,29.3163q6.673,2.04435,13.3911,4.2009,4.8822,15.5256,9.7758,31.0733v.0113C1935.9235,969.7548,1936.2161,970.6896,1936.5089,971.613Z"/><path fill="#fcc4a7" d="M1850.0521,759.6948c-2.9731-13.271-15.885-19.5183-19.7745-31.4655-3.5969-11.0487,3.4235-24.4579,15.0783-26.7068,13.1184-2.5313,24.6129,10.3706,27.6989,22.129Z"/><path fill="#fb9a77" d="M1840.4659,723.0827a10.34,10.34,0,0,0,1.6144,3.9085c4.9981,7.6019,11.9964,15.8139,20.1403,20.3456.5694-6.8463,2.03-24.9942-2.6229-30.618C1854.2596,710.2669,1838.7385,712.9586,1840.4659,723.0827Z" opacity=".7"/><path fill="#243d42" d="M1903.9415,724.3547a56.15243,56.15243,0,0,1,21.5042-14.6853,46.51173,46.51173,0,0,1,19.8014-2.7968c2.5855.1994,8.2076-.11,7.9344,4.0021-.2419,3.6346-5.0932,3.8069-7.7496,3.8371-4.411.05-8.9589.0966-13.3781.4544A59.52393,59.52393,0,0,0,1903.9415,724.3547Z"/><ellipse cx="1945.604" cy="734.509" fill="#243d42" rx="5.999" ry="6.221" transform="rotate(-23.968 1945.604 734.508)"/><path fill="#243d42" d="M1952.9956,728.7914a.61684.61684,0,0,1-.4372.0248c-.1028-.0321-10.3467-3.0653-21.8759,6.7481a.63222.63222,0,0,1-.8993-.096.66112.66112,0,0,1,.0683-.9197c12.0803-10.2814,22.6048-7.1208,23.0496-6.9821a.67451.67451,0,0,1,.4424.8163A.6255.6255,0,0,1,1952.9956,728.7914Z"/><path fill="none" stroke="#fb9a77" stroke-miterlimit="10" d="M1975.2017,792.1748a9.84927,9.84927,0,0,1-11.424-14.004" opacity=".7"/><path fill="#243d42" d="M1963.3736,814.3795c-3.4371,1.0991-6.6438,2.4687-10.0018,3.7114a36.44511,36.44511,0,0,1-10.6652,2.5986,18.30244,18.30244,0,0,1-10.9182-2.6972,25.07012,25.07012,0,0,1-7.6609-7.7647,49.3592,49.3592,0,0,0,8.7605,5.6978,19.93886,19.93886,0,0,0,9.6575,1.7695,60.84163,60.84163,0,0,0,10.1523-1.8369A40.49231,40.49231,0,0,1,1963.3736,814.3795Z"/><path fill="#914613" d="M1835.2368,783.5755c-5.3159,12.5803-14.3146,22.8743-24.9915,31.3776-10.6205,8.4693-15.0018,13.6726-27.9537,4.5838a143.73275,143.73275,0,0,1-30.6567-29.0349,137.00691,137.00691,0,0,1-15.2044-24.2482c-11.0934-22.7167-10.3277-46.4357-17.6821-69.6928a5.25891,5.25891,0,0,1-.1353-.5744c-1.0248-5.0343,4.6964-12.1861,9.1791-14.63,4.6513-2.5454,10.0461-3.2773,15.3169-3.8404q7.12965-.77715,14.3147-1.2052c17.4685-1.0473,35.0943-.3605,51.9881,3.4802a127.67614,127.67614,0,0,1,18.493,5.6426l7.5684,10.5979a35.17518,35.17518,0,0,0-4.0994,5.0231,35.67906,35.67906,0,0,0-5.4512,13.0308,36.25408,36.25408,0,0,0-.6531,5.2708c-.4394,7.8163,1.3628,15.7563,3.8292,23.2461C1833.2997,755.3853,1840.8907,770.1957,1835.2368,783.5755Z"/><path fill="#512301" d="M1831.3739,701.0548a35.67906,35.67906,0,0,0-5.4512,13.0308,36.30874,36.30874,0,0,0-.6535,5.2712c-15.3492,13.337-32.8514,14.877-48.9545,24.453-7.6437,4.5454-31.4524,38.0376-24.6821,46.6892a137.00284,137.00284,0,0,1-15.2021-24.2452c-11.0934-22.7167-10.3277-46.4357-17.6821-69.6928a5.25891,5.25891,0,0,1-.1353-.5744,118.13755,118.13755,0,0,1,38.8107-19.6756,97.33643,97.33643,0,0,1,14.0556-2.9394,68.20011,68.20011,0,0,1,37.9325,6.4196C1819.1088,684.5665,1827.2065,691.7294,1831.3739,701.0548Z" opacity=".56"/><path fill="#bc641b" d="M1962.8303,592.6978c-2.6806,14.5512-11.0937,25.4758-22.7503,33.7877-14.2921,10.1926-28.821,10.2039-45.3543,14.1233a37.79221,37.79221,0,0,0-7.9514,2.7931c-30.3413,14.8665-9.2353,64.5119-1.9259,89.2669a8.24369,8.24369,0,0,1,.5068,3.9194,2.85123,2.85123,0,0,1-2.7255,2.4326,3.771,3.771,0,0,1-2.151-1.2049c-7.1631-6.7351-11.8823-16.4547-18.0767-24.5862-3.7503-4.9106-8.0414-9.2465-13.7516-11.9948-12.6478-6.0817-31.2761,1.1939-44.9262,8.5596-3.3449,1.8134-6.397,3.6265-8.9762,5.2486-7.1067,4.4712-13.7628,9.7645-20.9146,14.123a68.64766,68.64766,0,0,1-10.0912,5.1583c-14.8665,5.9692-24.9242,2.8156-32.5599-4.6176-7.1631-6.9716-12.1975-17.7161-17.0855-28.2464-4.6513-10.0126-13.8756-14.2473-17.7047-24.4848a81.53457,81.53457,0,0,1-5.0907-31.6479,2.8894,2.8894,0,0,1,.6533-2.0724,2.50614,2.50614,0,0,1,2.2187-.3827c5.0005.9909,7.8838,6.273,12.3663,8.6833a12.88979,12.88979,0,0,0,3.8855,1.3177,23.46638,23.46638,0,0,0,7.8838-.1012c35.5785-5.6651,46.6271-44.7912,61.9104-70.8078.0449-.0786.09-.1463.135-.2252a87.597,87.597,0,0,1,23.9668-26.1065,101.10485,101.10485,0,0,1,61.6399-19.214,88.41722,88.41722,0,0,1,14.0331,1.5206,48.85775,48.85775,0,0,1,14.4048,4.7302,26.73834,26.73834,0,0,1,3.0747,1.9597c5.0681,3.7279,11.3863,13.2109,11.0712,19.4839,8.7845-6.6673,20.6779-8.4579,31.49-6.273a31.56942,31.56942,0,0,1,13.8978,6.0929q.59145.49,1.1488,1.0138C1962.3235,571.7497,1964.6547,582.8431,1962.8303,592.6978Z"/><path fill="#a55316" d="M1784.6794 642.9963c.011 7.5123-1.0364 15.5085-5.8452 21.2638-3.6604 4.381-9.1003 6.9264-14.6303 8.3455-8.2666 2.14-33.3258 4.0997-40.6802-.3828-6.476-3.9531-9.7308-11.5441-13.0985-19.3492a23.46638 23.46638 0 007.8838-.1012c35.5785-5.6651 46.6271-44.7912 61.9104-70.8078C1778.3046 602.0007 1784.6455 622.5774 1784.6794 642.9963zM1773.8334 729.1661a68.64766 68.64766 0 01-10.0912 5.1583c-14.8665 5.9692-24.9242 2.8156-32.5599-4.6176 11.9719 1.9034 25.0366 1.9147 31.0171 1.2614A113.03413 113.03413 0 001773.8334 729.1661zM1884.8484 732.6688a8.24369 8.24369 0 01.5068 3.9194 2.85123 2.85123 0 01-2.7255 2.4326 3.771 3.771 0 01-2.151-1.2049c-7.1631-6.7351-11.8823-16.4547-18.0767-24.5862-3.7503-4.9106-8.0414-9.2465-13.7516-11.9948-12.6478-6.0817-31.2761 1.1939-44.9262 8.5596 4.7303-6.397 9.0214-13.0646 15.9703-17.7385-1.0474.1914-2.1736.4504-3.221.7435 18.2228-11.9158 34.9139 9.3703 42.1669-22.1649 3.1649-13.7402 13.6278-21.6353 26.94-26.7936.3943-.1576.7886-.3041 1.1939-.4391C1856.433 658.2684 1877.539 707.9138 1884.8484 732.6688zM1955.0815 564.947c-.6305-.1127-1.2725-.1916-1.9033-.248-20.7004-1.8582-44.3743 9.99-54.1163 28.483 8.2778-15.7224 5.158-36.6593-7.3548-49.2849.9349-.4053 1.836-.8109 2.6919-1.2274a26.73834 26.73834 0 013.0747 1.9597c5.0681 3.7279 11.3863 13.2109 11.0712 19.4839 8.7845-6.6673 20.6779-8.4579 31.49-6.273a31.56942 31.56942 0 0113.8978 6.0929Q1954.52415 564.42325 1955.0815 564.947z"/><path fill="#d87830" d="M1876.6492,549.6862a12.03614,12.03614,0,0,1-4.246,7.5459c-5.2031,4.7189-12.659,6.2169-19.6756,5.8452s-13.8304-2.4101-20.6779-3.9532a146.49542,146.49542,0,0,0-27.7285-3.4912,101.10485,101.10485,0,0,1,61.6399-19.214c.7545.3379,1.509.6869,2.2412,1.0812C1872.8314,539.9552,1877.1222,544.4715,1876.6492,549.6862Z"/><path fill="#a12c34" d="M1936.43,968.6962c-.27.045-.529.0899-.7996.135-37.5041,6.1606-70.7624,14.5513-109.5167,11.364a377.03348,377.03348,0,0,1-46.9876-6.4196,102.17747,102.17747,0,0,1-18.4931-10.9698c-1.5766-.1577-3.0182-.3153-4.2911-.4844.214-.7996.4394-1.5992.6421-2.3988a92.84774,92.84774,0,0,1-16.0041-17.1866,17.01188,17.01188,0,0,1-3.1084-8.3007,67.99,67.99,0,0,0,21.6691,15.689,52.8882,52.8882,0,0,0,14.6075,4.2234q30.29055,4.0713,60.6151,7.9288,17.3331,2.2299,34.6772,4.4149c21.9735,2.7706,44.3182,5.5411,66.19,2.1285C1935.901,968.7861,1936.16,968.7412,1936.43,968.6962Z"/><path fill="none" d="M1716.8114,1313.2369a187.38138,187.38138,0,0,1,65.8795,95.8622c20.3235,68.7884,39.2602,128.2642,6.8768,198.3781-13.5961,29.437-33.5653,55.4174-53.9546,80.6299"/><path fill="#a12c34" d="M1835.7313,1483.1898c-20.5429,38.4054-59.9618,60.5137-82.5884,98.2883a237.41115,237.41115,0,0,0-15.7112,31.2762,152.71657,152.71657,0,0,1-18.8196-13.5264s57.957-111.0601,37.7295-187.2399c-9.3254-35.1278-29.8232-87.6903-48.1699-138.1914,19.135,31.9517,46.458,58.644,73.9498,84.0523,18.0539,16.6686,36.6934,33.4498,48.733,54.8711S1847.3205,1461.5207,1835.7313,1483.1898Z"/><path fill="#bd313a" d="M2097.8509,1393.6941h-46.447s8.5145,8.8749,20.2277,27.0301c-2.7367-1.8582-5.4399-3.7504-8.1315-5.6313l-39.9933-15.4183c-32.9881-34.0242-59.8043-73.5333-84.3116-114.0897-18.4705-30.5666-27.4019-56.0538-30.3412-91.6434a37.72909,37.72909,0,0,1,6.8587-24.8001,1179.58722,1179.58722,0,0,0,92.0152,95.7316c18.0988,16.8264,37.2789,33.4161,60.4122,42.1107,21.2075,7.974,46.5933,8.109,65.4356-3.9419,1.0247,2.9621,1.9258,5.6313,2.669,7.974C2152.6994,1362.5307,2101.8714,1393.6941,2097.8509,1393.6941Z"/><path fill="#a12c34" d="M2106.6295,1448.4223c-4.5952-2.6692-9.1566-5.3609-13.4813-8.199-24.8565-16.2745-35.8713-37.0878-52.0216-60.2997-14.6413-21.0273-34.7338-39.0361-50.569-59.5002-26.6471-34.4521-49.6116-71.9675-66.4604-112.13,4.5614,5.8566,9.8773,11.3753,14.7766,16.5224,14.1569,25.5546,30.2849,50.5462,44.8699,73.4092,18.741,29.3615,53.3733,54.5106,80.9553,75.2339l2.3089,2.1623h-5.3838S2084.3296,1399.3064,2106.6295,1448.4223Z"/><rect width="81.694" height="616.687" x="3164.197" y="1524.216" fill="#e1e1e1"/><rect width="81.694" height="357.164" x="3038.311" y="1783.738" fill="#fff"/><rect width="81.694" height="412.896" x="2912.426" y="1728.007" fill="#e1e1e1"/><rect width="81.694" height="166.472" x="2786.539" y="1974.43" fill="#fff"/><rect width="81.695" height="751.392" x="3415.969" y="1389.51" fill="#e1e1e1"/><rect width="81.694" height="682.749" x="3290.083" y="1458.153" fill="#fff"/><rect width="81.694" height="825.791" x="3667.741" y="1315.111" fill="#e1e1e1"/><rect width="81.695" height="988.874" x="3541.854" y="1152.028" fill="#fff"/><path fill="#fff" d="M1097.2526,731.7711h3.4629a1.54746,1.54746,0,0,0,1.0607-.4393,1.50006,1.50006,0,0,0-1.0607-2.5607h-3.4629a1.54741,1.54741,0,0,0-1.0606.4393,1.5,1.5,0,0,0,1.0606,2.5607Z"/><path fill="#243d42" d="M2680.2861,1599.0476c53.7741,176.1102,145.0148,344.3296,155.4195,530.3179.1753,13.9111.2332,27.8223.2916,41.7334a.7186.7186,0,0,0,.643.7598v3.3317c3.0492-122.58,10.3531-122.6371,7.2484,0a654.784,654.784,0,0,0-5.9035-99.9497q-1.57815-125.5509-12.4499-250.751c-4.209-48.689-8.3583-97.7286-16.4244-145.95-7.1315-42.4347-19.1132-84.6357-42.5523-121.1086a188.88936,188.88936,0,0,0-38.3433-44.0129c-10.462-8.6507-25.6596-19.7562-39.9208-13.0344-12.392,5.845-15.9575,21.7434-17.3597,34.0764C2668.4213,1556.3205,2673.9741,1578.2393,2680.2861,1599.0476Z"/><path fill="#385a64" d="M2703.3418,1605.6904c8.9399,15.7149,16.3011,32.2195,25.7268,47.6871,9.1819,15.0697,20.2383,28.0713,31.5198,41.3693q-19.93215-68.0061-44.525-134.5551c-.4723-1.2795,1.5361-1.7944,2.0259-.5588a1726.01661,1726.01661,0,0,1,71.4372,224.0516c-1.1679-18.7356-1.781-37.5378-3.2867-56.236-2.0668-25.6702-5.354-51.2082-7.6114-76.8485a.3897.3897,0,0,1,.7622-.1029c9.1083,48.4435,15.0427,100.7768,14.1935,150.2279,1.7108,7.2923,3.4503,14.5781,5.0658,21.8931q10.13265,45.8682,18.3072,92.5827c.4132-19.7246.5629-39.3276-.9241-59.1299-.0333-.4425.6418-.4326.685,0,2.3211,23.3134,3.787,47.0856,2.1861,70.5218,9.0223,54.1944,15.4816,108.9054,17.8033,163.4423.1064,2.504-3.5935,2.4105-3.8361,0-6.4232-63.7387-13.8644-126.9899-24.511-189.8927-19.907-32.3925-33.7772-68.2458-43.4712-104.9122a.5712.5712,0,0,1,1.1007-.3033c10.5274,34.1956,24.9482,66.442,41.1769,98.1032-4.3095-24.8635-9.0931-49.6773-14.6008-74.4379q-13.5117-60.7476-31.0037-120.4616c-27.7755-21.7447-46.2312-60.3954-59.0551-92.0882C2702.3107,1605.5566,2703.0916,1605.2503,2703.3418,1605.6904Z"/><path fill="#385a64" d="M2763.1655 1598.1276c5.6515 25.3626 11.2493 53.5245 11.4813 79.6008.0105 1.2041-1.9119 1.5303-2.1527.2911-5.0524-25.9986-6.9696-53.4783-10.0914-79.7885C2762.3512 1597.7962 2763.0707 1597.7044 2763.1655 1598.1276zM2829.5245 1830.4054c-4.0138 76.8853-6.9024 238.5671-6.187 224.7892 32.5924-80.9487 60.9915-163.1237 83.9179-247.493 20.813-76.6637 45.5327-159.854 33.9503-239.9821-3.8887-26.8678-18.0343-60.4772-50.1841-60.7022-31.1545-.2151-43.2812 35.4494-46.2552 60.7308-5.0629 42.8305-5.5088 86.6827-7.9515 129.7534Q2832.9362 1763.9365 2829.5245 1830.4054z"/><path fill="#243d42" d="M2850.7933 1880.5568a1.98716 1.98716 0 01-.5798-1.4385c-.1602-59.5139-.3665-119.3925 1.8832-178.8661a.29713.29713 0 01.5939 0c1.9551 51.8569 2.0294 104.0102 1.909 155.973q2.21025-14.5629 4.2937-29.1538c12.8186-90.8794 22.3654-182.2013 29.2467-273.7178.0561-.7522 1.2309-.7926 1.1865-.0245-4.5813 79.346-11.9758 158.4875-21.713 237.3595 16.6115-45.6081 30.9365-91.7124 41.5591-139.1832.2637-1.1807 2.0423-.6769 1.805.4974-10.5029 51.9265-24.6139 103.4468-43.9463 152.8208a2.18988 2.18988 0 01-1.3151 1.2929c-.695 5.4464-1.2912 10.9038-2.0101 16.3473-5.402 40.9151-11.2458 81.9441-17.8876 122.851a685.52192 685.52192 0 0025.3254-73.2607.34269.34269 0 01.6604.1817c-5.7187 30.8576-15.7248 61.2517-28.1887 90.0044a1.96048 1.96048 0 01-.7196.8692c-7.4202 43.9638-15.8709 87.7401-25.9617 131.0054-.598 2.5648-4.4077 1.5554-3.9407-.9989C2825.9602 2022.2539 2839.454 1951.6403 2850.7933 1880.5568zM2860.5001 1971.9593c-16.7752 77.2711-26.6533 28.3004-29.6342 107.3249-.0585 1.0521 1.5781 1.0521 1.6366 0 1.169-15.4308 15.8207 13.5693 98.956-131.1141 16.8752-29.3682 35.1286-57.924 49.9164-88.435 13.3267-27.4131 26.6533-57.2811 30.1603-87.7921 2.2211-18.9963-.5261-57.2226-25.0751-61.9571-25.0751-4.8514-49.0396 30.0434-59.1515 48.3382-16.6583 29.985-26.3026 64.1198-36.2975 96.735Q2873.3006 1912.837 2860.5001 1971.9593z"/><path fill="#385a64" d="M2868.3335,2024.4657c7.7085-59.4654,18.6942-120.9059,36.2906-178.2028a.457.457,0,0,1,.8762.2578c-10.6012,53.7765-22.2123,107.0929-31.9372,161.002q4.6635-14.568,9.6116-29.045c26.9414-78.7715,57.1531-158.1643,94.4904-232.6508a.2065.2065,0,0,1,.3729.1649c-24.9325,65.6073-53.9629,129.4114-78.4786,195.1526,25.6292-36.7055,48.6504-74.8377,72.2642-112.8537a.45692.45692,0,0,1,.7803.4746c-21.2349,41.4078-47.6386,80.5314-74.8226,118.2206a.88609.88609,0,0,1-.5693.3502q-5.3736,14.6136-10.4024,29.3752-12.8715,37.9143-23.6968,76.4616c7.7195-15.6343,15.7856-31.0932,23.3175-46.8309.1216-.2542.5565-.0643.4559.2017-7.0794,18.673-15.4331,37.5045-25.9886,54.4802-14.4799,52.6916-25.7841-21.0871-32.4907,33.2475-.2531,2.0487-3.4947,2.0171-3.2417-.0561C2833.3261,2027.2659,2848.5815,2088.8555,2868.3335,2024.4657Z"/><path fill="#385a64" d="M2613.7535,1750.2306c16.6723,37.9867,42.4219,71.0133,67.8173,103.476,26.0226,33.2312,51.4169,66.8681,74.4596,102.266,35.9504,55.3804,89.753,99.4698,90.6122,108.4273.3181,2.6753,4.2734,1.8996,4.1244-.7002-1.39-21.7587-28.4553-53.6946-46.5433-110.2702-25.0546-78.3676-55.1658-161.9454-105.2336-228.2074a288.01571,288.01571,0,0,0-39.0196-42.4132c-10.7348-9.4829-24.5028-21.5043-39.8389-15.6488C2586.1732,1680.0092,2603.6235,1727.1796,2613.7535,1750.2306Z"/><path fill="#243d42" d="M2649.7903,1711.9527c46.9711,61.5106,87.0954,127.1717,118.8169,196.5736-9.1206-37.5618-22.1357-73.2391-36.9861-108.9317-.1888-.4536.5699-.7674.7932-.3343,18.2189,35.3611,30.1959,74.1299,37.9382,113.0519,31.6548,70.0735,54.7268,143.948,67.5151,221.2547.1127.6827-.9101.9901-1.0568.2911a1132.54464,1132.54464,0,0,0-40.2394-143.9457,399.3895,399.3895,0,0,0-62.3271-86.0398.66226.66226,0,0,1,.9358-.9363,274.43,274.43,0,0,1,55.347,70.3172,1044.75165,1044.75165,0,0,0-52.3023-117.9582c-31.7489-22.8902-60.4807-53.4695-84.9929-83.6836-.7797-.9609.5149-2.3351,1.3888-1.3888,26.0336,28.2168,53.9744,53.7929,81.2678,80.587-25.3977-48.3231-54.5912-94.5267-87.9627-137.4186A1.182,1.182,0,1,1,2649.7903,1711.9527Z"/><path fill="#385a64" d="M2646.5627,1750.6929c7.8043,7.46,16.2527,15.2514,22.9791,23.6986a.15984.15984,0,0,1-.2262.2256c-8.3502-6.8433-16.0201-15.4039-23.366-23.3111A.43377.43377,0,0,1,2646.5627,1750.6929Z"/><path fill="#bc641b" d="M2912.7078,2146.5714c-5.9563,41.4982-11.1709,77.16-11.3672,84.0437-.0109.1198-.0109.2402-.0109.3819,0,15.0762-62.8364,16.4835-62.8364,16.4835s-62.8253-1.4073-62.8253-16.4835c0-.2184-.0109-.5018-.0219-.8618-.0109-.1199-.0218-.2398-.0218-.3708-1.451-23.0838-35.4-233.1712-28.2544-233.1712h182.1924C2934.0461,1996.5932,2922.3843,2079.2515,2912.7078,2146.5714Z"/><path fill="#a55316" d="M2728.4061,1972.1902h220.1277a2.9398,2.9398,0,0,1,2.9398,2.9398v69.1313a2.9397,2.9397,0,0,1-2.9397,2.9397H2728.4061a2.9398,2.9398,0,0,1-2.9398-2.9398V1975.13A2.9398,2.9398,0,0,1,2728.4061,1972.1902Z"/><path d="M2912.7078,2146.5714c-5.9563,41.4982-11.1709,77.16-11.3672,84.0437-.0109.1198-.0109.2402-.0109.3819,0,15.0762-62.8364,16.4835-62.8364,16.4835s-62.8253-1.4073-62.8253-16.4835c0-.2184-.0109-.5018-.0219-.8618,0-.1199-.0109-.2398-.0218-.3708-.2837-5.8365-2.1054-25.9746-4.691-53.9563,48.7636-26.4439,93.5127-59.7928,125.9782-104.3022C2902.5951,2063.7172,2907.8424,2117.3353,2912.7078,2146.5714Z" style="mix-blend-mode:multiply" fill="#c9c9c9"/><path fill="#385a64" d="M3017.6354,2651.7774c-3.5129,0-6.5149-1.4682-7.1166-3.4733L2970.3581,2483.61l-50.172-169.1769-14.0292-47.3071,35.7347-.607,6.1994,27.4622,43.5349,192.9894,31.0898,161.4575C3023.1134,2650.2028,3020.7299,2651.7774,3017.6354,2651.7774Z"/><path fill="#2e4c54" d="M2948.091,2293.9812c-23.1507,6.078-27.9049,20.4519-27.9049,20.4519l-14.0292-47.3071,35.7347-.607Z"/><path fill="#385a64" d="M2660.6729,2651.7774c3.513,0,6.515-1.4682,7.1166-3.4733l40.1607-164.6941,50.172-169.1769,14.0293-47.3071-35.7348-.607-6.1994,27.4622-43.5349,192.9894-31.0898,161.4575C2655.1949,2650.2028,2657.5785,2651.7774,2660.6729,2651.7774Z"/><path fill="#2e4c54" d="M2730.2173,2293.9812c23.1507,6.078,27.9049,20.4519,27.9049,20.4519l14.0293-47.3071-35.7348-.607Z"/><path fill="#2f6d77" d="M2972.818,2223.4391v28.0533a21.766,21.766,0,0,1-21.7659,21.766H2719.1089a26.155,26.155,0,0,1-26.155-26.155v-23.6643Z"/></g></svg>