<svg width="112" height="112" viewBox="0 0 112 112" fill="none" xmlns="http://www.w3.org/2000/svg">
<path d="M46.9576 13.2341C70.6916 5.08404 104.523 11.2456 89.4543 33.8109C75.5193 54.6794 77.3426 88.3374 53.6086 96.4875C29.8747 104.638 20.7272 94.6766 12.5787 70.9426C4.43009 47.2086 23.2237 21.3843 46.9576 13.2341Z" fill="#FAF9F8"/>
<path d="M102.429 102.049H74.0838C73.0649 102.049 72.2312 101.215 72.2312 100.196V44.9298H104.282V100.196C104.282 101.215 103.448 102.049 102.429 102.049Z" fill="white"/>
<path d="M98.2639 102.3H78.2491C74.7923 102.3 71.981 99.4887 71.981 96.032V44.6797H104.534V96.0305C104.534 99.4872 101.721 102.3 98.2639 102.3ZM72.4827 45.1814V96.032C72.4827 99.2124 75.0702 101.798 78.2491 101.798H98.2639C101.444 101.798 104.03 99.2108 104.03 96.032V45.1814H72.4827Z" fill="#E9EBE9"/>
<path d="M37.3871 44.5979C39.144 34.748 50.0839 31.5337 50.0839 31.5337L56 39.3719C41.4336 42.3176 40.7157 43.6037 41.5586 44.581L37.3871 44.5979Z" fill="#EFBDB1"/>
<path d="M100.837 50.0186H74.7719V58.1501H100.837V50.0186Z" fill="#E9EBE9"/>
<path d="M77.1819 45.0441H39.7677V40.8077C39.7677 39.8274 40.569 39.0261 41.5493 39.0261H75.4003C76.3807 39.0261 77.1819 39.8274 77.1819 40.8077V45.0441Z" fill="#231F20"/>
<path d="M77.4336 45.2942H39.5176V45.0441C39.5176 41.5874 42.329 38.776 45.7857 38.776H71.1639C74.6206 38.776 77.432 41.5874 77.432 45.0441V45.2942H77.4336ZM40.024 44.7925H76.9256C76.7944 41.7279 74.2594 39.2762 71.1639 39.2762H45.7857C42.6902 39.2762 40.1567 41.7294 40.024 44.7925Z" fill="#231F20"/>
<path d="M66.2142 102.3H45.7857C42.329 102.3 39.5176 99.4887 39.5176 96.032V44.6797H72.4824V96.0305C72.4824 99.4872 69.6694 102.3 66.2142 102.3ZM40.0193 45.1814V96.032C40.0193 99.2124 42.6069 101.798 45.7857 101.798H66.2127C69.3931 101.798 71.9791 99.2108 71.9791 96.032V45.1814H40.0193Z" fill="#231F20"/>
<path d="M70.3781 102.049H41.6203C40.6014 102.049 39.7677 101.215 39.7677 100.196V44.9298H72.2307V100.196C72.2307 101.215 71.397 102.049 70.3781 102.049Z" fill="white"/>
<path d="M66.2142 102.3H45.7857C42.329 102.3 39.5176 99.4887 39.5176 96.032V44.6797H72.4824V96.0305C72.4824 99.4872 69.6694 102.3 66.2142 102.3ZM40.0193 45.1814V96.032C40.0193 99.2124 42.6069 101.798 45.7857 101.798H66.2127C69.3931 101.798 71.9791 99.2108 71.9791 96.032V45.1814H40.0193Z" fill="#E9EBE9"/>
<path d="M37.9147 102.049H9.5692C8.55024 102.049 7.71655 101.215 7.71655 100.196V44.9298H39.7674V100.196C39.7674 101.215 38.9337 102.049 37.9147 102.049Z" fill="white"/>
<path d="M33.751 102.3H13.7363C10.2795 102.3 7.46814 99.4887 7.46814 96.032V44.6797H40.0192V96.0305C40.0192 99.4872 37.2062 102.3 33.751 102.3ZM7.96836 45.1814V96.032C7.96836 99.2124 10.5559 101.798 13.7347 101.798H33.7495C36.9299 101.798 39.5159 99.2108 39.5159 96.032V45.1814H7.96836Z" fill="#E9EBE9"/>
<path d="M69.277 50.0186H43.2118V58.1501H69.277V50.0186Z" fill="#83CC97"/>
<path d="M69.277 62.0437H43.2118V70.1753H69.277V62.0437Z" fill="#83CC97"/>
<path d="M36.7755 62.0437H10.7103V70.1753H36.7755V62.0437Z" fill="#088466"/>
<path d="M36.7755 84.6198H10.7103V92.7513H36.7755V84.6198Z" fill="#E9EBE9"/>
<path d="M13.304 62.0437H10.7103V70.1753H13.304V62.0437Z" fill="#E9EBE9"/>
<path d="M36.7755 50.0186H10.7103V58.1501H36.7755V50.0186Z" fill="#088466"/>
<path d="M13.304 50.0186H10.7103V58.1501H13.304V50.0186Z" fill="#E9EBE9"/>
<path d="M45.8055 50.0186H43.2118V58.1501H45.8055V50.0186Z" fill="#E9EBE9"/>
<path d="M77.2575 50.0184H74.6638V58.15H77.2575V50.0184Z" fill="#E9EBE9"/>
<path d="M69.277 74.0704H43.2118V82.202H69.277V74.0704Z" fill="#E9EBE9"/>
<path d="M87.804 56.6077H61.2231V65.2348H87.804V56.6077Z" fill="#E9EBE9"/>
<path d="M87.8052 56.6077H63.8644V65.2348H87.8052V56.6077Z" fill="#088466"/>
<path d="M104.282 45.0441H72.2312V39.8397C72.2312 39.392 72.5971 39.0261 73.0448 39.0261H103.468C103.916 39.0261 104.282 39.392 104.282 39.8397V45.0441Z" fill="#231F20"/>
<path d="M104.534 45.2943H71.981V41.6678C71.981 40.0729 73.2778 38.7745 74.8742 38.7745H101.64C103.235 38.7745 104.534 40.0714 104.534 41.6678V45.2943ZM72.4827 44.7926H104.032V41.6678C104.032 40.3493 102.959 39.2763 101.64 39.2763H74.8742C73.5557 39.2763 72.4827 40.3493 72.4827 41.6678V44.7926Z" fill="#231F20"/>
<path d="M82.8304 34.4592C82.8304 34.4592 94.303 41.5873 88.2572 56.6092C88.2572 56.6092 88.4548 59.0902 86.4246 60.3114C84.3944 61.5326 82.0137 59.9455 81.7081 59.3959C81.4024 58.8463 84.822 58.1561 85.1277 56.6092C85.1277 56.6092 84.3743 57.1233 84.0424 57.1233C83.7105 57.1233 83.8587 56.2757 84.9641 55.6118C86.0695 54.948 88.6045 46.3857 75.6931 39.0276L82.8304 34.4592Z" fill="#EFBDB1"/>
<path d="M48.7266 31.3468C48.7266 31.3468 53.5944 34.1906 53.5944 39.8566C53.5944 39.8566 74.2128 38.2201 77.9367 41.3696C77.9367 41.3696 78.0802 36.2146 83.6644 34.6399C83.6644 34.6399 73.9272 21.1804 48.7266 31.3468Z" fill="#088466"/>
<path d="M70.8626 26.6412C73.5297 26.6412 75.6918 24.2302 75.6918 21.2561C75.6918 18.2821 73.5297 15.8711 70.8626 15.8711C68.1955 15.8711 66.0333 18.2821 66.0333 21.2561C66.0333 24.2302 68.1955 26.6412 70.8626 26.6412Z" fill="#EFBDB1"/>
<path d="M66.2889 20.0597C65.6976 20.0597 65.2174 20.5954 65.2174 21.2546C65.2174 21.9154 65.6976 22.4496 66.2889 22.4496" fill="#EFBDB1"/>
<path d="M69.8308 27.7883C69.996 27.1599 70.1611 26.5825 70.297 26.2212L66.2166 22.7244C65.826 23.9332 64.3392 26.5007 63.7201 27.5474C62.6023 27.5598 61.6112 27.8392 60.4934 27.9921C60.4934 27.9921 61.6359 32.8969 66.0328 32.6546C70.4313 32.4122 70.8219 29.5375 71.1106 27.9643C71.1106 27.9643 70.6537 27.8763 69.8308 27.7883Z" fill="#EFBDB1"/>
<path d="M64.9515 17.6774C64.9515 16.9517 65.2943 16.3064 65.8254 15.8911C65.9581 14.9231 66.6158 14.1234 67.5036 13.7899C67.4418 13.5845 67.4094 13.3684 67.4094 13.143C67.4094 11.8909 68.4237 10.8766 69.6758 10.8766C70.4508 10.8766 71.1332 11.2656 71.5423 11.8585C71.5748 11.8569 71.6056 11.8539 71.6381 11.8539C73.6281 11.8539 75.2415 13.4672 75.2415 15.4573C75.2415 15.7768 75.1952 16.0841 75.118 16.379C75.6135 16.6028 75.9609 17.0984 75.9609 17.6774C75.9609 18.4647 75.3233 19.1023 74.5359 19.1023C74.4989 19.1023 74.4633 19.0946 74.4263 19.0915C74.1654 19.3818 73.7902 19.5686 73.3687 19.5686C72.9071 19.5686 72.5011 19.3463 72.2402 19.0051C72.0441 19.0375 71.8434 19.0591 71.6381 19.0591C70.9464 19.0591 70.3026 18.8615 69.7545 18.5234C69.5832 18.6237 69.3994 18.7071 69.2065 18.7673C68.9625 19.2104 68.5766 19.564 68.1072 19.7631C67.9729 20.1228 67.6749 20.3977 67.3013 20.5011C67.3029 20.5181 67.3059 20.5335 67.3059 20.5505C67.3059 20.9936 66.9462 21.3533 66.5031 21.3533C66.06 21.3533 65.7003 20.9936 65.7003 20.5505C65.7003 20.322 65.7976 20.1167 65.9504 19.97C65.8532 19.811 65.793 19.6273 65.7791 19.4296C65.2742 19.0143 64.9515 18.3844 64.9515 17.6774Z" fill="#231F20"/>
<path d="M72.2307 45.0441H39.7677V39.7919C39.7677 39.3704 40.112 39.0261 40.5335 39.0261H71.2041C71.7707 39.0261 72.2307 39.4862 72.2307 40.0528V45.0441Z" fill="#231F20"/>
<path d="M72.4824 45.2942H39.5176V41.5117C39.5176 40.0034 40.745 38.776 42.2533 38.776H68.896C70.8737 38.776 72.4808 40.3847 72.4808 42.3609V45.2942H72.4824ZM40.0193 44.7925H71.9806V42.3609C71.9806 40.6595 70.5973 39.2762 68.896 39.2762H42.2533C41.0213 39.2762 40.0193 40.2782 40.0193 41.5102V44.7925Z" fill="#231F20"/>
<path d="M39.7677 45.044H7.71692V39.7748C7.71692 39.3626 8.05348 39.026 8.4657 39.026H39.019C39.4312 39.026 39.7677 39.3626 39.7677 39.7748V45.044Z" fill="#231F20"/>
<path d="M40.0192 45.2942H7.46667V41.4577C7.46667 39.9786 8.6709 38.7744 10.1499 38.7744H37.336C38.815 38.7744 40.0192 39.9786 40.0192 41.4577V45.2942ZM7.96843 44.7924H39.5175V41.4577C39.5175 40.255 38.5387 39.2762 37.336 39.2762H10.1499C8.94725 39.2762 7.96843 40.255 7.96843 41.4577V44.7924Z" fill="#231F20"/>
<path d="M51.564 55.0035C52.1387 55.0035 52.6046 54.5376 52.6046 53.9629C52.6046 53.3882 52.1387 52.9224 51.564 52.9224C50.9893 52.9224 50.5234 53.3882 50.5234 53.9629C50.5234 54.5376 50.9893 55.0035 51.564 55.0035Z" fill="white"/>
<path d="M56.2438 55.0035C56.8185 55.0035 57.2844 54.5376 57.2844 53.9629C57.2844 53.3882 56.8185 52.9224 56.2438 52.9224C55.6691 52.9224 55.2032 53.3882 55.2032 53.9629C55.2032 54.5376 55.6691 55.0035 56.2438 55.0035Z" fill="white"/>
<path d="M60.9231 55.0035C61.4978 55.0035 61.9637 54.5376 61.9637 53.9629C61.9637 53.3882 61.4978 52.9224 60.9231 52.9224C60.3484 52.9224 59.8826 53.3882 59.8826 53.9629C59.8826 54.5376 60.3484 55.0035 60.9231 55.0035Z" fill="white"/>
<path d="M45.8055 62.0437H43.2118V70.1753H45.8055V62.0437Z" fill="#E9EBE9"/>
<path d="M45.8055 74.0704H43.2118V82.202H45.8055V74.0704Z" fill="#E9EBE9"/>
<path d="M11.0035 42.9923C11.5321 42.9923 11.9607 42.5637 11.9607 42.0351C11.9607 41.5064 11.5321 41.0779 11.0035 41.0779C10.4748 41.0779 10.0463 41.5064 10.0463 42.0351C10.0463 42.5637 10.4748 42.9923 11.0035 42.9923Z" fill="white"/>
<path d="M42.096 42.9923C42.6246 42.9923 43.0532 42.5637 43.0532 42.0351C43.0532 41.5064 42.6246 41.0779 42.096 41.0779C41.5673 41.0779 41.1388 41.5064 41.1388 42.0351C41.1388 42.5637 41.5673 42.9923 42.096 42.9923Z" fill="white"/>
<path d="M13.6979 34.0826C15.7528 34.0826 17.4186 32.4167 17.4186 30.3618C17.4186 28.3069 15.7528 26.6411 13.6979 26.6411C11.643 26.6411 9.97717 28.3069 9.97717 30.3618C9.97717 32.4167 11.643 34.0826 13.6979 34.0826Z" fill="#FAF9F8"/>
<path d="M20.5034 26.2891C21.5309 26.2891 22.3638 25.4562 22.3638 24.4287C22.3638 23.4013 21.5309 22.5684 20.5034 22.5684C19.476 22.5684 18.6431 23.4013 18.6431 24.4287C18.6431 25.4562 19.476 26.2891 20.5034 26.2891Z" fill="#FAF9F8"/>
<path d="M97.1333 23.2138C98.1608 23.2138 98.9937 22.3809 98.9937 21.3534C98.9937 20.326 98.1608 19.493 97.1333 19.493C96.1059 19.493 95.2729 20.326 95.2729 21.3534C95.2729 22.3809 96.1059 23.2138 97.1333 23.2138Z" fill="#FAF9F8"/>
</svg>
