<svg width="112" height="112" viewBox="0 0 112 112" fill="none" xmlns="http://www.w3.org/2000/svg">
<path d="M86.6253 57.6231C86.6253 82.1765 70.173 111.526 54.0785 90.4117C39.1951 70.8847 7.46667 61.8774 7.46667 37.324C7.46667 12.7706 19.5901 7.47095 44.1435 7.47095C68.6969 7.47095 86.6253 33.0697 86.6253 57.6231Z" fill="#FAF9F8"/>
<path d="M30.369 95.4366L29.1149 103.556H36.0132L37.423 91.6743L30.369 95.4366Z" fill="#EFBDB1"/>
<path d="M60.7935 95.5209L63.1691 103.385L69.3899 100.405L65.5299 89.0798L60.7935 95.5209Z" fill="#EFBDB1"/>
<path d="M51.4842 20.7512C53.7768 20.5885 55.4883 18.3843 55.3068 15.8279C55.1254 13.2715 53.1198 11.3311 50.8272 11.4938C48.5345 11.6565 46.8231 13.8608 47.0046 16.4172C47.186 18.9735 49.1916 20.914 51.4842 20.7512Z" fill="#EFBDB1"/>
<path d="M47.1519 15.3733C46.6433 15.4097 46.2639 15.8985 46.3036 16.4667C46.3434 17.0333 46.789 17.464 47.2976 17.4292" fill="#EFBDB1"/>
<path d="M50.6673 21.7979C50.77 21.2478 50.8777 20.7426 50.9722 20.4228L47.2513 17.6661C46.9895 18.7297 45.8696 21.0258 45.4008 21.9635C44.4399 22.043 43.6066 22.3429 42.6541 22.5417C42.6541 22.5417 43.9347 26.6867 47.6986 26.2095C51.4625 25.7324 51.6249 23.2375 51.7773 21.8691C51.7773 21.8707 51.3797 21.8244 50.6673 21.7979Z" fill="#EFBDB1"/>
<path d="M45.857 13.4068C45.8123 12.7823 46.0674 12.2074 46.4981 11.8197C46.5528 10.9798 47.0697 10.2525 47.8118 9.91126C47.7472 9.73897 47.7042 9.55508 47.6909 9.36125C47.6147 8.28607 48.4248 7.35172 49.5016 7.27551C50.1676 7.22747 50.7789 7.5207 51.1666 8.0061C51.1947 8.00279 51.2213 7.99781 51.2494 7.99616C52.9591 7.87522 54.4451 9.16245 54.5661 10.8721C54.5859 11.1471 54.5644 11.4139 54.5164 11.6723C54.9554 11.8346 55.2834 12.2389 55.3198 12.7359C55.3679 13.4118 54.8576 13.9999 54.1817 14.0479C54.1502 14.0496 54.1188 14.0446 54.0873 14.0446C53.8802 14.3097 53.5704 14.4936 53.2076 14.5184C52.8117 14.5466 52.4488 14.3793 52.2037 14.1043C52.0363 14.144 51.8657 14.1755 51.6901 14.1871C51.0953 14.2285 50.5304 14.0976 50.0384 13.8409C49.8976 13.937 49.7452 14.0198 49.5812 14.0827C49.3989 14.4787 49.0875 14.805 48.6982 15.0055C48.6054 15.3219 48.3652 15.577 48.0504 15.6897C48.0521 15.7046 48.057 15.7179 48.057 15.7311C48.0835 16.1121 47.7969 16.4418 47.4159 16.47C47.0349 16.4965 46.7052 16.2099 46.677 15.8289C46.6638 15.6317 46.7334 15.4495 46.8576 15.3153C46.7632 15.1844 46.7019 15.0303 46.677 14.8614C46.2165 14.5367 45.9001 14.0148 45.857 13.4068Z" fill="#231F20"/>
<path d="M35.0269 38.3065V53.8178L57.6785 49.3581V25.8368L52.6323 22.646L41.9501 22.6046L33.8043 27.2532L36.7581 31.4495L35.0269 38.3065Z" fill="#EFBDB1"/>
<path d="M33.8043 47.2955C35.4742 44.8503 39.5281 36.7177 40.9512 33.8501C42.351 31.0304 43.0286 27.8546 43.9762 24.9786C43.9945 25.0051 44.2545 25.3895 44.5643 25.8484C44.9387 25.6943 45.2999 25.5469 45.9394 25.2835C45.9394 26.125 46.0421 26.8275 45.9228 27.4901C45.169 31.6699 44.4467 35.8563 43.5422 40.0046C43.1595 41.759 43.2539 43.2185 44.4683 44.5985C45.0365 45.2429 45.4308 46.0414 46.0752 47.0338C47.1073 45.677 47.9854 44.5968 48.7656 43.4504C48.9976 43.1091 49.0506 42.574 49.0224 42.1367C48.711 37.3291 48.3531 32.5247 48.045 27.7154C48.0019 27.0279 48.161 26.3288 48.2421 25.4806C48.8568 25.7009 49.2212 25.8302 49.647 25.9826C50.0297 25.4806 50.4124 24.977 51.0734 24.1089C51.1131 32.591 51.2042 40.6291 53.4573 48.7468C50.9988 48.7468 48.8418 48.7468 46.6865 48.7468C46.7445 48.9307 46.8025 49.1146 46.8588 49.2984C46.3419 49.6298 45.8549 50.1616 45.3016 50.2427C44.5478 50.3537 43.5588 50.9087 43.0303 49.6662C42.9276 49.4227 42.2699 49.267 41.8955 49.3117C39.6822 49.5734 37.4788 49.9064 35.2705 50.2113C34.7685 50.2808 37.4871 53.1535 36.7316 53.2463C36.8807 52.4494 37.608 57.3482 37.7588 56.7286C37.9675 55.8688 34.6293 47.3154 35.4113 47.7296C35.8669 47.9715 36.3175 48.2465 36.8045 48.3956C37.106 48.4883 37.4722 48.3724 37.8101 48.3492C37.7488 48.0278 37.6875 47.708 37.6561 47.544" fill="#E9EBE9"/>
<path d="M55.0925 26.7297C54.5574 26.9599 54.2857 27.0776 54.0124 27.1935C53.1923 27.5448 52.9156 28.0981 53.7307 28.6564C54.5607 29.2246 54.5491 29.8293 54.2377 30.6477C53.5651 32.417 52.9471 34.2078 51.9531 35.9507C51.9531 31.8504 51.9531 27.7518 51.9531 23.6516C52.0542 23.5903 52.1569 23.5307 52.258 23.4694C53.1641 24.5114 54.072 25.5551 55.0925 26.7297Z" fill="#231F20"/>
<path d="M40.123 34.3139C39.9142 32.6871 39.7304 31.3651 39.5813 30.0398C39.4885 29.218 39.2781 28.3135 40.6349 28.3052C40.7823 28.3036 41.0954 27.6823 41.0375 27.4106C40.9016 26.7794 40.2158 25.976 40.4179 25.6214C40.8917 24.7865 41.7565 24.1735 42.6411 23.5837C42.9857 27.4057 42.0928 30.8465 40.123 34.3139Z" fill="#231F20"/>
<path d="M49.461 25.6379C48.8116 24.8046 48.3742 24.243 47.7728 23.4727C48.4719 22.974 49.2638 22.371 50.1038 21.8442C50.2943 21.7249 50.7813 21.7696 50.9006 21.9204C51.0828 22.149 51.2154 22.6129 51.1011 22.8448C50.6786 23.6996 50.1452 24.4981 49.461 25.6379Z" fill="#E9EBE9"/>
<path d="M48.6993 42.367C47.9257 43.5018 47.152 44.6366 46.3701 45.7847C44.8658 44.6515 44.8476 44.292 46.153 43.3312C46.8058 42.8507 47.4784 42.3968 48.141 41.9313C48.3266 42.0771 48.5121 42.2228 48.6993 42.367Z" fill="#E9EBE9"/>
<path d="M44.7538 25.3663C44.3512 24.4021 43.9984 23.7212 43.7996 22.9972C43.7084 22.6659 43.9222 22.2501 43.9984 21.874C44.3645 21.9602 44.7886 21.9585 45.0835 22.1523C45.6285 22.5152 46.099 22.9923 46.7368 23.5406C46.0824 24.1436 45.5357 24.6473 44.7538 25.3663Z" fill="#E9EBE9"/>
<path d="M48.1365 35.6624C46.9901 36.7691 45.842 37.8757 44.6145 39.0619C44.52 37.1899 45.1794 36.4096 47.6942 35.2549C47.8416 35.3907 47.9891 35.5266 48.1365 35.6624Z" fill="#E9EBE9"/>
<path d="M48.1365 38.9525C46.9901 40.0591 45.842 41.1658 44.6145 42.3519C44.52 40.4799 45.1794 39.6996 47.6942 38.5449C47.8416 38.6808 47.9891 38.8166 48.1365 38.9525Z" fill="#E9EBE9"/>
<path d="M45.2985 34.9815C45.2074 32.9106 46.0108 31.9663 47.6493 31.4495C47.8514 33.2983 46.261 33.7042 45.2985 34.9815Z" fill="#E9EBE9"/>
<path d="M47.1973 27.9208C47.7308 29.0954 47.6645 30.106 46.0509 30.9028C46.2895 29.7465 46.4899 28.7839 46.6887 27.8214C46.8577 27.8545 47.0283 27.8877 47.1973 27.9208Z" fill="#E9EBE9"/>
<path d="M35.3824 47.3137L28.5487 98.2942H38.3363L47.4827 56.157L60.0584 97.1776L70.6213 96.8065L59.404 43.7618L42.521 47.4429L35.3824 47.3137Z" fill="#088466"/>
<path d="M70.6978 31.0735C70.6978 31.0735 82.929 28.9596 82.9621 14.0778C82.9621 14.0778 83.9859 12.0318 82.6771 10.2907C81.3684 8.54951 78.7939 9.0813 78.3433 9.44411C77.8944 9.80692 80.5682 11.5746 80.2949 12.9977C80.2949 12.9977 79.831 12.3002 79.5477 12.1859C79.2644 12.0716 79.0987 12.8452 79.8111 13.7912C80.5251 14.7388 79.7299 22.9061 66.1934 24.7202L70.6978 31.0735Z" fill="#EFBDB1"/>
<path d="M15.8594 38.2999C15.8594 38.2999 19.0302 45.503 33.8043 47.2955C33.8043 47.2955 35.7145 48.5546 37.5981 47.4612C39.4817 46.3678 39.2581 43.747 38.9516 43.2582C38.6451 42.7695 36.5743 45.2164 35.1926 44.7757C35.1926 44.7757 35.9398 44.398 36.0872 44.1297C36.2347 43.8613 35.4859 43.6061 34.462 44.2009C33.4382 44.7956 27.3533 41.9313 19.8685 33.7639L15.8594 38.2999Z" fill="#EFBDB1"/>
<path d="M56.3615 56.7319C54.627 51.0677 52.6804 45.9304 52.6075 40.538C52.5644 37.392 53.8699 34.2029 54.7363 31.0801C55.0395 29.9867 55.2697 29.0921 54.337 28.2721C55.9407 26.8772 55.949 26.8705 54.6054 25.078C54.0852 24.3855 53.5153 23.7312 52.6323 22.6444C55.3294 22.9525 57.599 23.2143 59.8686 23.4711C62.0803 23.7212 64.287 24.0078 66.5036 24.205C70.8888 24.5959 74.3114 23.1016 76.4021 19.0478C76.8494 18.1813 77.3994 17.3679 77.8351 16.6373C79.5382 17.9014 81.1932 19.1024 82.8068 20.3565C83.0172 20.5205 83.1298 20.9811 83.0834 21.2727C82.2104 26.7579 74.7985 34.5508 69.1294 35.5697C66.9509 35.9606 64.6233 35.52 62.3636 35.4554C61.4425 35.4289 60.4849 35.2168 59.6118 35.4073C58.3959 35.6707 57.8608 37.0391 58.2865 38.6246C59.3882 42.7248 60.4965 46.8267 61.7241 50.8888C62.0886 52.0916 61.8815 52.8453 60.8858 53.5246C59.4594 54.5004 58.0629 55.5242 56.3615 56.7319Z" fill="#231F20"/>
<path d="M56.2274 57.1295L56.128 56.8048C55.8464 55.8837 55.5581 54.9759 55.2748 54.0796C53.8103 49.4592 52.4254 45.0939 52.3641 40.543C52.3309 38.1094 53.0947 35.6426 53.8319 33.2587C54.0605 32.5215 54.2957 31.7594 54.5012 31.0156C54.8143 29.8824 54.9667 29.1535 54.1765 28.4577L53.9661 28.2721L54.1781 28.0882C55.6178 26.8358 55.6178 26.8358 54.41 25.2272C54.0721 24.7766 53.7093 24.3392 53.252 23.7842C53.0118 23.4943 52.7468 23.1729 52.4436 22.8002L52.0642 22.333L55.134 22.6842C56.8122 22.8764 58.3546 23.0536 59.8986 23.2276C60.5414 23.3005 61.1841 23.3767 61.8269 23.4529C63.366 23.6351 64.958 23.8223 66.5269 23.9615C71.0761 24.3674 74.2337 22.724 76.1869 18.9352C76.5016 18.3255 76.8578 17.7556 77.2024 17.2023C77.3515 16.9654 77.494 16.7335 77.6282 16.5115L77.7673 16.2795L79.2037 17.3415C80.5041 18.3007 81.7334 19.2085 82.961 20.1644C83.2542 20.393 83.3884 20.943 83.3287 21.3125C82.4143 27.0644 74.8731 34.7894 69.1759 35.8116C67.6451 36.0866 66.0315 35.9574 64.471 35.8331C63.7768 35.7785 63.0578 35.7205 62.3604 35.7006C62.0638 35.6923 61.764 35.6641 61.4641 35.6376C60.828 35.5797 60.2266 35.525 59.6666 35.6459C59.2558 35.7354 58.9228 35.9739 58.6992 36.3401C58.3595 36.8967 58.2966 37.7052 58.5252 38.56C59.7014 42.9369 60.7716 46.8798 61.9611 50.8176C62.3653 52.1562 62.0953 52.9978 61.0268 53.7267C60.0427 54.3977 59.0553 55.1051 58.01 55.8539C57.5295 56.1968 57.0325 56.5547 56.5041 56.9307L56.2274 57.1295ZM54.7 28.2821C55.5217 29.1634 55.2549 30.1292 54.9733 31.1464C54.7646 31.8969 54.5293 32.6623 54.299 33.4028C53.5734 35.7519 52.8213 38.1806 52.8528 40.5364C52.9141 45.0143 54.2875 49.3449 55.7403 53.9305C55.9922 54.7241 56.2456 55.5242 56.4958 56.336C56.9215 56.0328 57.3291 55.7412 57.7234 55.458C58.7704 54.7075 59.7611 53.9984 60.7501 53.3242C61.6298 52.7245 61.8302 52.085 61.4906 50.9634C60.2978 47.0189 59.2276 43.0711 58.0514 38.6909C57.788 37.7085 57.8708 36.7592 58.28 36.0883C58.5749 35.6062 59.0172 35.2881 59.5623 35.1705C60.1951 35.033 60.8627 35.0943 61.5072 35.1522C61.7971 35.1787 62.087 35.2052 62.3736 35.2135C63.0827 35.2334 63.8083 35.2914 64.5091 35.3477C66.0382 35.4703 67.6186 35.5962 69.0881 35.3328C74.5153 34.3587 81.9719 26.7182 82.8433 21.2396C82.8814 20.9977 82.7705 20.6432 82.6578 20.5554C81.4352 19.6028 80.2076 18.6983 78.9104 17.7407L77.9081 16.9985C77.8137 17.1509 77.7176 17.3067 77.6182 17.4657C77.2786 18.0091 76.9274 18.5724 76.6226 19.1638C74.5965 23.0934 71.1838 24.8743 66.4838 24.4535C64.9083 24.3127 63.3129 24.1255 61.7689 23.9433C61.1262 23.8671 60.485 23.7925 59.8422 23.7196C58.2982 23.5457 56.7559 23.3684 55.0777 23.1762L53.2057 22.9625C53.3564 23.1448 53.4972 23.3154 53.6298 23.4744C54.092 24.0327 54.4581 24.4751 54.8027 24.9356C56.1562 26.7381 56.1976 26.9634 54.7 28.2821Z" fill="#231F20"/>
<path d="M34.7471 34.844C33.9801 35.0577 33.5941 35.1091 33.2594 35.2665C30.6055 36.5173 28.1188 36.0832 25.7432 34.5409C24.9629 34.0339 24.2687 33.31 23.4205 33.0167C22.7562 32.7865 21.681 32.7898 21.2056 33.1874C20.3706 33.8848 20.8395 34.8772 21.575 35.4603C23.9225 37.3207 26.3313 39.1066 28.7185 40.9157C28.9588 41.0979 29.2205 41.2553 29.3978 41.3746C28.8411 43.2798 28.311 45.0988 27.7577 46.9907C25.4268 46.9542 23.4089 45.8973 21.4408 44.7857C18.9509 43.3808 16.5686 41.8136 15.0643 39.2557C13.1956 36.0799 13.5833 32.6821 16.1809 30.0149C20.2165 25.8732 25.3754 23.9614 30.8722 22.7968C34.497 22.0281 38.1383 22.5317 41.9503 22.6046C40.9795 24.3292 38.2642 25.0631 39.6376 27.0809C39.3593 28.2638 38.8689 29.1302 39.0329 29.8459C40.2158 34.9848 37.7871 38.656 34.3048 41.9196C33.0424 43.1025 32.1412 41.6811 31.1306 41.3183C30.1532 40.9671 30.7115 40.2448 30.9385 39.6318C31.5465 37.9933 31.9971 36.2439 34.0397 35.732C34.217 35.6889 34.3313 35.3824 34.7471 34.844Z" fill="#231F20"/>
<path d="M41.6686 105.545H28.5479V101.568H40.5205C41.1551 101.568 41.6686 102.081 41.6686 102.716V105.545Z" fill="#231F20"/>
<path d="M41.9135 105.791H28.3024V101.323H37.6907C40.0199 101.323 41.9135 103.218 41.9135 105.545V105.791ZM28.7927 105.3H41.4149C41.2889 103.355 39.6654 101.813 37.6907 101.813H28.7944V105.3H28.7927Z" fill="#231F20"/>
<path d="M74.4373 103.556H61.3165V99.578H73.2892C73.9237 99.578 74.4373 100.092 74.4373 100.726V103.556Z" fill="#231F20"/>
<path d="M74.6822 103.801H61.071V99.3329H70.4594C72.7886 99.3329 74.6822 101.228 74.6822 103.556V103.801ZM61.5614 103.311H74.1819C74.056 101.366 72.4341 99.8233 70.4577 99.8233H61.5614V103.311Z" fill="#231F20"/>
<path d="M101.901 94.4639H65.1796C63.8609 94.4639 62.7906 93.3937 62.7906 92.075V22.8646C62.7906 21.5459 63.8609 20.4757 65.1796 20.4757H101.903C103.222 20.4757 104.292 21.5459 104.292 22.8646V92.0767C104.29 93.3954 103.222 94.4639 101.901 94.4639Z" fill="white"/>
<path d="M97.2158 94.7092H69.8643C65.8287 94.7092 62.5452 91.4257 62.5452 87.39V27.5514C62.5452 23.5158 65.8287 20.2306 69.8643 20.2306H97.2141C101.25 20.2306 104.533 23.5141 104.533 27.5514V87.39C104.535 91.4257 101.251 94.7092 97.2158 94.7092ZM69.8643 20.721C66.0987 20.721 63.0355 23.7841 63.0355 27.5497V87.3884C63.0355 91.154 66.0987 94.2171 69.8643 94.2171H97.2141C100.98 94.2171 104.043 91.154 104.043 87.3884V27.5497C104.043 23.7841 100.98 20.721 97.2141 20.721H69.8643Z" fill="#088466"/>
<path d="M104.29 29.2197H62.7905V22.8647C62.7905 21.546 63.8607 20.4758 65.1794 20.4758H101.903C103.221 20.4758 104.292 21.546 104.292 22.8647V29.2197H104.29Z" fill="#088466"/>
<path d="M104.29 85.7201H62.7905V92.0751C62.7905 93.3938 63.8607 94.464 65.1794 94.464H101.903C103.221 94.464 104.292 93.3938 104.292 92.0751V85.7201H104.29Z" fill="#088466"/>
<path d="M88.9481 24.5726H81.1337V25.6379H88.9481V24.5726Z" fill="white"/>
<path d="M78.7419 26.0041C79.2378 26.0041 79.6398 25.6021 79.6398 25.1062C79.6398 24.6103 79.2378 24.2083 78.7419 24.2083C78.246 24.2083 77.844 24.6103 77.844 25.1062C77.844 25.6021 78.246 26.0041 78.7419 26.0041Z" fill="white"/>
<path d="M99.4895 34.2327H66.9327V42.1896H99.4895V34.2327Z" fill="#E9EBE9"/>
<path d="M99.4895 57.5933H66.9327V65.5502H99.4895V57.5933Z" fill="#E9EBE9"/>
<path d="M99.7339 54.116H66.6868V45.6687H99.7339V54.116ZM67.1771 53.6256H99.2435V46.1591H67.1771V53.6256Z" fill="#E9EBE9"/>
<path d="M76.3616 50.6238C76.9078 50.6238 77.3506 50.181 77.3506 49.6348C77.3506 49.0886 76.9078 48.6458 76.3616 48.6458C75.8154 48.6458 75.3726 49.0886 75.3726 49.6348C75.3726 50.181 75.8154 50.6238 76.3616 50.6238Z" fill="#E9EBE9"/>
<path d="M83.2105 50.6238C83.7567 50.6238 84.1995 50.181 84.1995 49.6348C84.1995 49.0886 83.7567 48.6458 83.2105 48.6458C82.6642 48.6458 82.2214 49.0886 82.2214 49.6348C82.2214 50.181 82.6642 50.6238 83.2105 50.6238Z" fill="#E9EBE9"/>
<path d="M90.0571 50.6238C90.6034 50.6238 91.0462 50.181 91.0462 49.6348C91.0462 49.0886 90.6034 48.6458 90.0571 48.6458C89.5109 48.6458 89.0681 49.0886 89.0681 49.6348C89.0681 50.181 89.5109 50.6238 90.0571 50.6238Z" fill="#E9EBE9"/>
<path d="M80.1659 35.8165H69.1309V36.3069H80.1659V35.8165Z" fill="white"/>
<path d="M90.3941 39.2739H69.1309V39.7643H90.3941V39.2739Z" fill="white"/>
<path d="M73.7877 59.5051H69.1309V59.9955H73.7877V59.5051Z" fill="white"/>
<path d="M76.7432 61.3274H69.1309V61.8178H76.7432V61.3274Z" fill="white"/>
<path d="M84.3556 63.1482H69.1309V63.6386H84.3556V63.1482Z" fill="white"/>
<path d="M83.5409 92.592C84.9216 92.592 86.0408 91.4727 86.0408 90.0921C86.0408 88.7114 84.9216 87.5922 83.5409 87.5922C82.1603 87.5922 81.041 88.7114 81.041 90.0921C81.041 91.4727 82.1603 92.592 83.5409 92.592Z" fill="white"/>
<path d="M71.4584 14.2766C73.4694 14.2766 75.0997 12.6463 75.0997 10.6352C75.0997 8.62418 73.4694 6.9939 71.4584 6.9939C69.4473 6.9939 67.817 8.62418 67.817 10.6352C67.817 12.6463 69.4473 14.2766 71.4584 14.2766Z" fill="#FAF9F8"/>
<path d="M61.3162 10.1747C62.3217 10.1747 63.1368 9.35953 63.1368 8.354C63.1368 7.34847 62.3217 6.53333 61.3162 6.53333C60.3106 6.53333 59.4955 7.34847 59.4955 8.354C59.4955 9.35953 60.3106 10.1747 61.3162 10.1747Z" fill="#FAF9F8"/>
</svg>
