<svg width="112" height="112" viewBox="0 0 112 112" fill="none" xmlns="http://www.w3.org/2000/svg">
<path d="M56.2359 18.9886C78.5645 11.3218 110.394 17.1176 96.218 38.348C83.1065 57.9816 84.822 89.6492 62.4934 97.316C40.1648 104.983 31.5585 95.6117 23.8901 73.2831C16.2217 50.9545 33.9056 26.6554 56.2359 18.9886Z" fill="#FAF9F8"/>
<path d="M16.4128 35.2585C20.8025 33.7515 27.0601 34.8914 24.2736 39.0647C21.6955 42.9253 22.0338 49.1508 17.6425 50.6579C13.2528 52.1649 11.5597 50.3228 10.0527 45.9331C8.5456 41.5433 12.0215 36.7656 16.4128 35.2585Z" fill="#FAF9F8"/>
<path d="M57.8539 49.7888H40.0353V50.2602H57.8539V49.7888Z" fill="#E9EBE9"/>
<path d="M57.8539 53.8787H40.0353V54.35H57.8539V53.8787Z" fill="#E9EBE9"/>
<path d="M57.8539 59.5094H40.0353V59.9808H57.8539V59.5094Z" fill="#E9EBE9"/>
<path d="M89.0258 45.7021H45.5133V46.1735H89.0258V45.7021Z" fill="#E9EBE9"/>
<path d="M93.8951 69.0088H36.6715C33.4201 69.0088 30.7731 66.3634 30.7731 63.1104V27.1556H99.7919V63.112C99.7919 66.3634 97.1466 69.0088 93.8951 69.0088ZM31.2445 27.627V63.1104C31.2445 66.1021 33.6782 68.5358 36.6699 68.5358H93.8935C96.8852 68.5358 99.319 66.1021 99.319 63.1104V27.627H31.2445Z" fill="#E9EBE9"/>
<path d="M78.7622 30.67H34.7687V31.1414H78.7622V30.67Z" fill="#E9EBE9"/>
<path d="M53.9341 34.5403H34.7687V35.0116H53.9341V34.5403Z" fill="#E9EBE9"/>
<path d="M78.7635 38.7072H42.1739V39.1785H78.7635V38.7072Z" fill="#E9EBE9"/>
<path d="M57.8539 42.4282H40.0353V42.8996H57.8539V42.4282Z" fill="#E9EBE9"/>
<path d="M99.5567 27.3914H31.0092V22.6826C31.0092 21.6244 31.875 20.7587 32.9331 20.7587H97.6327C98.6909 20.7587 99.5567 21.6244 99.5567 22.6826V27.3914Z" fill="#E9EBE9"/>
<path d="M99.7919 27.627H30.7731V26.4213C30.7731 23.1699 33.4185 20.5229 36.6715 20.5229H93.8951C97.1465 20.5229 99.7935 23.1683 99.7935 26.4213V27.627H99.7919ZM31.2445 27.1556H99.3206V26.4213C99.3206 23.4297 96.8868 20.9959 93.8951 20.9959H36.6715C33.6798 20.9959 31.2461 23.4297 31.2461 26.4213V27.1556H31.2445Z" fill="#E9EBE9"/>
<path d="M95.4897 25.4658L95.0472 24.903C94.8676 24.6882 94.7538 24.5487 94.6463 24.4012H94.6367C94.5389 24.5487 94.4411 24.6834 94.2616 24.9062L93.8447 25.4642H93.3301L94.3898 24.1783L93.3702 22.9214H93.8896L94.3481 23.5178C94.4764 23.6845 94.5742 23.8128 94.6672 23.9475H94.6832C94.781 23.7968 94.8692 23.6797 94.9975 23.5178L95.4704 22.9214H95.9851L94.9301 24.1591L96.0107 25.4642H95.4897V25.4658Z" fill="white"/>
<path d="M21.7822 28.0134H12.4368V28.4848H21.7822V28.0134Z" fill="#E9EBE9"/>
<path d="M21.7822 33.1101H12.4368V33.5815H21.7822V33.1101Z" fill="#E9EBE9"/>
<path d="M38.129 25.8699H15.3098V26.3412H38.129V25.8699Z" fill="#E9EBE9"/>
<path d="M31.009 38.3158H13.3651C10.1137 38.3158 7.46667 35.6704 7.46667 32.4174V16.1427H43.8864V27.2293H43.415V16.6141H7.93964V32.4174C7.93964 35.4091 10.3734 37.8428 13.3651 37.8428H31.009V38.3158Z" fill="#E9EBE9"/>
<path d="M19.7253 20.0146H9.6745V20.486H19.7253V20.0146Z" fill="#E9EBE9"/>
<path d="M21.7822 23.2084H12.4368V23.6797H21.7822V23.2084Z" fill="#E9EBE9"/>
<path d="M43.6508 16.3785H7.7041V14.0377C7.7041 13.4124 8.21554 12.901 8.84082 12.901H42.5141C43.1394 12.901 43.6508 13.4124 43.6508 14.0377V16.3785Z" fill="#E9EBE9"/>
<path d="M43.8861 16.6157H7.46802V16.38C7.46802 14.3327 9.13381 12.6653 11.1828 12.6653H40.1746C42.2219 12.6653 43.8893 14.3311 43.8893 16.38V16.6157H43.8861ZM7.94739 16.1428H43.4051C43.2833 14.4641 41.8804 13.1366 40.1713 13.1366H11.1812C9.4737 13.1366 8.06924 14.4657 7.94739 16.1428Z" fill="#E9EBE9"/>
<path d="M41.5187 15.3685L41.2863 15.0735C41.1917 14.9612 41.1324 14.8875 41.0762 14.8105H41.0714C41.0201 14.8875 40.9688 14.9596 40.8742 15.0751L40.6562 15.3685H40.3868L40.9432 14.6935L40.4093 14.0345H40.6818L40.9223 14.3472C40.9897 14.4338 41.041 14.5011 41.0891 14.5732H41.0971C41.1484 14.4947 41.1949 14.4322 41.2622 14.3472L41.5107 14.0345H41.7801L41.227 14.6839L41.7945 15.3685H41.5187Z" fill="white"/>
<path d="M28.5365 59.7451H28.0652V64.5308H28.5365V59.7451Z" fill="#E9EBE9"/>
<path d="M36.2049 70.5046H20.3967C20.2492 70.5046 20.1274 70.3827 20.1274 70.2352V65.5617C20.1274 65.4142 20.2492 65.2924 20.3967 65.2924H36.2049C36.3524 65.2924 36.4742 65.4142 36.4742 65.5617V70.2352C36.4742 70.3843 36.354 70.5046 36.2049 70.5046Z" fill="#83CC97"/>
<path d="M65.9561 55.6952C66.4659 57.05 66.9741 62.1852 66.9741 62.1852C66.9741 62.1852 71.9859 60.6525 73.8505 57.8564C73.8505 57.8564 71.1763 53.4346 70.6167 51.7031" fill="#EFA796"/>
<path d="M73.3104 56.9442C75.1414 56.3077 76.2765 55.6776 78.7599 56.0496C85.3365 57.0324 76.3935 73.1259 76.3935 73.1259L61.015 71.7231L62.2976 64.4908C62.2976 64.4908 64.8179 62.3119 66.8413 60.9524" fill="#EFA796"/>
<path d="M66.9741 62.1852C66.9741 62.1852 66.4643 57.0499 65.9561 55.6952L66.9741 62.1852Z" fill="#EFA796"/>
<path d="M73.8505 57.8549C73.8505 57.8549 71.1762 53.4331 70.6167 51.7015L73.8505 57.8549Z" fill="#EFA796"/>
<path d="M65.3098 56.1746C68.3558 56.1746 70.825 53.4211 70.825 50.0245C70.825 46.6279 68.3558 43.8744 65.3098 43.8744C62.2638 43.8744 59.7946 46.6279 59.7946 50.0245C59.7946 53.4211 62.2638 56.1746 65.3098 56.1746Z" fill="#EFA796"/>
<path d="M70.5312 48.6602C71.2078 48.6602 71.7561 49.271 71.7561 50.0245C71.7561 50.7781 71.2078 51.3889 70.5312 51.3889" fill="#EFA796"/>
<path d="M18.6508 49.7408L27.5825 40.809C27.8487 40.5428 28.28 40.5428 28.5477 40.809L37.9524 50.2137C38.2186 50.4799 38.2186 50.9111 37.9524 51.1789L29.0207 60.1106C28.7545 60.3768 28.3233 60.3768 28.0555 60.1106L18.6508 50.7059C18.3846 50.4382 18.3846 50.0069 18.6508 49.7408Z" fill="#088466"/>
<path d="M51.4598 81.4709C51.4598 81.4709 44.7902 76.4623 42.8471 66.8315C40.9055 57.2008 39.1259 51.9356 36.4693 54.5121C35.1867 55.7546 33.7053 57.9928 34.05 55.1518C34.3947 52.3108 38.3114 52.8896 36.426 50.621C34.5406 48.3524 31.1849 47.6662 32.4692 46.2152C33.1345 45.4633 35.5971 47.6421 36.1903 47.7992C36.7835 47.9563 38.7107 46.6753 41.712 49.2085C44.7133 51.7433 51.354 67.7727 58.0251 65.4896L51.4598 81.4709Z" fill="#EFA796"/>
<path d="M77.2022 55.6952C77.2022 55.6952 77.8579 62.8377 70.8789 65.5937C63.8983 68.3497 64.4498 62.3792 64.4498 62.3792C64.4498 62.3792 59.8581 65.9609 57.5622 65.2266L49.2028 82.9522C49.2028 82.9522 56.7333 87.544 63.8967 82.0336C63.8967 82.0336 70.1414 90.207 69.5915 100.954H89.5569C89.5569 100.954 87.7949 84.1146 86.3873 81.7386C86.3873 81.7386 92.8163 83.5006 98.8911 79.3609C104.966 75.2213 104.527 73.99 104.527 73.99C104.527 73.99 97.7816 56.7758 77.2022 55.6952Z" fill="#088466"/>
<path d="M102.914 76.2571C102.914 76.2571 108.801 100.952 96.1173 100.952C83.4339 100.952 82.185 94.1286 75.7398 93.5707C70.2727 93.0977 68.3953 95.3712 65.5864 94.8277C62.7775 94.2842 64.6212 98.6675 63.329 98.7492C62.0368 98.8294 57.3537 97.4971 59.292 93.9443C59.292 93.9443 59.696 92.45 62.3606 91.5618L63.127 91.3598C63.127 91.3598 61.4307 88.4531 63.0468 89.0591C64.6613 89.6652 63.733 91.7638 66.0754 90.3113C68.4178 88.8587 73.747 85.386 80.0446 85.0221C86.3422 84.6582 87.3859 85.2738 87.3859 85.2738L87.2641 81.9134C87.2641 81.9134 95.8592 83.778 102.914 76.2571Z" fill="#EFBDB1"/>
<path d="M21.8811 100.952L16.0676 73.4546H54.2076L61.0135 100.952H21.8811Z" fill="#231F20"/>
<path d="M21.4404 98.1319C25.88 98.1319 29.4791 95.3749 29.4791 91.9738C29.4791 88.5728 25.88 85.8157 21.4404 85.8157C17.0007 85.8157 13.4016 88.5728 13.4016 91.9738C13.4016 95.3749 17.0007 98.1319 21.4404 98.1319Z" fill="#83CC97"/>
<path d="M28.3012 65.9047C28.7988 65.9047 29.2022 65.5013 29.2022 65.0037C29.2022 64.5061 28.7988 64.1027 28.3012 64.1027C27.8036 64.1027 27.4001 64.5061 27.4001 65.0037C27.4001 65.5013 27.8036 65.9047 28.3012 65.9047Z" fill="#088466"/>
<path d="M28.3008 66.1389C27.674 66.1389 27.1641 65.6291 27.1641 65.0022C27.1641 64.3753 27.674 63.8655 28.3008 63.8655C28.9277 63.8655 29.4375 64.3753 29.4375 65.0022C29.4375 65.6291 28.9277 66.1389 28.3008 66.1389ZM28.3008 64.3384C27.9353 64.3384 27.6371 64.6366 27.6371 65.0022C27.6371 65.3677 27.9353 65.6659 28.3008 65.6659C28.6664 65.6659 28.9646 65.3677 28.9646 65.0022C28.9646 64.6366 28.668 64.3384 28.3008 64.3384Z" fill="#E9EBE9"/>
<path d="M13.4016 92.2096H8.81305V49.9877H19.0002V50.459H9.28441V91.7382H13.4016V92.2096Z" fill="#E9EBE9"/>
<path d="M56.4174 98.605H74.2857V100.952H61.0139L56.4174 98.605Z" fill="#231F20"/>
<path d="M72.059 45.9378C72.059 45.109 71.6678 44.3731 71.0618 43.8985C70.9095 42.7922 70.1592 41.88 69.1443 41.4984C69.2133 41.2643 69.2533 41.0158 69.2533 40.7593C69.2533 39.3292 68.0942 38.17 66.6641 38.17C65.7791 38.17 64.9983 38.6141 64.5317 39.2923C64.4949 39.2907 64.4596 39.2875 64.4227 39.2875C62.1509 39.2875 60.3071 41.1297 60.3071 43.4031C60.3071 43.767 60.3584 44.1197 60.4482 44.4564C59.8823 44.7114 59.4863 45.2773 59.4863 45.9394C59.4863 46.8389 60.2158 47.5684 61.1152 47.5684C61.1585 47.5684 61.1986 47.5587 61.2402 47.5555C61.5384 47.8874 61.9665 48.1006 62.4475 48.1006C62.975 48.1006 63.4383 47.8457 63.7349 47.4577C63.9594 47.4962 64.187 47.5203 64.4227 47.5203C65.2131 47.5203 65.9474 47.2942 66.5743 46.9078C66.7699 47.0217 66.9799 47.1178 67.2012 47.1852C67.4785 47.6918 67.921 48.0942 68.4565 48.3219C68.6088 48.7323 68.9503 49.0466 69.3768 49.1652C69.3752 49.1845 69.3704 49.2021 69.3704 49.2213C69.3704 49.728 69.7808 50.1368 70.2858 50.1368C70.7925 50.1368 71.2013 49.7264 71.2013 49.2213C71.2013 48.96 71.0907 48.7259 70.9159 48.5592C71.0282 48.3764 71.0955 48.168 71.1115 47.9419C71.6903 47.4658 72.059 46.7459 72.059 45.9378Z" fill="#231F20"/>
<path d="M26.4377 51.9276L24.3534 50.9625C24.1194 50.8567 24.0023 50.6659 24.0023 50.3869C24.0023 50.2458 24.0312 50.1288 24.0873 50.0342C24.1434 49.9396 24.2332 49.8674 24.3534 49.8193L26.4377 48.8542C26.5242 48.8189 26.6028 48.8141 26.6733 48.8414C26.7439 48.8686 26.7968 48.9151 26.8353 48.984C26.8738 49.053 26.8962 49.1283 26.9026 49.2117C26.9106 49.2951 26.8962 49.3736 26.8609 49.4458C26.8257 49.5179 26.7631 49.574 26.6766 49.6141L24.2925 50.6851V50.1095L26.6766 51.1805C26.7631 51.2206 26.8241 51.2767 26.8609 51.3489C26.8962 51.421 26.9106 51.498 26.9026 51.5797C26.8946 51.6615 26.8722 51.7368 26.8353 51.8042C26.7968 51.8731 26.7439 51.9196 26.6733 51.9469C26.6028 51.9741 26.5242 51.9677 26.4377 51.9276Z" fill="white"/>
<path d="M27.8531 52.4359C27.8226 52.5497 27.7729 52.6347 27.7023 52.6876C27.6318 52.7405 27.5581 52.7661 27.4779 52.7629C27.3993 52.7613 27.3256 52.7357 27.2598 52.6876C27.1941 52.6395 27.1444 52.5705 27.1123 52.4824C27.0803 52.3942 27.0835 52.29 27.1204 52.1713L28.3709 47.5988C28.4014 47.485 28.4511 47.4 28.5216 47.3471C28.5922 47.2942 28.6643 47.2686 28.7429 47.2686C28.8198 47.2686 28.8936 47.2926 28.9609 47.3407C29.0282 47.3888 29.0779 47.4577 29.1084 47.5459C29.1389 47.6341 29.1373 47.7383 29.1036 47.857L27.8531 52.4359Z" fill="white"/>
<path d="M29.7842 51.9276C29.6976 51.9677 29.6207 51.9741 29.5517 51.9468C29.4844 51.9196 29.4299 51.8731 29.3898 51.8041C29.3497 51.7352 29.3273 51.6614 29.3225 51.5797C29.3161 51.4979 29.3305 51.4209 29.3642 51.3488C29.3978 51.2766 29.4603 51.2205 29.5517 51.1804L31.9358 50.1095V50.685L29.5517 49.6141C29.462 49.574 29.3994 49.5179 29.3642 49.4457C29.3305 49.3736 29.3161 49.295 29.3225 49.2116C29.3273 49.1283 29.3513 49.0529 29.3898 48.984C29.4299 48.915 29.4828 48.8685 29.5517 48.8413C29.6191 48.8156 29.6976 48.8188 29.7842 48.8541L31.8733 49.8193C32.1073 49.9251 32.2244 50.1143 32.2244 50.3868C32.2244 50.5279 32.1955 50.6466 32.1362 50.7444C32.0785 50.8406 31.9903 50.9143 31.8733 50.9624L29.7842 51.9276Z" fill="white"/>
<path d="M23.1705 68.8501L22.1348 68.3707C22.0177 68.3178 21.96 68.2232 21.96 68.0854C21.96 68.0148 21.9745 67.9571 22.0017 67.909C22.0306 67.8625 22.0739 67.8256 22.1348 67.8016L23.1705 67.3222C23.2138 67.3046 23.2523 67.303 23.2875 67.3158C23.3228 67.3286 23.3484 67.3527 23.3677 67.3863C23.3869 67.42 23.3982 67.4585 23.4014 67.5002C23.4046 67.5418 23.3982 67.5803 23.3805 67.6172C23.3629 67.6541 23.3324 67.6813 23.2891 67.7006L22.1043 68.2329V67.9475L23.2891 68.4798C23.3324 68.499 23.3629 68.5279 23.3805 68.5631C23.3982 68.6 23.4062 68.6369 23.4014 68.6786C23.3982 68.7186 23.3869 68.7571 23.3677 68.7908C23.3484 68.8245 23.3228 68.8485 23.2875 68.8613C23.2523 68.8726 23.2138 68.8693 23.1705 68.8501Z" fill="white"/>
<path d="M23.8742 69.1018C23.8598 69.1595 23.8342 69.1996 23.7989 69.2268C23.7636 69.2525 23.7267 69.2653 23.6883 69.2653C23.6482 69.2637 23.6129 69.2509 23.5792 69.2268C23.5456 69.2028 23.5215 69.1691 23.5055 69.1242C23.4895 69.0809 23.4911 69.0296 23.5103 68.9703L24.1324 66.6969C24.1468 66.6392 24.1725 66.5975 24.2077 66.5718C24.243 66.5462 24.2783 66.5317 24.3167 66.5317C24.3552 66.5317 24.3921 66.5446 24.4258 66.5686C24.4594 66.5927 24.4835 66.6263 24.4995 66.6712C24.5139 66.7145 24.5139 66.7658 24.4963 66.8251L23.8742 69.1018Z" fill="white"/>
<path d="M24.8355 68.85C24.7922 68.8692 24.7537 68.8724 24.72 68.8596C24.6864 68.8468 24.6591 68.8227 24.6399 68.7891C24.6206 68.7554 24.6094 68.7185 24.6062 68.6769C24.603 68.6368 24.611 68.5983 24.627 68.5614C24.6447 68.5245 24.6751 68.4973 24.72 68.478L25.9048 67.9458V68.2311L24.72 67.6989C24.6751 67.6796 24.6447 67.6508 24.627 67.6155C24.6094 67.5786 24.603 67.5401 24.6062 67.4985C24.6094 67.4568 24.6206 67.4199 24.6399 67.3846C24.6591 67.351 24.6864 67.3269 24.72 67.3141C24.7537 67.3013 24.7922 67.3029 24.8355 67.3205L25.8744 67.7999C25.9914 67.8528 26.0491 67.9474 26.0491 68.082C26.0491 68.1526 26.0347 68.2119 26.0059 68.26C25.977 68.3081 25.9337 68.345 25.8744 68.369L24.8355 68.85Z" fill="white"/>
<path d="M32.6071 68.85L31.5714 68.3706C31.4543 68.3177 31.3966 68.2231 31.3966 68.0852C31.3966 68.0147 31.411 67.957 31.4383 67.9089C31.4671 67.8624 31.5104 67.8255 31.5714 67.8015L32.6071 67.3221C32.6504 67.3044 32.6888 67.3028 32.7241 67.3157C32.7594 67.3285 32.785 67.3525 32.8043 67.3862C32.8235 67.4199 32.8347 67.4584 32.8379 67.5C32.8411 67.5417 32.8347 67.5802 32.8171 67.6171C32.7995 67.654 32.769 67.6812 32.7257 67.7004L31.5409 68.2327V67.9473L32.7257 68.4796C32.769 68.4989 32.7995 68.5277 32.8171 68.563C32.8347 68.5999 32.8427 68.6367 32.8379 68.6784C32.8347 68.7185 32.8235 68.757 32.8043 68.7907C32.785 68.8243 32.7594 68.8484 32.7241 68.8612C32.6888 68.8724 32.6504 68.8692 32.6071 68.85Z" fill="white"/>
<path d="M33.3111 69.1018C33.2967 69.1595 33.271 69.1996 33.2357 69.2268C33.2005 69.2525 33.1636 69.2653 33.1251 69.2653C33.085 69.2637 33.0498 69.2509 33.0161 69.2268C32.9824 69.2028 32.9584 69.1691 32.9423 69.1242C32.9263 69.0809 32.9279 69.0296 32.9471 68.9703L33.5692 66.6969C33.5836 66.6392 33.6093 66.5975 33.6446 66.5718C33.6798 66.5462 33.7151 66.5317 33.7536 66.5317C33.7921 66.5317 33.8289 66.5446 33.8626 66.5686C33.8963 66.5927 33.9203 66.6263 33.9364 66.6712C33.9508 66.7145 33.9508 66.7658 33.9331 66.8251L33.3111 69.1018Z" fill="white"/>
<path d="M34.2701 68.85C34.2268 68.8692 34.1883 68.8724 34.1547 68.8596C34.121 68.8468 34.0937 68.8227 34.0745 68.7891C34.0553 68.7554 34.044 68.7185 34.0408 68.6769C34.0376 68.6368 34.0456 68.5983 34.0617 68.5614C34.0793 68.5245 34.1098 68.4973 34.1547 68.478L35.3395 67.9458V68.2311L34.1547 67.6989C34.1098 67.6796 34.0793 67.6508 34.0617 67.6155C34.044 67.5786 34.0376 67.5401 34.0408 67.4985C34.044 67.4568 34.0553 67.4199 34.0745 67.3846C34.0937 67.351 34.121 67.3269 34.1547 67.3141C34.1883 67.3013 34.2268 67.3029 34.2701 67.3205L35.309 67.7999C35.4261 67.8528 35.4838 67.9474 35.4838 68.082C35.4838 68.1526 35.4693 68.2119 35.4405 68.26C35.4116 68.3081 35.3683 68.345 35.309 68.369L34.2701 68.85Z" fill="white"/>
<path d="M19.764 93.4136L17.6797 92.4484C17.4457 92.3426 17.3286 92.1518 17.3286 91.8729C17.3286 91.7318 17.3575 91.6147 17.4136 91.5201C17.4697 91.4255 17.5595 91.3534 17.6797 91.3053L19.764 90.3401C19.8505 90.3049 19.9291 90.3001 19.9996 90.3273C20.0702 90.3546 20.1231 90.4011 20.1616 90.47C20.2001 90.5389 20.2225 90.6143 20.2289 90.6977C20.2369 90.781 20.2225 90.8596 20.1872 90.9317C20.152 91.0039 20.0894 91.06 20.0029 91.1001L17.6188 92.1711V91.5955L20.0029 92.6665C20.0894 92.7065 20.1504 92.7627 20.1872 92.8348C20.2225 92.907 20.2369 92.9839 20.2289 93.0657C20.2209 93.1475 20.1984 93.2228 20.1616 93.2901C20.1231 93.3591 20.0702 93.4056 19.9996 93.4328C19.9291 93.4601 19.8505 93.4537 19.764 93.4136Z" fill="white"/>
<path d="M21.179 93.9218C21.1486 94.0357 21.0989 94.1206 21.0283 94.1735C20.9578 94.2265 20.884 94.2521 20.8039 94.2489C20.7253 94.2473 20.6516 94.2216 20.5858 94.1735C20.5201 94.1254 20.4704 94.0565 20.4383 93.9683C20.4063 93.8802 20.4095 93.7759 20.4464 93.6573L21.6969 89.0848C21.7274 88.971 21.7771 88.886 21.8476 88.8331C21.9181 88.7802 21.9903 88.7545 22.0689 88.7545C22.1474 88.7545 22.2196 88.7786 22.2869 88.8267C22.3542 88.8748 22.4039 88.9437 22.4344 89.0319C22.4649 89.1201 22.4633 89.2243 22.4296 89.3429L21.179 93.9218Z" fill="white"/>
<path d="M23.11 93.4135C23.0234 93.4536 22.9465 93.46 22.8775 93.4328C22.8102 93.4055 22.7557 93.359 22.7156 93.2901C22.6755 93.2211 22.6531 93.1474 22.6483 93.0656C22.6419 92.9839 22.6563 92.9069 22.69 92.8348C22.7236 92.7626 22.7862 92.7065 22.8775 92.6664L25.2616 91.5954V92.171L22.8775 91.1C22.7878 91.0599 22.7252 91.0038 22.69 90.9317C22.6563 90.8595 22.6419 90.781 22.6483 90.6976C22.6531 90.6142 22.6771 90.5389 22.7156 90.4699C22.7557 90.401 22.8086 90.3545 22.8775 90.3273C22.9449 90.3016 23.0234 90.3048 23.11 90.3401L25.1991 91.3052C25.4331 91.4111 25.5502 91.6002 25.5502 91.8728C25.5502 92.0139 25.5213 92.1325 25.462 92.2303C25.4043 92.3265 25.3161 92.4003 25.1991 92.4484L23.11 93.4135Z" fill="white"/>
<path d="M19.0008 51.1708C19.4984 51.1708 19.9018 50.7674 19.9018 50.2698C19.9018 49.7722 19.4984 49.3688 19.0008 49.3688C18.5031 49.3688 18.0997 49.7722 18.0997 50.2698C18.0997 50.7674 18.5031 51.1708 19.0008 51.1708Z" fill="#088466"/>
<path d="M19.0004 51.4065C18.3735 51.4065 17.8637 50.8966 17.8637 50.2698C17.8637 49.6429 18.3735 49.1331 19.0004 49.1331C19.6273 49.1331 20.1371 49.6429 20.1371 50.2698C20.1355 50.8966 19.6273 51.4065 19.0004 51.4065ZM19.0004 49.606C18.6349 49.606 18.3367 49.9042 18.3367 50.2698C18.3367 50.6353 18.6349 50.9335 19.0004 50.9335C19.366 50.9335 19.6642 50.6353 19.6642 50.2698C19.6642 49.9042 19.366 49.606 19.0004 49.606Z" fill="#E9EBE9"/>
<path d="M13.4026 92.8749C13.9002 92.8749 14.3036 92.4715 14.3036 91.9739C14.3036 91.4763 13.9002 91.0729 13.4026 91.0729C12.9049 91.0729 12.5015 91.4763 12.5015 91.9739C12.5015 92.4715 12.9049 92.8749 13.4026 92.8749Z" fill="#088466"/>
<path d="M13.4022 93.1106C12.7753 93.1106 12.2655 92.6008 12.2655 91.9739C12.2655 91.347 12.7753 90.8372 13.4022 90.8372C14.0291 90.8372 14.5389 91.347 14.5389 91.9739C14.5389 92.6008 14.0291 93.1106 13.4022 93.1106ZM13.4022 91.3101C13.0367 91.3101 12.7385 91.6083 12.7385 91.9739C12.7385 92.3394 13.0367 92.6376 13.4022 92.6376C13.7678 92.6376 14.066 92.3394 14.066 91.9739C14.066 91.6083 13.7678 91.3101 13.4022 91.3101Z" fill="#E9EBE9"/>
<path d="M49.2025 18.203C51.1363 18.203 52.704 16.6353 52.704 14.7015C52.704 12.7676 51.1363 11.2 49.2025 11.2C47.2687 11.2 45.701 12.7676 45.701 14.7015C45.701 16.6353 47.2687 18.203 49.2025 18.203Z" fill="#FAF9F8"/>
<path d="M58.0258 16.3914C58.9927 16.3914 59.7765 15.6076 59.7765 14.6407C59.7765 13.6737 58.9927 12.8899 58.0258 12.8899C57.0589 12.8899 56.275 13.6737 56.275 14.6407C56.275 15.6076 57.0589 16.3914 58.0258 16.3914Z" fill="#FAF9F8"/>
</svg>
