<svg width="72" height="72" viewBox="0 0 72 72" fill="none" xmlns="http://www.w3.org/2000/svg">
<path d="M64.3841 33.1217C69.8698 49.6239 65.3707 73.0271 49.8356 62.4311C35.4685 52.6319 12.131 53.6667 6.64525 37.1644C1.15955 20.6622 8.12411 14.3909 24.6263 8.90416C41.1286 3.41743 58.8974 16.6194 64.3841 33.1217Z" fill="#FAF9F8"/>
<path d="M15.2764 9.94517C16.5316 9.94517 17.5491 8.92768 17.5491 7.67254C17.5491 6.4174 16.5316 5.3999 15.2764 5.3999C14.0213 5.3999 13.0038 6.4174 13.0038 7.67254C13.0038 8.92768 14.0213 9.94517 15.2764 9.94517Z" fill="#FAF9F8"/>
<path d="M61.9515 36.5234H31.797C30.9109 36.5234 30.192 35.8045 30.192 34.9184V12.0711C30.192 11.185 30.9109 10.4661 31.797 10.4661H61.9504C62.8365 10.4661 63.5554 11.185 63.5554 12.0711V34.9184C63.5565 35.8045 62.8376 36.5234 61.9515 36.5234Z" fill="#088466"/>
<path d="M58.763 36.6763H34.9854C32.2575 36.6763 30.0392 34.4569 30.0392 31.73V15.2585C30.0392 12.5316 32.2585 10.3123 34.9854 10.3123H58.763C61.491 10.3123 63.7093 12.5316 63.7093 15.2585V31.73C63.7093 34.458 61.491 36.6763 58.763 36.6763ZM34.9854 10.6189C32.4267 10.6189 30.3448 12.7008 30.3448 15.2585V31.73C30.3448 34.2888 32.4267 36.3696 34.9854 36.3696H58.763C61.3218 36.3696 63.4036 34.2877 63.4036 31.73V15.2585C63.4036 12.6998 61.3218 10.6189 58.763 10.6189H34.9854Z" fill="#088466"/>
<path d="M63.5563 15.2616H30.1919V11.6578C30.1919 10.9994 30.7252 10.4661 31.3836 10.4661H62.3647C63.0231 10.4661 63.5563 10.9994 63.5563 11.6578V15.2616Z" fill="#231F20"/>
<path d="M63.7091 15.4144H30.0391V14.0247C30.0391 11.9777 31.7046 10.3132 33.7506 10.3132H59.9976C62.0447 10.3132 63.7091 11.9787 63.7091 14.0247V15.4144ZM30.3447 15.1087H63.4025V14.0247C63.4025 12.1469 61.8744 10.6188 59.9966 10.6188H33.7506C31.8728 10.6188 30.3447 12.1469 30.3447 14.0247V15.1087Z" fill="#231F20"/>
<path d="M6.47815 14.1981C6.55507 14.0935 6.61968 13.9766 6.70992 13.8853C7.89137 12.6987 9.07589 11.5163 10.2594 10.3328C10.5383 10.0538 10.7578 10.0528 11.0347 10.3297C11.649 10.944 12.2633 11.5573 12.8776 12.1726C13.1361 12.4311 13.1381 12.6629 12.8828 12.9182C11.6787 14.1232 10.4747 15.3273 9.26971 16.5313C9.01845 16.7825 8.78258 16.7835 8.53542 16.5364C7.91085 15.9118 7.28526 15.2883 6.66378 14.6606C6.58993 14.5868 6.53968 14.4904 6.47815 14.4042C6.47815 14.3345 6.47815 14.2668 6.47815 14.1981Z" fill="#83CC97"/>
<path d="M9.8241 17.242C11.0835 15.9826 12.3336 14.7325 13.592 13.4741C13.6228 13.4885 13.6669 13.5059 13.7099 13.5274C15.036 14.19 16.361 14.8545 17.6891 15.514C17.8614 15.5991 17.9722 15.7232 18.0429 15.9006C19.1628 18.7075 20.2858 21.5135 21.4078 24.3204C21.4232 24.3594 21.4385 24.3994 21.4355 24.4517C21.4016 24.4209 21.3678 24.3901 21.335 24.3584C19.6397 22.6631 17.9445 20.9668 16.2461 19.2736C16.1672 19.1947 16.1508 19.1352 16.1887 19.0234C16.362 18.5147 16.2554 18.0502 15.8821 17.6738C15.4944 17.283 15.0134 17.1743 14.4945 17.3682C14.0073 17.5497 13.7171 17.9127 13.6515 18.4337C13.5264 19.4213 14.4791 20.17 15.4165 19.8295C15.4626 19.8131 15.5457 19.8223 15.5775 19.8531C17.3137 21.5832 19.0469 23.3174 20.7801 25.0506C20.7894 25.0598 20.7945 25.0742 20.8119 25.1009C20.7576 25.0824 20.7165 25.0711 20.6776 25.0557C17.8716 23.9338 15.0647 22.8108 12.2577 21.6909C12.0752 21.6181 11.9501 21.5022 11.8619 21.3258C11.186 19.9628 10.504 18.6029 9.8241 17.242Z" fill="#83CC97"/>
<path d="M14.9448 18.1578C15.1828 18.1547 15.3828 18.3495 15.3869 18.5885C15.391 18.8305 15.2023 19.0285 14.9623 19.0346C14.7151 19.0408 14.511 18.8438 14.51 18.5998C14.51 18.3629 14.7079 18.1608 14.9448 18.1578Z" fill="#83CC97"/>
<path d="M36.9426 25.224L37.7251 25.1071H37.88L38.7322 25.224V25.5429H36.9426V25.224ZM39.2635 20.2798H39.7516L41.5453 25.5429H40.7844L39.2286 20.8941L39.4142 20.8715L37.8267 25.5429H37.4544L39.2635 20.2798ZM38.3538 23.4805H40.4623L40.5905 23.8446H38.2297L38.3538 23.4805ZM39.8788 25.225L40.8572 25.1081H41.0346L42.0048 25.225V25.5429H39.8798V25.225H39.8788Z" fill="white"/>
<path d="M45.441 29.8132H44.9816V29.5066H45.1354V29.3538H45.441V29.8132Z" fill="white"/>
<path d="M44.3807 29.8132H43.7787V29.5066H44.3807V29.8132ZM43.1778 29.8132H42.5758V29.5066H43.1778V29.8132ZM41.9748 29.8132H41.3728V29.5066H41.9748V29.8132ZM40.7718 29.8132H40.1698V29.5066H40.7718V29.8132ZM39.5688 29.8132H38.9668V29.5066H39.5688V29.8132ZM38.3658 29.8132H37.7638V29.5066H38.3658V29.8132ZM37.1629 29.8132H36.5609V29.5066H37.1629V29.8132ZM35.9599 29.8132H35.3579V29.5066H35.9599V29.8132ZM34.7569 29.8132H34.1549V29.5066H34.7569V29.8132Z" fill="white"/>
<path d="M33.5541 29.8132H33.0946V29.3538H33.4012V29.5066H33.5541V29.8132Z" fill="white"/>
<path d="M33.4012 28.7519H33.0946V28.1509H33.4012V28.7519ZM33.4012 27.5489H33.0946V26.9479H33.4012V27.5489ZM33.4012 26.3459H33.0946V25.7449H33.4012V26.3459ZM33.4012 25.1429H33.0946V24.5419H33.4012V25.1429ZM33.4012 23.941H33.0946V23.34H33.4012V23.941ZM33.4012 22.737H33.0946V22.136H33.4012V22.737ZM33.4012 21.535H33.0946V20.934H33.4012V21.535ZM33.4012 20.332H33.0946V19.7311H33.4012V20.332ZM33.4012 19.1291H33.0946V18.5281H33.4012V19.1291Z" fill="white"/>
<path d="M33.4012 17.926H33.0946V17.4666H33.5541V17.7722H33.4012V17.926Z" fill="white"/>
<path d="M44.3807 17.7722H43.7787V17.4656H44.3807V17.7722ZM43.1778 17.7722H42.5758V17.4656H43.1778V17.7722ZM41.9748 17.7722H41.3728V17.4656H41.9748V17.7722ZM40.7718 17.7722H40.1698V17.4656H40.7718V17.7722ZM39.5688 17.7722H38.9668V17.4656H39.5688V17.7722ZM38.3658 17.7722H37.7638V17.4656H38.3658V17.7722ZM37.1629 17.7722H36.5609V17.4656H37.1629V17.7722ZM35.9599 17.7722H35.3579V17.4656H35.9599V17.7722ZM34.7569 17.7722H34.1549V17.4656H34.7569V17.7722Z" fill="white"/>
<path d="M45.441 17.926H45.1354V17.7722H44.9816V17.4666H45.441V17.926Z" fill="white"/>
<path d="M45.4413 28.7519H45.1346V28.1509H45.4413V28.7519ZM45.4413 27.5499H45.1346V26.9489H45.4413V27.5499ZM45.4413 26.3459H45.1346V25.7449H45.4413V26.3459ZM45.4413 25.1439H45.1346V24.543H45.4413V25.1439ZM45.4413 23.941H45.1346V23.34H45.4413V23.941ZM45.4413 22.738H45.1346V22.137H45.4413V22.738ZM45.4413 21.535H45.1346V20.934H45.4413V21.535ZM45.4413 20.332H45.1346V19.7311H45.4413V20.332ZM45.4413 19.1291H45.1346V18.5281H45.4413V19.1291Z" fill="white"/>
<path d="M57.2996 66.7406H10.9208C10.0347 66.7406 9.3158 66.0217 9.3158 65.1356V30.0154C9.3158 28.9847 10.1506 28.1499 11.1813 28.1499H57.0391C58.0698 28.1499 58.9046 28.9857 58.9046 30.0154V65.1356C58.9046 66.0227 58.1867 66.7406 57.2996 66.7406Z" fill="white"/>
<path d="M54.1124 66.8944H14.1095C11.3815 66.8944 9.16321 64.6751 9.16321 61.9481V33.7207C9.16321 30.564 11.7312 27.9971 14.8868 27.9971H53.334C56.4906 27.9971 59.0586 30.5651 59.0586 33.7217V61.9481C59.0586 64.6751 56.8393 66.8944 54.1124 66.8944ZM14.8868 28.3027C11.8994 28.3027 9.46882 30.7333 9.46882 33.7207V61.9481C9.46882 64.5069 11.5507 66.5878 14.1095 66.5878H54.1124C56.6711 66.5878 58.753 64.5059 58.753 61.9481V33.7207C58.753 30.7333 56.3224 28.3027 53.335 28.3027H14.8868Z" fill="#E9EBE9"/>
<path d="M58.9046 33.057H9.3158V29.3342C9.3158 28.4482 10.0347 27.7292 10.9208 27.7292H57.2996C58.1856 27.7292 58.9046 28.4482 58.9046 29.3342V33.057Z" fill="#231F20"/>
<path d="M59.0586 33.2098H9.16321V32.5217C9.16321 29.7947 11.3825 27.5754 14.1095 27.5754H54.1123C56.8403 27.5754 59.0586 29.7947 59.0586 32.5217V33.2098ZM9.46882 32.9032H58.752V32.5217C58.752 29.9629 56.6701 27.8821 54.1113 27.8821H14.1095C11.5507 27.8821 9.46882 29.964 9.46882 32.5217V32.9032Z" fill="#231F20"/>
<path d="M33.8246 17.043H32.6709V18.1967H33.8246V17.043Z" fill="#83CC97"/>
<path d="M33.9787 18.3496H32.5183V16.8892H33.9787V18.3496ZM32.8239 18.0439H33.6721V17.1958H32.8239V18.0439Z" fill="#83CC97"/>
<path d="M45.8647 17.043H44.7109V18.1967H45.8647V17.043Z" fill="#83CC97"/>
<path d="M46.0186 18.3496H44.5582V16.8892H46.0186V18.3496ZM44.8649 18.0439H45.713V17.1958H44.8649V18.0439Z" fill="#83CC97"/>
<path d="M37.253 52.147H13.2909C12.7073 52.147 12.2335 51.6732 12.2335 51.0896V36.2529C12.2335 35.6694 12.7073 35.1956 13.2909 35.1956H37.253C37.8365 35.1956 38.3104 35.6694 38.3104 36.2529V51.0896C38.3104 51.6732 37.8365 52.147 37.253 52.147Z" fill="#83CC97"/>
<path d="M35.1537 52.2997H15.3913C13.5668 52.2997 12.0818 50.8147 12.0818 48.9903V38.3532C12.0818 36.5287 13.5668 35.0437 15.3913 35.0437H35.1537C36.9782 35.0437 38.4632 36.5287 38.4632 38.3532V48.9903C38.4632 50.8147 36.9782 52.2997 35.1537 52.2997ZM15.3902 35.3493C13.734 35.3493 12.3864 36.6969 12.3864 38.3532V48.9903C12.3864 50.6465 13.734 51.9941 15.3902 51.9941H35.1527C36.809 51.9941 38.1566 50.6465 38.1566 48.9903V38.3532C38.1566 36.6969 36.809 35.3493 35.1527 35.3493H15.3902Z" fill="#83CC97"/>
<path d="M16.1951 48.6282L22.9668 38.0742L26.8034 43.6717L29.474 39.6741L34.7792 48.6282H16.1951Z" fill="white"/>
<path d="M54.0876 37.1389H42.3173V37.4456H54.0876V37.1389Z" fill="#088466"/>
<path d="M46.8748 41.0359H42.3173V41.3425H46.8748V41.0359Z" fill="#088466"/>
<path d="M45.2883 48.4753H42.3173V48.782H45.2883V48.4753Z" fill="#088466"/>
<path d="M54.7347 44.4233H42.3173V44.73H54.7347V44.4233Z" fill="#088466"/>
<path d="M38.3101 55.3711H29.8995V55.6777H38.3101V55.3711Z" fill="#088466"/>
<path d="M42.317 61.6067H29.8995V61.9133H42.317V61.6067Z" fill="#088466"/>
<path d="M34.7791 58.2058H29.8995V58.5125H34.7791V58.2058Z" fill="#088466"/>
<path d="M26.2528 61.9121H12.6929V55.3711H26.2518V61.9121H26.2528ZM12.9995 61.6065H25.9461V55.6777H12.9995V61.6065Z" fill="#088466"/>
<path d="M12.9137 55.3834L12.7836 55.6599L26.0376 61.8951L26.1677 61.6186L12.9137 55.3834Z" fill="#088466"/>
<path d="M26.0335 55.3807L12.7823 61.6204L12.9125 61.8969L26.1637 55.6572L26.0335 55.3807Z" fill="#088466"/>
<path d="M58.0791 59.7809C63.0305 59.7809 67.0445 55.767 67.0445 50.8155C67.0445 45.8641 63.0305 41.8501 58.0791 41.8501C53.1276 41.8501 49.1136 45.8641 49.1136 50.8155C49.1136 55.767 53.1276 59.7809 58.0791 59.7809Z" fill="#83CC97"/>
<path d="M58.0793 59.9347C53.051 59.9347 48.9601 55.8438 48.9601 50.8165C48.9601 45.7882 53.051 41.6973 58.0793 41.6973C63.1076 41.6973 67.1986 45.7882 67.1986 50.8165C67.1986 55.8438 63.1076 59.9347 58.0793 59.9347ZM58.0793 42.0029C53.2202 42.0029 49.2667 45.9564 49.2667 50.8155C49.2667 55.6746 53.2202 59.6281 58.0793 59.6281C62.9384 59.6281 66.8919 55.6746 66.8919 50.8155C66.8919 45.9564 62.9384 42.0029 58.0793 42.0029Z" fill="#83CC97"/>
<path d="M61.9355 50.9602C61.9006 51.9201 61.5171 52.7867 60.9069 53.44L64.5189 57.0551C66.0521 55.4727 67.0069 53.3282 67.0448 50.9602H61.9355Z" fill="#088466"/>
<path d="M64.5202 57.2735L60.6938 53.444L60.7954 53.3363C61.4005 52.6882 61.7512 51.8421 61.783 50.956L61.7881 50.8083H67.2L67.1979 50.9642C67.161 53.2902 66.2493 55.4921 64.6289 57.1627L64.5202 57.2735ZM61.1174 53.4348L64.5161 56.8366C65.9796 55.2736 66.8164 53.2523 66.8872 51.114H62.0804C62.0178 51.9713 61.6804 52.7856 61.1174 53.4348Z" fill="#088466"/>
<path d="M54.2188 50.9602H49.1135C49.1504 53.3282 50.1052 55.4727 51.6364 57.0551L55.2484 53.4431C54.6403 52.7867 54.2536 51.9212 54.2188 50.9602Z" fill="#088466"/>
<path d="M51.6342 57.2735L51.5255 57.1617C49.9072 55.489 48.9965 53.2882 48.9596 50.9633L48.9575 50.8074H54.3663L54.3714 50.9551C54.4032 51.8381 54.754 52.6841 55.3601 53.3384L55.4606 53.4472L51.6342 57.2735ZM49.2703 51.114C49.3411 53.2513 50.1779 55.2726 51.6394 56.8366L55.0381 53.4379C54.475 52.7836 54.1366 51.9683 54.074 51.115H49.2703V51.114Z" fill="#088466"/>
<path d="M51.6364 44.5759C50.1032 46.1614 49.1484 48.3059 49.1135 50.6739H54.2188C54.2536 49.714 54.6372 48.8453 55.2484 48.1879L51.6364 44.5759Z" fill="#088466"/>
<path d="M54.3663 50.8268H48.9575L48.9596 50.672C48.9934 48.3481 49.9041 46.1452 51.5255 44.4704L51.6342 44.3586L55.4606 48.185L55.3601 48.2937C54.755 48.9449 54.4032 49.792 54.3714 50.6802L54.3663 50.8268ZM49.2703 50.5202H54.074C54.1366 49.6618 54.475 48.8455 55.037 48.1932L51.6383 44.7945C50.1749 46.3626 49.338 48.384 49.2703 50.5202Z" fill="#088466"/>
<path d="M60.703 53.644C60.0497 54.2542 59.181 54.6419 58.2201 54.6758V59.781C60.5881 59.7461 62.7325 58.7923 64.315 57.255L60.703 53.644Z" fill="#088466"/>
<path d="M58.0675 59.9368V54.528L58.2152 54.5229C59.1023 54.4911 59.9494 54.1393 60.5986 53.5322L60.7063 53.4307L64.5326 57.257L64.4208 57.3657C62.7502 58.9882 60.5483 59.9009 58.2213 59.9347L58.0675 59.9368ZM58.3741 54.8203V59.624C60.5135 59.5553 62.5338 58.7184 64.0968 57.2529L60.6981 53.8542C60.0468 54.4193 59.2315 54.7577 58.3741 54.8203Z" fill="#088466"/>
<path d="M58.2201 41.8501V46.9553C59.18 46.9902 60.0487 47.3738 60.703 47.987L64.315 44.375C62.7325 42.8387 60.5881 41.8839 58.2201 41.8501Z" fill="#088466"/>
<path d="M60.7063 48.2014L60.5976 48.0999C59.9505 47.4928 59.1044 47.141 58.2142 47.1092L58.0665 47.1041V41.6953L58.2214 41.6974C60.5474 41.7312 62.7492 42.644 64.4209 44.2664L64.5327 44.3751L60.7063 48.2014ZM58.3742 46.8108C59.2346 46.8734 60.05 47.2128 60.6981 47.7769L64.0968 44.3792C62.5339 42.9137 60.5125 42.0758 58.3742 42.0071V46.8108Z" fill="#088466"/>
</svg>
