<svg xmlns="http://www.w3.org/2000/svg" viewBox="0 0 128 128"><path d="M82 32c2.206 0 4 1.794 4 4v12c0 2.206-1.794 4-4 4H70c-2.206 0-4-1.794-4-4V36c0-2.206 1.794-4 4-4h12m0-4H70a8 8 0 0 0-8 8v12a8 8 0 0 0 8 8h12a8 8 0 0 0 8-8V36a8 8 0 0 0-8-8zM97.612 79.978c-.934-.138-1.866-.273-2.798-.408-.121-.019-.2-.045-.232-.187a10.321 10.321 0 0 0-1.312-3.124c-.059-.095-.057-.153.011-.246.56-.758 1.114-1.521 1.67-2.284.191-.259.179-.426-.054-.65-.734-.723-1.466-1.44-2.199-2.158-.117-.113-.221-.17-.329-.17-.097 0-.197.045-.315.135-.741.563-1.487 1.126-2.224 1.697-.061.046-.253.049-.31.014-.9-.536-1.863-.931-2.882-1.173-.137-.034-.191-.093-.21-.229-.13-.936-.269-1.867-.406-2.8-.039-.273-.173-.395-.444-.395H82.42c-.265 0-.405.122-.444.379-.136.941-.274 1.877-.405 2.817-.019.13-.065.19-.197.223a10.355 10.355 0 0 0-3.108 1.306c-.049.03-.209.027-.259-.008a214.823 214.823 0 0 0-2.283-1.671.54.54 0 0 0-.31-.124c-.107.003-.211.058-.32.166-.725.731-1.444 1.473-2.167 2.209-.225.228-.232.399-.039.654.572.752 1.141 1.502 1.72 2.251.068.089.063.15.008.242a10.317 10.317 0 0 0-1.198 2.939c-.034.144-.113.17-.231.186-.936.135-1.866.271-2.8.408-.267.039-.387.176-.387.453v3.141c0 .276.117.414.387.452.934.138 1.866.273 2.799.408.122.016.196.045.231.187a10.349 10.349 0 0 0 1.313 3.124c.059.095.056.153-.012.246-.559.755-1.114 1.521-1.67 2.284-.19.259-.177.426.055.653.733.72 1.466 1.438 2.199 2.155.118.113.223.17.331.17.097 0 .196-.045.313-.135.741-.563 1.486-1.126 2.224-1.697.06-.046.254-.049.312-.014.898.536 1.86.931 2.881 1.173.137.034.19.093.21.229.13.936.268 1.867.403 2.8.04.273.175.394.444.394h3.159c.265 0 .404-.122.443-.379.138-.939.274-1.877.408-2.817.017-.114.043-.186.182-.219a10.412 10.412 0 0 0 3.137-1.317c.042-.027.184-.024.228.008.761.561 1.522 1.114 2.286 1.673.124.091.225.137.32.137.113 0 .219-.064.345-.194.717-.729 1.43-1.457 2.146-2.188.225-.228.232-.399.038-.654-.571-.75-1.141-1.502-1.718-2.251-.068-.089-.067-.15-.012-.242.544-.909.948-1.877 1.194-2.906.036-.153.107-.203.253-.224.93-.13 1.856-.266 2.785-.403.262-.038.385-.176.385-.435v-3.176c0-.26-.125-.397-.387-.435zM84 88.685a6.686 6.686 0 1 1 .001-13.371A6.686 6.686 0 0 1 84 88.685zM46 12h16a2 2 0 0 0 0-4H46a2 2 0 0 0 0 4zM70 12h4a2 2 0 0 0 0-4h-4a2 2 0 0 0 0 4zM50 32c2.206 0 4 1.794 4 4v12c0 2.206-1.794 4-4 4H38c-2.206 0-4-1.794-4-4V36c0-2.206 1.794-4 4-4h12m0-4H38a8 8 0 0 0-8 8v12a8 8 0 0 0 8 8h12a8 8 0 0 0 8-8V36a8 8 0 0 0-8-8zM50 64c2.206 0 4 1.794 4 4v12c0 2.206-1.794 4-4 4H38c-2.206 0-4-1.794-4-4V68c0-2.206 1.794-4 4-4h12m0-4H38a8 8 0 0 0-8 8v12a8 8 0 0 0 8 8h12a8 8 0 0 0 8-8V68a8 8 0 0 0-8-8z"/><path d="M98 64c2.206 0 4 1.794 4 4v28c0 2.206-1.794 4-4 4H70c-2.206 0-4-1.794-4-4V68c0-2.206 1.794-4 4-4h28m0-4H70a8 8 0 0 0-8 8v28a8 8 0 0 0 8 8h28a8 8 0 0 0 8-8V68a8 8 0 0 0-8-8zM50 120h20a2 2 0 0 0 0-4H50a2 2 0 0 0 0 4z"/><path d="M98 56V8c0-4.418-3.63-8-8.106-8H30.106C25.63 0 22 3.582 22 8v112c0 4.418 3.63 8 8.106 8h59.787c4.476 0 8.106-3.582 8.106-8v-12H26V20h68v36h4zm-4 56v8c0 2.206-1.842 4-4.106 4H30.106c-2.265 0-4.106-1.794-4.106-4v-8h68zM26 16V8c0-2.206 1.842-4 4.106-4h59.787C92.158 4 94 5.794 94 8v8H26z"/></svg>