<svg width="72" height="72" viewBox="0 0 72 72" fill="none" xmlns="http://www.w3.org/2000/svg">
<path d="M58.965 27.9652C67.3692 42.0931 68.4662 64.9387 52.4836 58.6162C37.7039 52.7695 17.362 59.0731 8.95777 44.9451C0.553518 30.8172 5.33556 23.377 18.6915 14.4871C32.0475 5.59721 50.5607 13.8372 58.965 27.9652Z" fill="#FAF9F8"/>
<path d="M7.78059 53.7471C8.8852 53.7471 9.78066 52.7998 9.78066 51.6313C9.78066 50.4627 8.8852 49.5154 7.78059 49.5154C6.67598 49.5154 5.78052 50.4627 5.78052 51.6313C5.78052 52.7998 6.67598 53.7471 7.78059 53.7471Z" fill="#FAF9F8"/>
<path d="M64.983 61.233C66.0876 61.233 66.9831 60.2857 66.9831 59.1171C66.9831 57.9485 66.0876 57.0012 64.983 57.0012C63.8784 57.0012 62.9829 57.9485 62.9829 59.1171C62.9829 60.2857 63.8784 61.233 64.983 61.233Z" fill="#FAF9F8"/>
<path d="M11.3995 55.5704C11.9518 55.5704 12.3995 55.0965 12.3995 54.512C12.3995 53.9275 11.9518 53.4536 11.3995 53.4536C10.8471 53.4536 10.3994 53.9275 10.3994 54.512C10.3994 55.0965 10.8471 55.5704 11.3995 55.5704Z" fill="#FAF9F8"/>
<path d="M14.5367 14.4332C15.089 14.4332 15.5367 13.9593 15.5367 13.3748C15.5367 12.7903 15.089 12.3164 14.5367 12.3164C13.9844 12.3164 13.5366 12.7903 13.5366 13.3748C13.5366 13.9593 13.9844 14.4332 14.5367 14.4332Z" fill="#FAF9F8"/>
<path d="M61.8938 54.5119H12.5491C11.9144 54.5119 11.3992 53.9976 11.3992 53.362V17.9253C11.3992 17.165 12.0159 16.5474 12.7771 16.5474H61.6649C62.4262 16.5474 63.0429 17.1641 63.0429 17.9253V53.362C63.0429 53.9967 62.5285 54.5119 61.8938 54.5119Z" fill="white"/>
<path d="M59.3909 54.6538H15.0518C12.9592 54.6538 11.2572 52.9517 11.2572 50.8592V20.9236C11.2572 18.4325 13.2842 16.4055 15.7753 16.4055H58.6665C61.1585 16.4055 63.1855 18.4325 63.1855 20.9245V50.8601C63.1855 52.9517 61.4834 54.6538 59.3909 54.6538ZM15.7753 16.6901C13.4413 16.6901 11.5418 18.5896 11.5418 20.9236V50.8592C11.5418 52.7946 13.1163 54.3683 15.0509 54.3683H59.39C61.3254 54.3683 62.8991 52.7937 62.8991 50.8592V20.9245C62.8991 18.5896 60.9996 16.691 58.6656 16.691H15.7753V16.6901Z" fill="#E9EBE9"/>
<path d="M42.9688 54.6447H24.6459V47.7333C24.6459 45.2 26.707 43.1389 29.2403 43.1389H38.3753C40.9086 43.1389 42.9697 45.2 42.9697 47.7333V54.6447H42.9688ZM24.9304 54.3593H42.6833V47.7333C42.6833 45.3571 40.7506 43.4244 38.3744 43.4244H29.2394C26.8632 43.4244 24.9304 45.3571 24.9304 47.7333V54.3593Z" fill="#088466"/>
<path d="M63.0426 20.5976H11.3998V17.5392C11.3998 16.7636 12.0291 16.1343 12.8047 16.1343H61.6377C62.4133 16.1343 63.0426 16.7636 63.0426 17.5392V20.5976Z" fill="#088466"/>
<path d="M63.1855 20.7395H11.2572V20.5968C11.2572 18.0572 13.3237 15.9907 15.8633 15.9907H58.5794C61.119 15.9907 63.1855 18.0572 63.1855 20.5968V20.7395ZM11.5445 20.455H62.8982C62.8228 18.138 60.9143 16.2762 58.5794 16.2762H15.8633C13.5284 16.2762 11.6199 18.138 11.5445 20.455Z" fill="#088466"/>
<path d="M13.8281 23.3159L12.9744 22.4128L13.8281 21.5088L14.0354 21.7045L13.3667 22.4128L14.0354 23.1202L13.8281 23.3159Z" fill="#088466"/>
<path d="M15.8955 23.3159L15.6881 23.1202L16.3578 22.4128L15.6881 21.7045L15.8955 21.5088L16.7501 22.4128L15.8955 23.3159Z" fill="#088466"/>
<path d="M18.641 22.3059C18.6581 22.2314 18.6689 22.1551 18.6931 22.0842C18.8143 21.7296 19.1518 21.5133 19.5136 21.5537C19.8574 21.5923 20.1411 21.884 20.1914 22.2494C20.195 22.2727 20.1976 22.296 20.2012 22.323C20.3027 22.323 20.4041 22.323 20.5056 22.323C20.5091 22.3284 20.5127 22.3338 20.5172 22.3391C20.3664 22.4918 20.2147 22.6444 20.0657 22.7952C19.9212 22.6417 19.773 22.4855 19.624 22.3275C19.7219 22.3275 19.8206 22.3275 19.9194 22.3275C19.94 22.1084 19.7165 21.8696 19.4678 21.84C19.2048 21.8086 18.9516 22.0232 18.9193 22.3077C18.8852 22.6165 19.0971 22.8984 19.4184 22.9128C19.4184 23.0061 19.4184 23.1004 19.4184 23.1982C19.3233 23.1991 19.2326 23.183 19.1455 23.1453C18.8592 23.0196 18.6913 22.7952 18.6473 22.4684C18.6464 22.4585 18.6428 22.4487 18.6401 22.4388C18.641 22.3939 18.641 22.3499 18.641 22.3059Z" fill="#088466"/>
<path d="M32.3394 41.4278C32.3394 41.4278 31.8089 43.2098 30.9704 43.6434C30.132 44.077 31.3987 46.6551 32.6303 46.6022C33.861 46.5492 33.765 43.1137 33.9957 43.4162C34.2264 43.7188 34.4688 45.3292 35.1008 45.1865C35.7327 45.0438 34.4095 43.4046 34.4409 42.4871C34.4733 41.5688 34.4329 41.3875 34.4329 41.3875L32.3394 41.4278Z" fill="#EFBDB1"/>
<path d="M34.876 39.8254H31.9639V41.5149H34.876V39.8254Z" fill="white"/>
<path d="M35.0186 41.6578H31.8219V39.6829H35.0186V41.6578ZM32.1065 41.3732H34.7331V39.9692H32.1065V41.3732Z" fill="#231F20"/>
<path d="M36.7988 24.5549C36.7988 24.5549 31.4557 30.785 31.6981 40.2916H35.3409C35.3409 40.2916 37.5268 28.7301 46.5137 24.5549H36.7988Z" fill="#231F20"/>
<path d="M35.4595 40.4342H31.559L31.5555 40.2951C31.314 30.8432 36.6364 24.5243 36.6903 24.4624L36.7325 24.4121H47.1593L46.574 24.6841C37.7559 28.7812 35.5035 40.2035 35.4811 40.3184L35.4595 40.4342ZM31.8373 40.1488H35.2253C35.4829 38.9476 37.8771 28.8234 45.898 24.6976H36.8653C36.3725 25.3026 31.6623 31.3271 31.8373 40.1488Z" fill="#231F20"/>
<path d="M60.5193 22.9496C60.1108 22.9496 59.7787 22.6022 59.7787 22.1749C59.7787 21.7476 60.1108 21.4001 60.5193 21.4001C60.9277 21.4001 61.2599 21.7476 61.2599 22.1749C61.2599 22.6022 60.9277 22.9496 60.5193 22.9496ZM60.5193 21.6847C60.2679 21.6847 60.0642 21.9047 60.0642 22.1749C60.0642 22.4451 60.2679 22.665 60.5193 22.665C60.7706 22.665 60.9744 22.4451 60.9744 22.1749C60.9744 21.9047 60.7706 21.6847 60.5193 21.6847Z" fill="#088466"/>
<path d="M60.959 22.6012L60.7516 22.7974L61.224 23.2971L61.4314 23.101L60.959 22.6012Z" fill="#088466"/>
<path d="M58.2536 23.289H22.1338V21.5349H58.2536V23.289ZM22.2765 23.1472H58.1118V21.6785H22.2765V23.1472Z" fill="#088466"/>
<path d="M54.5663 45.2495C54.5663 45.2495 57.8932 44.9129 59.0988 45.7154C60.3044 46.5171 58.7935 46.4883 58.4354 46.4901C58.0772 46.491 57.3052 46.1589 57.28 46.8564C57.254 47.553 55.8733 47.9516 54.9164 47.0709L54.5663 45.2495Z" fill="#EFBDB1"/>
<path d="M43.3539 54.5019C43.3539 54.5019 45.722 48.85 54.769 47.244V45.0599C54.769 45.0599 41.7138 44.5464 37.2208 54.5019H43.3539Z" fill="#231F20"/>
<path d="M43.3538 54.6446H36.9999L37.0905 54.4436C41.5719 44.515 54.6423 44.9154 54.7743 44.9181L54.9117 44.9235V47.3634L54.7941 47.3841C50.1637 48.2055 47.336 50.1122 45.7785 51.5673C44.0917 53.1428 43.4911 54.5432 43.4849 54.5567L43.448 54.6438H43.3538V54.6446ZM37.4433 54.3592H43.2613C43.4202 54.0225 44.0684 52.7783 45.5711 51.3707C47.1439 49.8976 49.9878 47.9712 54.6262 47.1246V45.2C53.2357 45.1937 41.6787 45.3499 37.4433 54.3592Z" fill="#231F20"/>
<path d="M59.5899 54.6537H14.8513C12.8691 54.6537 11.256 52.9517 11.256 50.8591V20.9236H11.5414V50.8591C11.5414 52.7946 13.0262 54.3682 14.8513 54.3682H59.5899C61.4149 54.3682 62.8997 52.7937 62.8997 50.8591V20.9245H63.1852V50.86C63.1852 52.9517 61.5729 54.6537 59.5899 54.6537Z" fill="#E9EBE9"/>
<path d="M16.8935 31.7625C16.8935 31.7625 13.5693 32.1341 12.5396 33.1736C11.51 34.2141 12.984 33.8667 13.3359 33.793C13.6878 33.7194 14.3808 33.2311 14.537 33.908C14.6932 34.5857 16.1215 34.6845 16.8935 33.6198V31.7625Z" fill="#EFBDB1"/>
<path d="M27.9684 24.5547C27.9684 24.5547 25.6002 30.2066 16.5532 31.8126V33.9967C16.5532 33.9967 29.6085 34.5102 34.1014 24.5547H27.9684Z" fill="#231F20"/>
<path d="M16.8128 34.1422C16.6503 34.1422 16.5588 34.1395 16.548 34.1395L16.4106 34.1341V31.6942L16.5282 31.6735C21.1586 30.8521 23.9863 28.9454 25.5438 27.4902C27.2306 25.9148 27.8312 24.5144 27.8375 24.5009L27.8743 24.4138H34.3224L34.2318 24.6149C30.1059 33.7544 18.6989 34.1422 16.8128 34.1422ZM16.6961 33.8567C18.0911 33.8639 29.6436 33.705 33.879 24.6975H28.061C27.9021 25.0341 27.2539 26.2783 25.7512 27.6859C24.1784 29.1591 21.3345 31.0855 16.6961 31.932V33.8567Z" fill="#231F20"/>
<path d="M63.0431 24.1599H11.3994V24.4454H63.0431V24.1599Z" fill="#E9EBE9"/>
<path d="M17.6851 47.3673H3.23578C2.18996 47.3673 1.34253 46.5199 1.34253 45.474V37.2314C1.34253 36.1856 2.18996 35.3381 3.23578 35.3381H17.6851C18.731 35.3381 19.5784 36.1856 19.5784 37.2314V45.474C19.5784 46.5199 18.731 47.3673 17.6851 47.3673Z" fill="#83CC97"/>
<path d="M13.564 47.5099H7.35727C3.96217 47.5099 1.19995 44.7477 1.19995 41.3526C1.19995 37.9575 3.96217 35.1953 7.35727 35.1953H13.564C16.9591 35.1953 19.7213 37.9575 19.7213 41.3526C19.7213 44.7477 16.9591 47.5099 13.564 47.5099ZM7.35727 35.4799C4.11927 35.4799 1.48452 38.1146 1.48452 41.3526C1.48452 44.5906 4.11927 47.2245 7.35727 47.2245H13.564C16.802 47.2245 19.4367 44.5897 19.4367 41.3526C19.4367 38.1146 16.802 35.4799 13.564 35.4799H7.35727Z" fill="#83CC97"/>
<path d="M15.3543 47.1672L19.5789 48.7705L17.4666 43.9265L13.8695 45.2784L15.3543 47.1672Z" fill="#83CC97"/>
<path d="M19.8456 49.0236L15.2664 47.2856L13.6371 45.2129L17.543 43.7451L19.8456 49.0236ZM15.4415 47.0477L19.3132 48.5173L17.3904 44.1078L14.1021 45.3439L15.4415 47.0477Z" fill="#83CC97"/>
<path d="M14.5371 38.0833H5.90393V38.3687H14.5371V38.0833Z" fill="white"/>
<path d="M14.5371 40.9414H5.90393V41.2269H14.5371V40.9414Z" fill="white"/>
<path d="M14.5371 43.7988H5.90393V44.0843H14.5371V43.7988Z" fill="white"/>
<path d="M61.5215 48.9632C61.5215 49.0493 61.4757 49.0817 61.3392 49.0799C61.0017 49.0754 60.6624 49.0754 60.3248 49.0799C60.0061 49.0835 59.823 49.1885 59.7745 49.3896C59.762 49.4389 59.7566 49.4901 59.7503 49.5422C59.6462 50.2621 59.5429 51.0638 59.4397 51.7846C59.3338 52.5127 59.2278 53.2407 59.1237 53.9687C59.0196 54.6887 58.9208 55.4086 58.8104 56.1295C58.761 56.45 58.9469 56.5945 59.4514 56.5945H70.0433C70.4984 56.5936 70.7022 56.441 70.6511 56.1528C70.6143 55.9419 70.5873 55.73 70.5568 55.5182C70.4527 54.7946 70.3494 54.0693 70.2462 53.3457C70.1403 52.6141 70.0334 51.8816 69.9293 51.15C69.8503 50.6051 69.7767 49.9803 69.6932 49.4363C69.6537 49.1804 69.4661 49.0808 69.0585 49.079C68.7506 49.0781 68.4427 49.0745 68.1357 49.0808C67.9813 49.0844 67.9328 49.0493 67.9355 48.9524" fill="#83CC97"/>
<path d="M70.0435 56.7363H59.4506C59.1041 56.7363 58.8851 56.6699 58.7639 56.5281C58.6741 56.423 58.6418 56.2812 58.6687 56.107C58.7424 55.6295 58.8097 55.1519 58.8779 54.6743L58.982 53.9472C59.0862 53.2182 59.1921 52.4911 59.298 51.7622C59.3465 51.4246 59.395 51.0701 59.4435 50.7128C59.4982 50.3079 59.5539 49.9021 59.6095 49.5197C59.6176 49.4533 59.6239 49.4021 59.6365 49.3527C59.6813 49.166 59.8376 48.9407 60.3232 48.9362C60.6616 48.9326 61.0019 48.9326 61.3403 48.9362C61.3915 48.9362 61.4076 48.9308 61.4085 48.9308C61.396 48.9353 61.3798 48.9551 61.378 48.9685L61.6635 48.9623C61.6635 49.0377 61.6401 49.0987 61.5943 49.1445C61.5234 49.2145 61.4202 49.2235 61.3367 49.2217C61.0001 49.2181 60.6625 49.2181 60.3259 49.2217C59.9596 49.2253 59.9237 49.3734 59.9121 49.4219C59.9022 49.4614 59.8977 49.5 59.8932 49.5386C59.8349 49.9434 59.7801 50.3483 59.7244 50.7523C59.676 51.1095 59.6275 51.465 59.579 51.8035C59.4731 52.5315 59.3672 53.2595 59.263 53.9885L59.1589 54.7147C59.0907 55.1932 59.0224 55.6725 58.9488 56.151C58.9282 56.2839 58.9659 56.3279 58.9784 56.3422C59.0206 56.3925 59.1373 56.4509 59.4488 56.4509H70.0417C70.3424 56.45 70.4466 56.3799 70.4816 56.3368C70.4932 56.3234 70.5273 56.2821 70.5094 56.1753C70.4816 56.0182 70.46 55.8611 70.4376 55.704L70.4142 55.5361C70.3173 54.8664 70.2221 54.1958 70.127 53.5262L70.0031 52.6706C69.9304 52.1697 69.8577 51.6688 69.7858 51.1679C69.7508 50.9264 69.7167 50.6679 69.6826 50.4084C69.6395 50.0844 69.5964 49.7567 69.5506 49.4551C69.5318 49.3321 69.4797 49.2199 69.0569 49.219L68.8531 49.2181C68.6143 49.2163 68.3756 49.2154 68.1368 49.2199C68.0416 49.2226 67.9339 49.2136 67.8603 49.14C67.8127 49.0924 67.7894 49.026 67.7921 48.9452L68.0775 48.9533C68.0757 48.9515 68.0614 48.9344 68.0497 48.9299C68.0515 48.9308 68.0676 48.9389 68.1314 48.9362C68.3729 48.9317 68.6126 48.9326 68.854 48.9344L69.0569 48.9353C69.3837 48.9362 69.767 48.9919 69.8316 49.4138C69.8783 49.7172 69.9214 50.0467 69.9645 50.3725C69.9986 50.6311 70.0327 50.8878 70.0677 51.1293C70.1395 51.6302 70.2123 52.1311 70.285 52.632L70.4088 53.4884C70.504 54.1581 70.6001 54.8287 70.6961 55.4984L70.7204 55.6672C70.7419 55.8207 70.7634 55.9742 70.7904 56.1277C70.8245 56.3234 70.7607 56.45 70.7006 56.5218C70.5803 56.6654 70.3649 56.7354 70.0435 56.7363Z" fill="#83CC97"/>
<path d="M64.731 53.2371C62.8063 53.2371 61.2407 51.3986 61.2407 49.1382C61.2407 46.8787 62.8063 45.0393 64.731 45.0393C66.6556 45.0393 68.2212 46.8778 68.2212 49.1382C68.2212 51.3977 66.6556 53.2371 64.731 53.2371ZM64.731 45.691C63.1465 45.691 61.8565 47.2378 61.8565 49.1382C61.8565 51.0386 63.1456 52.5854 64.731 52.5854C66.3154 52.5854 67.6054 51.0386 67.6054 49.1382C67.6054 47.2378 66.3163 45.691 64.731 45.691Z" fill="#83CC97"/>
<path d="M64.7308 53.379C62.7281 53.379 61.0988 51.4768 61.0988 49.1374C61.0988 46.7989 62.7281 44.8958 64.7308 44.8958C66.7336 44.8958 68.3629 46.798 68.3629 49.1374C68.3638 51.4768 66.7336 53.379 64.7308 53.379ZM64.7308 45.1821C62.8852 45.1821 61.3833 46.9569 61.3833 49.1383C61.3833 51.3197 62.8852 53.0944 64.7308 53.0944C66.5765 53.0944 68.0784 51.3197 68.0784 49.1383C68.0784 46.9569 66.5765 45.1821 64.7308 45.1821ZM64.7308 52.7282C63.0674 52.7282 61.7146 51.1177 61.7146 49.1383C61.7146 47.1589 63.0674 45.5484 64.7308 45.5484C66.3943 45.5484 67.748 47.1589 67.748 49.1383C67.748 51.1177 66.3943 52.7282 64.7308 52.7282ZM64.7308 45.8338C63.2245 45.8338 61.9991 47.3168 61.9991 49.1383C61.9991 50.9597 63.2245 52.4427 64.7308 52.4427C66.2372 52.4427 67.4625 50.9597 67.4625 49.1383C67.4625 47.3168 66.2372 45.8338 64.7308 45.8338Z" fill="#83CC97"/>
</svg>
