<svg width="72" height="72" viewBox="0 0 72 72" fill="none" xmlns="http://www.w3.org/2000/svg">
<path d="M6.55317 38.411C1.61493 20.6405 7.15492 -4.41468 22.5958 7.13653C36.8756 17.8196 60.7539 16.9844 65.6921 34.7548C70.6304 52.5252 63.2628 59.1711 46.1864 64.8629C29.109 70.5547 11.4914 56.1814 6.55317 38.411Z" fill="#FAF9F8"/>
<path d="M8.51367 15.7596C9.26189 14.3852 10.1428 13.8641 11.255 14.1369C12.4458 14.4298 12.9934 15.3149 12.9934 16.9515C12.9934 31.4382 12.9934 45.9261 12.9934 60.4128C12.9934 62.4633 13.8817 63.3527 15.9311 63.3527C30.4646 63.3527 44.9991 63.3527 59.5326 63.3548C59.8584 63.3548 60.1917 63.3431 60.5069 63.4078C61.4153 63.5946 62.1137 64.3736 62.2474 65.2938C62.3737 66.1651 61.9163 67.0746 61.1214 67.5352C60.9452 67.6371 60.768 67.7369 60.5918 67.8367C45.239 67.8367 29.8862 67.8367 14.5334 67.8367C14.4071 67.7921 14.2829 67.7326 14.1534 67.704C11.5118 67.1277 9.7469 65.5559 8.84374 63.0162C8.7047 62.6267 8.62299 62.2171 8.51367 61.8169C8.51367 46.4652 8.51367 31.1124 8.51367 15.7596Z" fill="#E9EBE9"/>
<path d="M8.51367 61.8181C8.62192 62.2182 8.7047 62.6279 8.84374 63.0174C9.7469 65.5571 11.5118 67.1289 14.1534 67.7052C14.284 67.7338 14.4071 67.7932 14.5334 67.8378C12.5265 67.8378 10.5206 67.8378 8.51367 67.8378C8.51367 65.8309 8.51367 63.824 8.51367 61.8181Z" fill="#E9EBE9"/>
<path d="M53.3125 24.1364C50.7335 27.3267 48.0612 30.1211 45.0863 32.6162C38.1062 38.4704 30.2727 42.6731 21.3737 44.7936C20.9438 44.8955 20.5087 44.9815 20.0704 45.042C18.8064 45.2171 17.7302 44.4487 17.502 43.2293C17.2898 42.0947 18.0635 40.9252 19.2649 40.6758C23.6077 39.7758 27.7065 38.204 31.6375 36.1843C38.7684 32.5197 44.8507 27.5623 49.8611 21.2974C49.9598 21.1743 50.0511 21.0449 50.2358 20.7986C49.5099 20.7986 48.8954 20.8039 48.2809 20.7976C46.8757 20.7838 45.8728 19.8286 45.8876 18.5243C45.9025 17.2571 46.9022 16.3252 48.2787 16.321C50.6348 16.3136 52.9899 16.3136 55.346 16.321C56.8244 16.3263 57.787 17.2942 57.7923 18.78C57.7997 21.1361 57.7997 23.4912 57.7923 25.8473C57.788 27.262 56.8381 28.2532 55.5264 28.2405C54.2518 28.2288 53.3305 27.2386 53.3157 25.86C53.3083 25.3548 53.3125 24.8486 53.3125 24.1364Z" fill="#E9EBE9"/>
<path d="M55.5375 59.1764C55.0345 59.1764 54.5389 59.0045 54.0687 58.6638C53.3608 58.1502 53.018 57.4179 53.0223 56.4256C53.0307 54.0217 53.0297 51.6168 53.0286 49.2119L53.0276 43.656C53.0265 41.3572 53.0265 39.0595 53.0286 36.7607C53.0307 35.0955 54.0347 33.9673 55.5291 33.9546C56.2168 33.9535 56.8228 34.1881 57.2844 34.6455C57.7949 35.1507 58.0762 35.8893 58.0762 36.7225C58.0772 39.5137 58.0772 42.3039 58.0772 45.0951C58.0772 48.8829 58.0772 52.6696 58.0804 56.4574C58.0815 57.5877 57.6081 58.4038 56.6753 58.8846C56.2964 59.0788 55.9143 59.1764 55.5375 59.1764ZM55.5524 34.5266C55.546 34.5266 55.5397 34.5266 55.5333 34.5266C54.3595 34.5362 53.5996 35.4139 53.5985 36.7617C53.5964 39.0595 53.5964 41.3582 53.5975 43.656L53.5985 49.2108C53.5996 51.6157 53.6007 54.0217 53.5922 56.4266C53.589 57.2332 53.8469 57.7968 54.403 58.2C55.0504 58.6702 55.7275 58.7286 56.4131 58.3762C57.1507 57.9963 57.5094 57.3691 57.5094 56.4574C57.5063 52.6696 57.5063 48.8818 57.5063 45.094C57.5063 42.3028 57.5063 39.5126 57.5052 36.7214C57.5052 36.0411 57.2834 35.4478 56.8822 35.0499C56.5352 34.7071 56.0756 34.5266 55.5524 34.5266Z" fill="#E9EBE9"/>
<path d="M46.7121 59.1681C46.4266 59.1681 46.1369 59.1171 45.8524 59.0153C44.876 58.664 44.2944 57.9444 44.1703 56.934C44.1405 56.6984 44.1374 56.4671 44.1374 56.2707V55.1139C44.1352 50.4856 44.1342 45.8572 44.1384 41.2289C44.1395 39.7473 44.8314 38.7338 46.0339 38.4462C46.8246 38.2583 47.5887 38.4101 48.1873 38.876C48.806 39.3578 49.1669 40.1347 49.1796 41.0071C49.2008 42.53 49.1966 44.0774 49.1923 45.5739C49.1902 46.2213 49.1892 46.8697 49.1892 47.5171L49.1881 48.7769C49.1881 49.5559 49.1892 50.3338 49.1913 51.1128C49.1945 52.8703 49.1987 54.6873 49.1807 56.4756C49.1711 57.4286 48.7615 58.2575 48.0557 58.7478C47.6556 59.0259 47.1907 59.1681 46.7121 59.1681ZM46.6845 38.9397C46.5157 38.9397 46.3427 38.9598 46.1676 39.0023C45.2284 39.2262 44.7115 40.0179 44.7094 41.2299C44.7052 45.8583 44.7073 50.4856 44.7083 55.1139V56.2707C44.7083 56.449 44.7115 56.6581 44.737 56.864C44.8357 57.6685 45.2645 58.1959 46.0466 58.4782C46.6399 58.6916 47.2374 58.6215 47.7299 58.2787C48.2817 57.8945 48.6023 57.2354 48.6097 56.4692C48.6277 54.6841 48.6235 52.8692 48.6203 51.1128C48.6182 50.3338 48.6171 49.5548 48.6171 48.7758L48.6182 47.5171C48.6182 46.8687 48.6203 46.2202 48.6214 45.5717C48.6256 44.0774 48.6298 42.5332 48.6086 41.0145C48.5991 40.3056 48.3253 39.7059 47.8371 39.327C47.5081 39.0713 47.1101 38.9397 46.6845 38.9397Z" fill="#E9EBE9"/>
<path d="M37.7008 59.1617C36.2638 59.1617 35.2067 58.06 35.1855 56.5339C35.1675 55.237 35.1717 53.9199 35.1759 52.6453C35.1781 52.122 35.1791 51.5977 35.1802 51.0735C35.1802 50.512 35.1791 49.9496 35.177 49.3871C35.1738 48.1273 35.1696 46.8251 35.1876 45.5441C35.2035 44.3894 35.8318 43.4852 36.8677 43.1264C37.9247 42.7603 39.0667 43.0978 39.643 43.9479C39.9879 44.4573 40.197 45.0665 40.2033 45.5791C40.2415 48.8798 40.2458 52.3704 40.2171 56.5657C40.2076 58.0345 39.1346 59.15 37.722 59.1606C37.7156 59.1617 37.7082 59.1617 37.7008 59.1617ZM37.7178 43.5541C37.4981 43.5541 37.2731 43.5902 37.0545 43.6666C36.2436 43.9468 35.7713 44.6345 35.7586 45.5526C35.7406 46.8293 35.7448 48.1294 35.748 49.386C35.7491 49.9485 35.7512 50.511 35.7512 51.0735C35.7512 51.5977 35.749 52.122 35.7469 52.6463C35.7427 53.9178 35.7374 55.2327 35.7565 56.5243C35.7735 57.7236 36.5907 58.5896 37.7019 58.5896C37.7072 58.5896 37.7125 58.5896 37.7178 58.5896C38.8279 58.5811 39.6387 57.7278 39.6462 56.5615C39.6748 52.3693 39.6706 48.8819 39.6324 45.5844C39.6281 45.1854 39.4509 44.6802 39.1707 44.2663C38.8619 43.812 38.3057 43.5541 37.7178 43.5541Z" fill="#E9EBE9"/>
<path d="M28.7473 59.1562C28.7346 59.1562 28.7229 59.1562 28.7102 59.1562C27.2838 59.1371 26.2384 58.01 26.2236 56.4775C26.2023 54.1904 26.2023 52.0837 26.2246 50.0375C26.2416 48.4827 27.2732 47.3949 28.7335 47.3906C28.7357 47.3906 28.7388 47.3906 28.741 47.3906C30.1674 47.3906 31.2265 48.4965 31.2616 50.0227C31.2785 50.7656 31.2743 51.5201 31.27 52.2503C31.2679 52.5825 31.2669 52.9147 31.2669 53.2458C31.2669 53.5685 31.269 53.8911 31.27 54.2137C31.2732 54.9524 31.2775 55.7165 31.2637 56.469C31.235 58.0312 30.179 59.1562 28.7473 59.1562ZM28.741 47.9616C28.7388 47.9616 28.7378 47.9616 28.7357 47.9616C27.5884 47.9648 26.8094 48.8011 26.7956 50.0439C26.7733 52.0869 26.7722 54.1893 26.7945 56.4722C26.8062 57.7012 27.5969 58.5704 28.7176 58.5863C28.7272 58.5863 28.7378 58.5863 28.7473 58.5863C29.8712 58.5863 30.6693 57.716 30.6927 56.4584C30.7065 55.7123 30.7033 54.9513 30.6991 54.2169C30.6969 53.8932 30.6959 53.5706 30.6959 53.2469C30.6959 52.9136 30.698 52.5804 30.6991 52.2471C30.7033 51.5212 30.7076 50.7709 30.6906 50.0354C30.664 48.8138 29.8617 47.9616 28.741 47.9616Z" fill="#E9EBE9"/>
<path d="M19.7823 59.1563C18.5279 59.1563 17.439 58.1905 17.302 56.9562C17.2628 56.6049 17.2734 56.2515 17.2829 55.9108C17.2872 55.7601 17.2914 55.6094 17.2914 55.4598V55.1891C17.2904 55.1361 17.2883 55.083 17.2872 55.0299C17.2776 54.7041 17.267 54.3666 17.3074 54.0302C17.457 52.7842 18.5257 51.8609 19.8163 51.8704C21.0813 51.8853 22.1501 52.8362 22.2509 54.0355C22.3305 54.9811 22.3326 55.9596 22.2583 56.9413C22.1628 58.182 21.0782 59.1552 19.7876 59.1573C19.7855 59.1563 19.7844 59.1563 19.7823 59.1563ZM17.8592 55.7442C17.8582 55.8047 17.856 55.8652 17.8539 55.9257C17.8444 56.2621 17.8359 56.5805 17.8698 56.8925C17.9749 57.8424 18.8144 58.5853 19.7823 58.5853C19.7834 58.5853 19.7844 58.5853 19.7855 58.5853C20.7799 58.5842 21.6162 57.8424 21.6884 56.8968C21.7616 55.9448 21.7585 54.9981 21.682 54.0822C21.6056 53.1737 20.7831 52.452 19.8099 52.4404C19.8014 52.4404 19.7929 52.4404 19.7844 52.4404C18.7911 52.4404 17.9898 53.1334 17.8741 54.0971C17.8391 54.391 17.8486 54.6924 17.8582 55.0108C17.8624 55.1605 17.8677 55.3091 17.8677 55.4576L17.8592 55.7442Z" fill="#E9EBE9"/>
<path d="M13.7805 34.1829C13.7805 34.1829 10.9733 35.0457 10.3238 37.7478C10.3238 37.7478 11.5666 36.4519 12.0516 36.8298C12.0516 36.8298 8.53976 40.3416 10.3238 45.0931C10.3238 45.0931 11.8914 41.4761 14.4289 40.9349C16.9676 40.3936 15.9965 42.5024 15.9965 42.5024C15.9965 42.5024 18.2655 42.9153 19.4531 39.1434C20.6407 35.3694 15.8362 32.9539 13.7805 34.1829ZM15.0954 39.1423C13.3613 39.3249 12.3573 40.1803 12.3573 40.1803L12.7202 38.8101C13.2392 36.8627 15.2164 36.2248 15.2164 36.2248C16.1291 36.6186 14.881 37.5313 14.5839 38.2031C14.2899 38.8717 16.3425 37.8974 16.6757 37.8677C17.0121 37.8359 16.8296 38.9619 15.0954 39.1423Z" fill="#1A1A1A"/>
<path d="M8.74689 41.7903C8.74689 41.7903 8.37968 40.5337 8.88274 39.8566C9.3858 39.1794 9.81987 38.8706 9.81987 38.8706C9.81987 38.8706 8.70762 40.592 8.74689 41.7903Z" fill="#1A1A1A"/>
<path d="M10.1002 46.3347C10.1002 46.3347 11.222 46.0832 11.377 45.4835C11.5319 44.8839 11.7834 44.2651 12.4797 43.9563C12.4797 43.9563 11.8025 44.73 11.9575 45.4262C12.1114 46.1224 10.1002 46.3347 10.1002 46.3347Z" fill="#1A1A1A"/>
<path d="M40.4906 13.313L21.9103 31.8933L28.7739 38.7569L47.3542 20.1766L40.4906 13.313Z" fill="#83CC97"/>
<path d="M45.412 15.1228L22.6248 37.91L15.7614 31.0466L38.5486 8.25937C39.1535 7.65443 40.1352 7.65443 40.7402 8.25937L45.412 12.9312C46.018 13.5362 46.018 14.5179 45.412 15.1228Z" fill="#088466"/>
<path d="M28.0883 51.6358L31.8358 50.1946L32.2401 53.8847H27.5343L28.0883 51.6358Z" fill="#EFA796"/>
<path d="M28.6645 50.9927L25.6027 51.605L26.1683 56.6452L27.1341 58.7657L28.2878 59.0013L29.4658 57.2575L28.9001 54.997L28.6645 54.2901L29.4658 54.149L28.6645 50.9927Z" fill="#1A1A1A"/>
<path d="M14.5774 56.0051L16.613 52.5442L19.2248 55.1805L15.5432 58.1097L14.5774 56.0051Z" fill="#EFA796"/>
<path d="M14.6272 55.1433L12.6118 57.5281L16.1926 61.1206L18.2675 62.1787L19.3171 61.6448L19.1547 59.5477L17.3038 58.1298L16.6798 57.7233L17.2189 57.1141L14.6272 55.1433Z" fill="#1A1A1A"/>
<path d="M43.2034 35.9775L41.343 37.8868L45.1531 46.2244C45.7962 47.6317 45.6869 49.2958 44.8676 50.5948L44.4558 51.2475C43.8275 52.242 42.8288 52.901 41.7123 53.0549L30.1823 54.6511L29.3853 50.1947L39.4825 47.5064L35.1651 40.504C35.1651 40.504 21.4149 50.4059 19.0238 55.9947L15.1713 53.9432C15.1713 53.9432 18.8911 45.6672 24.8694 41.6364C27.9249 39.0192 32.1096 30.1775 32.1096 30.1775L43.2034 35.9775Z" fill="#088466"/>
<path d="M32.6803 20.6987C32.6803 20.6987 26.7954 22.4955 26.9779 27.7819C27.1605 33.0682 30.91 35.6981 37.1855 33.6668C43.461 31.6355 42.4719 26.7142 42.4719 26.7142L38.2012 21.7409L32.6803 20.6987Z" fill="#EFA796"/>
<path d="M47.2975 33.6415C47.2975 33.6415 44.9902 40.1293 50.3954 40.1293C55.8006 40.1293 54.0622 31.9456 54.0622 31.9456L51.7411 28.698H49.0709L45.3744 30.0437L47.2975 33.6415Z" fill="#EFA796"/>
<path d="M32.2397 20.7253C32.2397 20.7253 36.4924 21.2974 36.3289 25.4683H37.3531C37.3531 25.4683 34.8888 25.7644 34.3602 27.5675C33.8317 29.3707 33.5239 30.2962 33.5239 30.2962C33.5239 30.2962 34.8877 32.232 37.0007 31.3521C39.1138 30.4723 38.5407 28.8878 39.5532 28.4919C40.5657 28.0961 39.4651 29.4163 40.1252 29.2837C40.7854 29.1521 41.8859 28.4919 41.6217 29.636C41.3574 30.7801 40.4776 30.3588 39.9055 31.5814C39.3335 32.804 37.3096 33.6838 37.3096 33.6838L42.5461 36.6321C42.5461 36.6321 45.2747 34.8279 46.2861 33.7719L47.2986 33.6403C47.2986 33.6403 47.7825 32.5397 47.5628 31.6164C47.3431 30.6931 48.5498 29.9045 48.9415 29.9268C49.332 29.948 48.9202 31.7066 49.3978 31.5113C49.8754 31.3161 49.8966 30.4044 50.2012 30.9467C50.2883 31.1855 50.2012 31.7714 50.2012 31.7714C50.2012 31.7714 52.5892 30.9902 54.0654 31.9454C54.0654 31.9454 52.6571 25.3155 49.436 22.659C46.2139 20.0026 41.3266 18.0052 32.2397 20.7253Z" fill="#231F20"/>
<mask id="mask0_150_3064" style="mask-type:luminance" maskUnits="userSpaceOnUse" x="42" y="10" width="14" height="15">
<path d="M48.8909 24.0961C52.5567 24.0961 55.5283 21.1244 55.5283 17.4587C55.5283 13.7929 52.5567 10.8213 48.8909 10.8213C45.2252 10.8213 42.2535 13.7929 42.2535 17.4587C42.2535 21.1244 45.2252 24.0961 48.8909 24.0961Z" fill="white"/>
</mask>
<g mask="url(#mask0_150_3064)">
<path d="M48.9933 19.4166C48.7439 20.081 48.4935 22.5984 48.4935 22.5984C48.4935 22.5984 46.0355 21.847 45.1217 20.4758C45.1217 20.4758 46.4324 18.3075 46.7073 17.4585" fill="#EFA796"/>
<path d="M45.3168 20.148C44.4189 19.8359 43.9498 19.6906 42.7145 19.5897C39.4648 19.3244 43.8745 27.9634 43.8745 27.9634L51.415 27.2757L50.7666 24.095C50.7666 24.095 50.1001 22.9042 48.5591 21.9946" fill="#EFA796"/>
<path d="M48.4937 22.5983C48.4937 22.5983 48.7431 20.0809 48.9935 19.4165Z" fill="#EFA796"/>
<path d="M45.1217 20.4758C45.1217 20.4758 46.4324 18.3075 46.7073 17.4585Z" fill="#EFA796"/>
<path d="M49.3099 19.6512C50.8034 19.6512 52.0141 18.3012 52.0141 16.636C52.0141 14.9708 50.8034 13.6208 49.3099 13.6208C47.8164 13.6208 46.6057 14.9708 46.6057 16.636C46.6057 18.3012 47.8164 19.6512 49.3099 19.6512Z" fill="#EFA796"/>
<path d="M46.75 15.9663C46.4189 15.9663 46.1493 16.2656 46.1493 16.636C46.1493 17.0064 46.4178 17.3057 46.75 17.3057" fill="#EFA796"/>
<path d="M46.0005 14.6324C46.0005 14.2259 46.1926 13.8651 46.4898 13.6327C46.564 13.0903 46.9323 12.6435 47.4301 12.4557C47.3961 12.3411 47.377 12.219 47.377 12.0938C47.377 11.3923 47.9459 10.8245 48.6463 10.8245C49.0804 10.8245 49.4625 11.042 49.6917 11.3742C49.7097 11.3742 49.7278 11.371 49.7458 11.371C50.8602 11.371 51.7634 12.2742 51.7634 13.3886C51.7634 13.5669 51.7379 13.7399 51.6944 13.9054C51.9724 14.0307 52.1656 14.3077 52.1656 14.6324C52.1656 15.0729 51.8079 15.4305 51.3675 15.4305C51.3463 15.4305 51.3272 15.4263 51.3059 15.4241C51.1595 15.5865 50.9504 15.6916 50.7137 15.6916C50.4558 15.6916 50.2277 15.5664 50.0823 15.3764C49.9729 15.3944 49.8604 15.4072 49.7458 15.4072C49.3585 15.4072 48.9976 15.2957 48.6909 15.1068C48.5943 15.1631 48.4924 15.2098 48.3842 15.2427C48.2483 15.491 48.0308 15.6884 47.7686 15.7998C47.6933 16.0015 47.5266 16.1554 47.3176 16.2127C47.3186 16.2222 47.3207 16.2307 47.3207 16.2403C47.3207 16.4886 47.1191 16.6892 46.8718 16.6892C46.6235 16.6892 46.4229 16.4876 46.4229 16.2403C46.4229 16.1119 46.477 15.9973 46.563 15.9155C46.5078 15.8264 46.4749 15.7234 46.4675 15.6131C46.1809 15.3817 46.0005 15.0283 46.0005 14.6324Z" fill="#231F20"/>
</g>
<path d="M17.0761 31.8064L13.1674 32.6183L21.246 40.6959L21.9029 36.6332L22.4654 31.8934L17.0761 31.8064Z" fill="#088466"/>
<path d="M35.7637 55.2486L43.2469 45.4719L45.0564 48.4892L48.3157 42.6966L52.1778 48.2482L59.7597 40.6387L57.8027 38.567L64.5366 37.4155L63.9614 44.6674L61.0832 42.1351L52.4495 50.3655L48.0748 45.5886L46.4064 49.6757L45.8301 50.8845L43.0676 47.6613L35.7637 55.2486Z" fill="#231F20"/>
<path d="M33.0444 11.1069C33.7097 11.1069 34.249 10.5676 34.249 9.90233C34.249 9.23706 33.7097 8.69775 33.0444 8.69775C32.3792 8.69775 31.8398 9.23706 31.8398 9.90233C31.8398 10.5676 32.3792 11.1069 33.0444 11.1069Z" fill="#FAF9F8"/>
<path d="M30.0535 10.5963C30.3859 10.5963 30.6553 10.3269 30.6553 9.99458C30.6553 9.66224 30.3859 9.39282 30.0535 9.39282C29.7212 9.39282 29.4518 9.66224 29.4518 9.99458C29.4518 10.3269 29.7212 10.5963 30.0535 10.5963Z" fill="#FAF9F8"/>
</svg>
