<svg xmlns="http://www.w3.org/2000/svg" viewBox="0 0 66 66"><path fill="#000100" d="M28.6 25.9c4.8 0 8.8-4 8.8-8.8s-3.9-8.8-8.8-8.8-8.8 4-8.8 8.8c0 4.8 3.9 8.8 8.8 8.8zm0-16.1c4 0 7.3 3.3 7.3 7.3s-3.3 7.3-7.3 7.3-7.2-3.3-7.2-7.3c-.1-4 3.2-7.3 7.2-7.3zM34.4 38.7c.3.3.7.3.9.1l1.6-1c.8.5 1.6.8 2.5 1l.4 1.9c.1.4.4.6.7.6h3c.4 0 .7-.3.7-.6l.4-1.9c.9-.2 1.7-.6 2.5-1l1.6 1c.3.2.7.2.9-.1l2.1-2.1c.3-.3.3-.6.1-.9l-1-1.6c.5-.8.8-1.6 1-2.5l1.8-.4c.4-.1.6-.4.6-.7v-3c0-.4-.3-.7-.6-.7l-1.8-.4c-.2-.9-.6-1.7-1-2.5l1-1.6c.2-.3.2-.7-.1-.9l-2.1-2.1c-.3-.3-.7-.3-.9-.1l-2 1.3c-.3.2-.4.7-.2 1 .2.3.7.4 1 .2l1.5-1 1.3 1.3-1 1.5c-.2.2-.2.6 0 .8.6.9 1 1.9 1.2 2.9.1.3.3.5.6.6l1.7.3v1.8l-1.8.2c-.3.1-.5.3-.6.6-.2 1-.6 2-1.2 2.9-.2.3-.2.6 0 .8l1 1.5-1.3 1.3-1.5-1c-.2-.2-.6-.2-.8 0-.9.6-1.9 1-2.9 1.2-.3.1-.5.3-.6.6l-.3 1.7H41l-.3-1.7c-.1-.3-.3-.5-.6-.6-1-.2-2-.6-2.9-1.2-.3-.2-.6-.2-.8 0l-1.5 1-1.3-1.3 1-1.5c.2-.3.1-.8-.2-1-.3-.2-.8-.1-1 .2l-1.3 2c-.2.3-.2.7.1.9l2.2 2.2z"/><path fill="#000100" d="M42 35.4c3.6 0 6.5-2.9 6.5-6.5 0-2.2-1.1-4.2-2.9-5.4-.3-.2-.8-.1-1 .2-.2.3-.1.8.2 1 1.4.9 2.2 2.5 2.2 4.2 0 2.8-2.2 5-5 5-1.6 0-3.1-.8-4-2.1-.2-.3-.7-.4-1-.2-.3.2-.4.7-.2 1 1.1 1.8 3 2.8 5.2 2.8z"/><path fill="#000100" d="M65 9.7H40.6L42 7.6c.2-.3.2-.7-.1-.9l-3-3c-.3-.3-.7-.3-.9-.1l-2.3 1.6C34.5 4.5 33.3 4 32 3.6L31.4.8c-.1-.4-.4-.6-.7-.6h-4.2c-.4 0-.7.3-.7.6l-.6 2.8c-1.3.3-2.5.8-3.7 1.6l-2.3-1.6c-.3-.2-.7-.2-.9.1l-3 3c-.3.3-.3.6-.1.9l1.4 2.1H1c-.4 0-.8.3-.8.8v44c0 .4.3.8.8.8h23.3c.2 1.5.2 5.6-3.2 9.1h-2.2c-.4 0-.8.3-.8.8s.3.8.8.8H47c.4 0 .8-.3.8-.8s-.3-.8-.8-.8h-2.2c-3.4-3.5-3.3-7.6-3.2-9.1H65c.4 0 .8-.3.8-.8v-44c0-.4-.4-.8-.8-.8zM18.8 5.2 21 6.7c.2.2.6.2.8 0 1.3-.8 2.7-1.4 4.2-1.7.3-.1.5-.3.6-.6l.5-2.6h3l.5 2.6c.1.3.3.5.6.6 1.5.3 2.8.9 4.1 1.7.3.2.6.2.8 0l2.2-1.5 2.1 2.1-1.5 2.2c-.2.2-.2.6 0 .8.8 1.3 1.4 2.7 1.7 4.1.1.3.3.5.6.6l2.6.5v3l-2.6.5c-.3.1-.5.3-.6.6-.3 1.5-.9 2.9-1.7 4.1-.2.3-.2.6 0 .8l1.5 2.2-2.1 2.3-2.2-1.5c-.2-.2-.6-.2-.8 0-1.3.8-2.7 1.4-4.1 1.7-.3.1-.5.3-.6.6l-.5 2.6h-3l-.5-2.6c-.1-.3-.3-.5-.6-.6-1.5-.3-2.8-.9-4.1-1.7-.3-.2-.6-.2-.8 0L18.8 29l-2.1-2.1 1.5-2.2c.2-.2.2-.6 0-.8-.8-1.3-1.4-2.7-1.7-4.1-.1-.3-.3-.5-.6-.6l-2.6-.5v-3l2.6-.5c.3-.1.5-.3.6-.6.3-1.5.9-2.9 1.7-4.1.2-.3.2-.6 0-.8l-1.5-2.2 2.1-2.3zm-2.8 6c-.4.8-.7 1.6-.9 2.5l-2.7.6c-.4.1-.6.4-.6.7v4.2c0 .4.3.7.6.7l2.7.6c.3 1.3.8 2.6 1.5 3.7L15 26.6c-.2.3-.2.7.1.9l3 3c.3.3.7.3.9.1l2.3-1.6c1.2.7 2.4 1.2 3.7 1.6l.6 2.8c.1.4.4.6.7.6h4.2c.4 0 .7-.3.7-.6l.6-2.8c1.3-.3 2.5-.8 3.7-1.6l2.3 1.6c.3.2.7.2.9-.1l3-3c.3-.3.3-.6.1-.9l-1.6-2.4c.7-1.2 1.2-2.4 1.5-3.7l2.7-.6c.4-.1.6-.4.6-.7V15c0-.4-.3-.7-.6-.7l-2.4-.6c-.2-.9-.5-1.7-.9-2.5h23.2v34.1H1.8V11.2H16zm26.9 53.1H23.1c2.8-3.6 2.8-7.4 2.7-9.1h14.5c-.2 1.7-.2 5.5 2.6 9.1zM1.8 53.7v-6.8h62.5v6.8H1.8z"/><path fill="#000100" d="M33 47.7c-1.4 0-2.6 1.2-2.6 2.6S31.5 53 33 53s2.6-1.2 2.6-2.6-1.2-2.7-2.6-2.7zm0 3.8c-.6 0-1.1-.5-1.1-1.1s.5-1.1 1.1-1.1 1.1.5 1.1 1.1-.5 1.1-1.1 1.1z"/></svg>