<svg width="504" height="504" viewBox="0 0 504 504" fill="none" xmlns="http://www.w3.org/2000/svg">
<path d="M449.35 285.864V415.491C449.35 434.194 434.189 449.355 415.486 449.355H385.315C385.315 430.22 369.805 414.71 350.675 414.71C331.54 414.71 316.03 430.22 316.03 449.355H285.859C267.156 449.355 251.995 434.194 251.995 415.491V385.32C232.865 385.32 217.35 369.81 217.35 350.68C217.35 331.545 232.865 316.035 251.995 316.035V285.864C251.995 267.161 267.156 252 285.859 252H316.03C316.03 271.135 331.54 286.645 350.675 286.645C369.805 286.645 385.315 271.135 385.315 252H415.486C434.189 252 449.35 267.161 449.35 285.864Z" fill="#E9EBE9"/>
<path d="M217.35 153.325C217.35 172.455 232.865 187.965 251.995 187.965V218.136C251.995 236.839 236.834 252 218.131 252H187.96C187.955 232.865 172.45 217.36 153.315 217.36C134.185 217.36 118.675 232.865 118.67 252H88.5037C69.801 252 54.6399 236.839 54.6399 218.136V187.965C35.5101 187.965 20 172.455 20 153.325C20 134.19 35.5101 118.68 54.6399 118.68V88.5088C54.6399 69.8061 69.801 54.645 88.5037 54.645H118.675C118.675 73.78 134.185 89.2901 153.32 89.2901C172.45 89.2901 187.96 73.78 187.96 54.645H218.131C236.834 54.645 251.995 69.8061 251.995 88.5088V118.68C232.865 118.68 217.35 134.19 217.35 153.325Z" fill="#E9EBE9"/>
<path d="M251.995 118.68V187.965C232.865 187.965 217.35 172.455 217.35 153.325C217.35 134.19 232.865 118.68 251.995 118.68Z" fill="#E9EBE9"/>
<path d="M153.315 286.645C172.449 286.645 187.96 271.134 187.96 252C187.96 232.866 172.449 217.355 153.315 217.355C134.181 217.355 118.67 232.866 118.67 252C118.67 271.134 134.181 286.645 153.315 286.645Z" fill="white"/>
<path d="M217.35 350.68C217.35 369.81 232.865 385.32 251.995 385.32V415.491C251.995 434.194 236.833 449.355 218.131 449.355H187.96C187.96 468.49 172.45 484 153.32 484C134.185 484 118.675 468.49 118.675 449.355H88.5035C69.8008 449.355 54.6396 434.194 54.6396 415.491V285.864C54.6396 267.161 69.8008 252 88.5035 252H118.675C118.675 232.865 134.185 217.355 153.32 217.355C172.45 217.355 187.96 232.865 187.96 252H218.131C236.833 252 251.995 267.161 251.995 285.864V316.035C232.865 316.035 217.35 331.545 217.35 350.68Z" fill="#D4D4D4"/>
<path d="M449.35 118.68V88.5089C449.35 69.8062 434.189 54.6451 415.486 54.6451H385.315C385.315 35.5101 369.805 20 350.67 20C331.535 20 316.025 35.5101 316.025 54.6451H285.853C267.151 54.6451 251.99 69.8062 251.99 88.5089V118.68C241.844 118.68 232.714 123.045 226.381 129.998C220.766 136.154 217.344 144.341 217.344 153.33C217.344 162.304 220.761 170.486 226.365 176.637C232.704 183.601 241.839 187.97 251.995 187.97V218.141C251.995 236.844 267.156 252.005 285.859 252.005H316.03C316.03 271.14 331.54 286.65 350.675 286.65C369.81 286.65 385.32 271.14 385.32 252.005H415.491C434.194 252.005 449.355 236.844 449.355 218.141V187.97C468.49 187.97 484 172.46 484 153.325C483.99 134.19 468.48 118.68 449.35 118.68Z" fill="#D4D4D4"/>
<path d="M80.6809 308.228C80.6809 301.129 86.436 295.374 93.5348 295.374H220.98C228.079 295.374 233.834 301.129 233.834 308.228V387.138C233.834 394.236 228.079 399.991 220.98 399.991H93.5348C86.436 399.991 80.6809 394.236 80.6809 387.138V308.228Z" fill="#088466"/>
<path d="M95.4986 308.582C96.977 308.582 98.1756 307.384 98.1756 305.905C98.1756 304.427 96.977 303.228 95.4986 303.228C94.0201 303.228 92.8215 304.427 92.8215 305.905C92.8215 307.384 94.0201 308.582 95.4986 308.582Z" fill="white"/>
<path d="M104.784 308.582C106.263 308.582 107.461 307.384 107.461 305.905C107.461 304.427 106.263 303.228 104.784 303.228C103.306 303.228 102.107 304.427 102.107 305.905C102.107 307.384 103.306 308.582 104.784 308.582Z" fill="white"/>
<path d="M114.065 308.582C115.544 308.582 116.742 307.384 116.742 305.905C116.742 304.427 115.544 303.228 114.065 303.228C112.587 303.228 111.388 304.427 111.388 305.905C111.388 307.384 112.587 308.582 114.065 308.582Z" fill="white"/>
<path d="M150.112 374.794C149.742 374.794 149.362 374.742 148.987 374.638C146.82 374.018 145.56 371.758 146.179 369.586L158.632 325.998C159.252 323.832 161.512 322.571 163.684 323.191C165.851 323.811 167.111 326.071 166.491 328.243L154.039 371.831C153.523 373.622 151.888 374.794 150.112 374.794ZM176.569 371.674C175.523 371.674 174.481 371.273 173.679 370.476C172.085 368.883 172.085 366.294 173.679 364.701L183.246 355.138L173.679 345.576C172.085 343.982 172.085 341.394 173.679 339.8C175.273 338.206 177.861 338.206 179.455 339.8L191.908 352.248C192.673 353.013 193.105 354.055 193.105 355.138C193.105 356.222 192.673 357.263 191.908 358.029L179.455 370.482C178.658 371.279 177.611 371.674 176.569 371.674ZM136.091 359.222C135.044 359.222 134.003 358.821 133.201 358.024L120.753 345.576C119.159 343.982 119.159 341.394 120.753 339.8L133.201 327.347C134.794 325.754 137.383 325.754 138.976 327.347C140.57 328.941 140.57 331.529 138.976 333.123L129.414 342.691L138.976 352.248C140.57 353.841 140.57 356.43 138.976 358.024C138.18 358.821 137.138 359.222 136.091 359.222Z" fill="white"/>
<path d="M58.7179 418.527C58.4367 417.767 63.3428 398.163 63.999 397.502C64.6553 396.846 85.8319 396.434 85.8319 396.434C85.8319 396.434 95.3733 387.44 103.264 383.086C106.373 381.367 110.529 380.336 111.055 381.908C111.383 382.888 109.941 384.773 108.107 386.679C108.102 386.684 108.097 386.69 108.092 386.695C105.54 389.341 102.243 392.007 101.936 392.257C101.92 392.268 101.91 392.273 101.91 392.273C101.91 392.273 119.321 392.523 121.894 392.742C124.472 392.955 127.867 393.101 127.935 394.887C127.998 396.528 123.373 397.189 123.097 397.231C123.383 397.231 129.44 397.189 129.711 399.528C129.914 401.267 123.279 402.674 123.086 402.715C123.243 402.715 126.216 402.731 126.159 404.127C126.06 406.418 119.342 407.283 119.066 407.319C119.211 407.325 121.602 407.398 121.44 408.653C121.039 411.757 97.9931 414.475 91.0037 415.106C84.009 415.741 58.9992 419.293 58.7179 418.527Z" fill="#F8AE9D"/>
<path d="M84.7068 396.439L82.7538 415.918L57.5876 418.527L62.874 397.507L84.7068 396.439Z" fill="#231F20"/>
<path d="M75.608 385.32C75.608 385.32 73.5715 375.003 67.78 369.201C67.0092 368.43 65.6967 369.06 65.8061 370.148C65.8061 370.164 65.8113 370.185 65.8113 370.206C66.0196 372.055 72.5716 379.429 75.608 385.32ZM75.8007 388.544C75.8007 388.544 69.5091 375.94 60.0198 370.883C59.4417 370.576 58.7021 370.758 58.374 371.331C58.1604 371.7 58.0927 372.258 58.4312 373.096C59.3323 375.331 70.0091 382.252 75.8007 388.544Z" fill="#088466"/>
<path d="M417.762 394.851H287.197C283.338 394.851 280.208 391.721 280.208 387.862V306.056C280.208 302.197 283.338 299.067 287.197 299.067H417.762C421.621 299.067 424.751 302.197 424.751 306.056V387.862C424.751 391.721 421.621 394.851 417.762 394.851Z" fill="white"/>
<path d="M417.762 395.898H287.197C282.765 395.898 279.161 392.294 279.161 387.862V306.051C279.161 301.619 282.765 298.015 287.197 298.015H417.762C422.194 298.015 425.798 301.619 425.798 306.051V387.856C425.798 392.294 422.194 395.898 417.762 395.898ZM287.197 300.108C283.916 300.108 281.249 302.775 281.249 306.056V387.862C281.249 391.143 283.916 393.809 287.197 393.809H417.762C421.043 393.809 423.71 391.143 423.71 387.862V306.051C423.71 302.77 421.043 300.103 417.762 300.103H287.197V300.108Z" fill="#E1E4E5"/>
<path d="M424.751 306.056C424.751 307.275 423.762 308.259 422.548 308.259H282.411C281.192 308.259 280.208 307.27 280.208 306.056C280.208 302.197 283.338 299.067 287.197 299.067H417.762C421.621 299.061 424.751 302.192 424.751 306.056Z" fill="#231F20"/>
<path d="M422.548 309.301H282.411C280.619 309.301 279.161 307.843 279.161 306.051C279.161 301.619 282.765 298.015 287.197 298.015H417.762C422.194 298.015 425.798 301.619 425.798 306.051C425.798 307.848 424.34 309.301 422.548 309.301ZM287.197 300.108C283.916 300.108 281.249 302.775 281.249 306.056C281.249 306.697 281.77 307.218 282.411 307.218H422.548C423.189 307.218 423.71 306.697 423.71 306.056C423.71 302.775 421.043 300.108 417.762 300.108H287.197Z" fill="#231F20"/>
<path d="M287.213 305.603C288.103 305.613 288.838 304.9 288.848 304.009C288.858 303.119 288.145 302.384 287.254 302.374C287.239 302.374 287.228 302.374 287.213 302.374C286.322 302.384 285.609 303.119 285.619 304.009C285.629 304.889 286.338 305.593 287.213 305.603ZM293.942 305.603C294.832 305.613 295.567 304.9 295.577 304.009C295.588 303.119 294.874 302.384 293.983 302.374C293.968 302.374 293.957 302.374 293.942 302.374C293.051 302.384 292.338 303.119 292.348 304.009C292.358 304.889 293.067 305.593 293.942 305.603ZM300.4 305.603C301.29 305.613 302.025 304.9 302.035 304.009C302.046 303.119 301.332 302.384 300.442 302.374C300.426 302.374 300.415 302.374 300.4 302.374C299.509 302.384 298.796 303.119 298.806 304.009C298.817 304.889 299.525 305.593 300.4 305.603Z" fill="#E1E4E5"/>
<path d="M272.906 321.186H327.832C329.441 321.186 330.743 322.488 330.743 324.097V341.571C330.743 343.18 329.441 344.482 327.832 344.482H272.906C271.296 344.482 269.994 343.18 269.994 341.571V324.097C269.994 322.493 271.296 321.186 272.906 321.186Z" fill="#088466"/>
<path d="M288.827 328.342H323.129C323.884 328.342 324.498 328.957 324.498 329.712C324.498 330.467 323.884 331.082 323.129 331.082H288.827C288.072 331.082 287.458 330.467 287.458 329.712C287.458 328.957 288.072 328.342 288.827 328.342Z" fill="white"/>
<path d="M288.827 334.446H310.082C310.837 334.446 311.452 335.061 311.452 335.816C311.452 336.571 310.837 337.186 310.082 337.186H288.827C288.072 337.186 287.458 336.571 287.458 335.816C287.458 335.055 288.072 334.446 288.827 334.446Z" fill="white"/>
<path d="M279.885 337.18C282.327 337.18 284.307 335.201 284.307 332.759C284.307 330.316 282.327 328.337 279.885 328.337C277.443 328.337 275.463 330.316 275.463 332.759C275.463 335.201 277.443 337.18 279.885 337.18Z" fill="white"/>
<path d="M365.19 347.628H413.986C415.595 347.628 416.897 348.93 416.897 350.54V395.716C416.897 397.325 415.595 398.627 413.986 398.627H365.19C363.581 398.627 362.279 397.325 362.279 395.716V350.54C362.279 348.93 363.586 347.628 365.19 347.628Z" fill="#088466"/>
<path d="M379.216 382.487H410.054C410.731 382.487 411.283 383.039 411.283 383.716C411.283 384.393 410.731 384.945 410.054 384.945H379.216C378.539 384.945 377.987 384.393 377.987 383.716C377.981 383.034 378.533 382.487 379.216 382.487Z" fill="white"/>
<path d="M377.888 376.19V357.237C377.888 356.545 378.45 355.982 379.143 355.982C379.836 355.982 380.398 356.545 380.398 357.237V376.19C380.398 376.883 379.836 377.445 379.143 377.445C378.45 377.445 377.888 376.883 377.888 376.19Z" fill="white"/>
<path d="M388.752 376.19V357.237C388.752 356.545 389.315 355.982 390.007 355.982C390.7 355.982 391.263 356.545 391.263 357.237V376.19C391.263 376.883 390.7 377.445 390.007 377.445C389.315 377.445 388.752 376.883 388.752 376.19Z" fill="white"/>
<path d="M399.622 376.19V357.237C399.622 356.545 400.184 355.982 400.877 355.982C401.57 355.982 402.132 356.545 402.132 357.237V376.19C402.132 376.883 401.57 377.445 400.877 377.445C400.184 377.445 399.622 376.883 399.622 376.19Z" fill="white"/>
<path d="M379.216 387.971H398.325C399.002 387.971 399.554 388.523 399.554 389.2C399.554 389.877 399.002 390.429 398.325 390.429H379.216C378.539 390.429 377.987 389.877 377.987 389.2C377.981 388.523 378.533 387.971 379.216 387.971Z" fill="white"/>
<path d="M383.461 376.33V364.628C383.461 364.013 383.961 363.513 384.575 363.513C385.19 363.513 385.69 364.013 385.69 364.628V376.33C385.69 376.945 385.19 377.445 384.575 377.445C383.961 377.445 383.461 376.945 383.461 376.33Z" fill="white"/>
<path d="M394.33 376.33V364.628C394.33 364.013 394.83 363.513 395.445 363.513C396.059 363.513 396.559 364.013 396.559 364.628V376.33C396.559 376.945 396.059 377.445 395.445 377.445C394.825 377.445 394.33 376.945 394.33 376.33Z" fill="white"/>
<path d="M405.195 376.33V364.628C405.195 364.013 405.695 363.513 406.309 363.513C406.924 363.513 407.424 364.013 407.424 364.628V376.33C407.424 376.945 406.924 377.445 406.309 377.445C405.695 377.445 405.195 376.945 405.195 376.33Z" fill="white"/>
<path d="M375.11 387.092C375.461 384.925 373.99 382.884 371.824 382.532C369.657 382.181 367.616 383.652 367.265 385.818C366.913 387.985 368.384 390.026 370.551 390.378C372.717 390.729 374.758 389.258 375.11 387.092Z" fill="white"/>
<path d="M366.383 305.254H418.231C420.861 305.254 422.991 307.384 422.991 310.014V323.379C422.991 326.009 420.861 328.139 418.231 328.139H366.383C363.753 328.139 361.623 326.009 361.623 323.379V310.014C361.623 307.384 363.753 305.254 366.383 305.254Z" fill="white"/>
<path d="M418.231 329.175H366.383C363.185 329.175 360.581 326.571 360.581 323.373V310.009C360.581 306.811 363.185 304.207 366.383 304.207H418.231C421.434 304.207 424.032 306.811 424.032 310.009V323.373C424.032 326.571 421.428 329.175 418.231 329.175ZM366.383 306.296C364.336 306.296 362.669 307.962 362.669 310.009V323.373C362.669 325.42 364.336 327.087 366.383 327.087H418.231C420.277 327.087 421.949 325.42 421.949 323.373V310.009C421.949 307.962 420.283 306.296 418.231 306.296H366.383Z" fill="#E1E4E5"/>
<path d="M380.445 312.077H415.689C416.465 312.077 417.095 312.707 417.095 313.483C417.095 314.259 416.465 314.889 415.689 314.889H380.445C379.669 314.889 379.039 314.259 379.039 313.483C379.044 312.702 379.669 312.077 380.445 312.077Z" fill="#E1E4E5"/>
<path d="M380.445 318.348H402.283C403.059 318.348 403.689 318.978 403.689 319.754C403.689 320.53 403.059 321.16 402.283 321.16H380.445C379.669 321.16 379.039 320.53 379.039 319.754C379.044 318.973 379.669 318.348 380.445 318.348Z" fill="#E1E4E5"/>
<path fill-rule="evenodd" clip-rule="evenodd" d="M370.987 322.728C367.68 322.728 364.997 320.009 364.997 316.65C364.997 313.29 367.68 310.572 370.987 310.572C374.294 310.572 376.976 313.29 376.976 316.65C376.981 320.009 374.294 322.728 370.987 322.728Z" fill="#83CC97"/>
<path d="M382.575 318.811C382.466 318.811 382.362 318.764 382.289 318.686L380.768 317.066C380.622 316.91 380.628 316.66 380.784 316.514C380.94 316.363 381.19 316.374 381.336 316.53L382.57 317.848L384.815 315.452C384.961 315.296 385.211 315.285 385.367 315.436C385.523 315.582 385.534 315.832 385.383 315.988L382.851 318.686C382.789 318.769 382.685 318.811 382.575 318.811Z" fill="white"/>
<path d="M373.726 342.524C373.273 342.358 372.893 342.134 372.628 341.956C372.43 341.821 372.378 341.555 372.513 341.358C372.523 341.342 372.534 341.332 372.544 341.316C372.685 341.149 372.93 341.118 373.112 341.243C373.331 341.389 373.648 341.582 374.023 341.717L374.065 341.733C374.956 342.045 375.721 341.92 376.336 341.347C376.68 341.029 376.982 340.743 377.247 340.488C378.424 339.358 379.07 338.738 380.31 338.576C381.57 338.41 382.403 339.352 383.133 340.18C383.659 340.774 384.153 341.337 384.664 341.311L384.773 341.305L384.841 341.342C384.929 341.363 385.783 341.529 387.007 339.983C387.778 339.009 388.502 338.488 389.231 338.384C389.716 338.316 390.132 338.436 390.487 338.618C390.7 338.722 390.783 338.983 390.679 339.196C390.674 339.212 390.664 339.227 390.653 339.238C390.533 339.42 390.294 339.483 390.101 339.384C389.575 339.108 388.856 339.04 387.684 340.519C386.19 342.404 384.987 342.279 384.622 342.18C383.742 342.18 383.106 341.456 382.487 340.753C381.841 340.019 381.231 339.332 380.424 339.436C379.466 339.561 378.961 340.045 377.846 341.113C377.544 341.404 377.237 341.696 376.924 341.983C376.06 342.785 374.961 342.977 373.753 342.54C373.742 342.529 373.737 342.529 373.726 342.524Z" fill="#E1E4E5"/>
<path d="M391.08 339.883C390.627 339.717 390.247 339.493 389.981 339.316C389.783 339.18 389.731 338.915 389.867 338.717C389.877 338.701 389.888 338.691 389.898 338.675C390.039 338.508 390.283 338.477 390.466 338.602C390.684 338.748 391.002 338.941 391.377 339.076L391.419 339.092C392.309 339.404 393.075 339.279 393.69 338.706C394.033 338.389 394.335 338.102 394.601 337.847C395.778 336.717 396.424 336.097 397.663 335.936C398.924 335.769 399.757 336.712 400.486 337.54C401.012 338.133 401.507 338.696 402.018 338.67L402.127 338.665L402.195 338.701C402.283 338.722 403.137 338.889 404.361 337.342C405.132 336.368 405.856 335.847 406.585 335.743C407.069 335.675 407.486 335.795 407.84 335.977C408.054 336.081 408.137 336.342 408.033 336.555C408.028 336.571 408.017 336.587 408.007 336.597C407.887 336.779 407.648 336.842 407.455 336.743C406.929 336.467 406.21 336.399 405.038 337.878C403.543 339.764 402.34 339.639 401.976 339.54C401.096 339.54 400.46 338.816 399.84 338.113C399.195 337.378 398.585 336.691 397.778 336.795C396.82 336.92 396.314 337.41 395.2 338.472C394.898 338.764 394.585 339.055 394.278 339.342C393.413 340.144 392.315 340.337 391.106 339.899C391.101 339.889 391.091 339.883 391.08 339.883Z" fill="#E1E4E5"/>
<path d="M319.051 379.476H304.457C304.244 379.476 304.066 379.299 304.066 379.086C304.066 378.872 304.244 378.695 304.457 378.695H319.051C319.264 378.695 319.441 378.872 319.441 379.086C319.441 379.299 319.264 379.476 319.051 379.476ZM319.051 375.117H304.525C304.311 375.117 304.134 374.94 304.134 374.726C304.134 374.513 304.311 374.336 304.525 374.336H319.051C319.264 374.336 319.441 374.513 319.441 374.726C319.441 374.94 319.264 375.117 319.051 375.117ZM295.046 369.341C294.947 369.341 294.848 369.305 294.77 369.227L293.327 367.789C293.176 367.638 293.171 367.388 293.327 367.237C293.483 367.086 293.728 367.081 293.879 367.237L295.046 368.404L297.744 365.711C297.895 365.56 298.145 365.56 298.296 365.711C298.447 365.862 298.447 366.112 298.296 366.263L295.322 369.232C295.244 369.305 295.145 369.341 295.046 369.341ZM319.051 369.31H304.525C304.311 369.31 304.134 369.133 304.134 368.919C304.134 368.706 304.311 368.529 304.525 368.529H319.051C319.264 368.529 319.441 368.706 319.441 368.919C319.441 369.133 319.264 369.31 319.051 369.31ZM313.238 364.951H304.457C304.244 364.951 304.066 364.774 304.066 364.56C304.066 364.346 304.244 364.169 304.457 364.169H313.238C313.452 364.169 313.629 364.346 313.629 364.56C313.629 364.774 313.457 364.951 313.238 364.951ZM295.046 359.175C294.947 359.175 294.848 359.138 294.77 359.06L293.327 357.623C293.176 357.472 293.171 357.222 293.327 357.071C293.478 356.92 293.728 356.914 293.879 357.071L295.046 358.232L297.744 355.539C297.895 355.388 298.145 355.388 298.296 355.539C298.447 355.69 298.447 355.94 298.296 356.091L295.322 359.06C295.244 359.133 295.145 359.175 295.046 359.175ZM319.051 359.143H304.525C304.311 359.143 304.134 358.966 304.134 358.753C304.134 358.539 304.311 358.362 304.525 358.362H319.051C319.264 358.362 319.441 358.539 319.441 358.753C319.441 358.966 319.264 359.143 319.051 359.143ZM313.238 354.784H304.457C304.244 354.784 304.066 354.607 304.066 354.394C304.066 354.18 304.244 354.003 304.457 354.003H313.238C313.452 354.003 313.629 354.18 313.629 354.394C313.629 354.607 313.457 354.784 313.238 354.784Z" fill="#E1E4E5"/>
<path d="M295.812 381.06C293.921 381.06 292.385 379.523 292.385 377.633C292.385 375.742 293.921 374.206 295.812 374.206C297.702 374.206 299.238 375.742 299.238 377.633C299.238 379.523 297.697 381.06 295.812 381.06ZM295.812 375.253C294.499 375.253 293.426 376.32 293.426 377.638C293.426 378.95 294.494 380.023 295.812 380.023C297.124 380.023 298.197 378.956 298.197 377.638C298.192 376.32 297.124 375.253 295.812 375.253Z" fill="#E1E4E5"/>
<path d="M410.024 335.82C410.187 334.935 409.601 334.085 408.715 333.922C407.83 333.759 406.98 334.345 406.817 335.23C406.654 336.116 407.24 336.966 408.125 337.129C409.011 337.291 409.861 336.706 410.024 335.82Z" fill="#E1E4E5"/>
<path fill-rule="evenodd" clip-rule="evenodd" d="M339.134 376.971V376.398C339.134 376.258 339.248 376.148 339.384 376.148H339.956C340.097 376.148 340.206 376.263 340.206 376.398V376.971C340.206 377.112 340.092 377.221 339.956 377.221H339.384C339.248 377.221 339.134 377.112 339.134 376.971ZM339.134 374.982V374.409C339.134 374.268 339.248 374.159 339.384 374.159H339.956C340.097 374.159 340.206 374.273 340.206 374.409V374.982C340.206 375.122 340.092 375.232 339.956 375.232H339.384C339.248 375.232 339.134 375.117 339.134 374.982ZM339.134 372.992V372.419C339.134 372.279 339.248 372.169 339.384 372.169H339.956C340.097 372.169 340.206 372.284 340.206 372.419V372.992C340.206 373.127 340.092 373.242 339.956 373.242H339.384C339.248 373.242 339.134 373.127 339.134 372.992ZM339.134 370.997V370.424C339.134 370.284 339.248 370.174 339.384 370.174H339.956C340.097 370.174 340.206 370.289 340.206 370.424V370.997C340.206 371.138 340.092 371.247 339.956 371.247H339.384C339.248 371.247 339.134 371.138 339.134 370.997ZM339.134 369.008V368.435C339.134 368.294 339.243 368.185 339.384 368.185H339.956C340.097 368.185 340.206 368.299 340.206 368.435V369.008C340.206 369.148 340.092 369.258 339.956 369.258H339.384C339.248 369.258 339.134 369.148 339.134 369.008ZM341.305 374.909V374.336C341.305 374.195 341.42 374.086 341.555 374.086H342.128C342.264 374.086 342.378 374.2 342.378 374.336V374.909C342.378 375.049 342.264 375.159 342.128 375.159H341.555C341.42 375.159 341.305 375.049 341.305 374.909ZM341.305 372.919V372.346C341.305 372.206 341.42 372.096 341.555 372.096H342.128C342.264 372.096 342.378 372.211 342.378 372.346V372.919C342.378 373.055 342.264 373.169 342.128 373.169H341.555C341.42 373.169 341.305 373.06 341.305 372.919ZM341.305 370.93V370.357C341.305 370.216 341.415 370.107 341.555 370.107H342.128C342.264 370.107 342.378 370.221 342.378 370.357V370.93C342.378 371.065 342.264 371.18 342.128 371.18H341.555C341.42 371.18 341.305 371.065 341.305 370.93ZM336.805 372.992V372.419C336.805 372.279 336.92 372.169 337.055 372.169H337.628C337.769 372.169 337.878 372.284 337.878 372.419V372.992C337.878 373.127 337.764 373.242 337.628 373.242H337.055C336.915 373.242 336.805 373.127 336.805 372.992ZM336.805 370.997V370.424C336.805 370.284 336.92 370.174 337.055 370.174H337.628C337.769 370.174 337.878 370.289 337.878 370.424V370.997C337.878 371.138 337.764 371.247 337.628 371.247H337.055C336.915 371.247 336.805 371.138 336.805 370.997ZM348.05 366.94V366.367C348.05 366.227 348.165 366.117 348.3 366.117H348.873C349.014 366.117 349.123 366.232 349.123 366.367V366.94C349.123 367.081 349.008 367.19 348.873 367.19H348.3C348.165 367.19 348.055 367.081 348.05 366.94ZM348.05 364.951V364.378C348.05 364.237 348.165 364.128 348.3 364.128H348.873C349.014 364.128 349.123 364.242 349.123 364.378V364.951C349.123 365.091 349.008 365.201 348.873 365.201H348.3C348.165 365.201 348.055 365.086 348.05 364.951ZM348.05 362.956V362.383C348.05 362.242 348.165 362.133 348.3 362.133H348.873C349.014 362.133 349.123 362.247 349.123 362.383V362.956C349.123 363.091 349.008 363.206 348.873 363.206H348.3C348.165 363.206 348.05 363.096 348.05 362.956ZM348.05 360.966V360.393C348.05 360.253 348.165 360.143 348.3 360.143H348.873C349.014 360.143 349.123 360.258 349.123 360.393V360.966C349.123 361.107 349.008 361.216 348.873 361.216H348.3C348.165 361.216 348.055 361.107 348.05 360.966ZM348.05 358.977V358.404C348.05 358.263 348.159 358.154 348.3 358.154H348.873C349.014 358.154 349.123 358.268 349.123 358.404V358.977C349.123 359.117 349.008 359.227 348.873 359.227H348.3C348.165 359.227 348.055 359.117 348.05 358.977ZM350.222 364.878V364.305C350.222 364.164 350.336 364.055 350.472 364.055H351.045C351.18 364.055 351.295 364.169 351.295 364.305V364.878C351.295 365.018 351.18 365.128 351.045 365.128H350.472C350.336 365.128 350.222 365.013 350.222 364.878ZM350.222 362.888V362.315C350.222 362.175 350.336 362.065 350.472 362.065H351.045C351.18 362.065 351.295 362.18 351.295 362.315V362.888C351.295 363.023 351.18 363.138 351.045 363.138H350.472C350.336 363.138 350.222 363.023 350.222 362.888ZM350.222 360.893V360.32C350.222 360.18 350.331 360.07 350.472 360.07H351.045C351.18 360.07 351.295 360.185 351.295 360.32V360.893C351.295 361.029 351.18 361.143 351.045 361.143H350.472C350.336 361.143 350.222 361.034 350.222 360.893ZM345.722 362.956V362.383C345.722 362.242 345.836 362.133 345.972 362.133H346.545C346.685 362.133 346.795 362.247 346.795 362.383V362.956C346.795 363.091 346.68 363.206 346.545 363.206H345.972C345.831 363.206 345.722 363.096 345.722 362.956ZM345.722 360.966V360.393C345.722 360.253 345.836 360.143 345.972 360.143H346.545C346.685 360.143 346.795 360.258 346.795 360.393V360.966C346.795 361.107 346.68 361.216 346.545 361.216H345.972C345.831 361.216 345.722 361.107 345.722 360.966Z" fill="#E1E4E5"/>
<mask id="mask0_150_3158" style="mask-type:luminance" maskUnits="userSpaceOnUse" x="336" y="327" width="14" height="14">
<path d="M343.009 340.946C346.653 340.946 349.607 337.992 349.607 334.347C349.607 330.703 346.653 327.748 343.009 327.748C339.364 327.748 336.41 330.703 336.41 334.347C336.41 337.992 339.364 340.946 343.009 340.946Z" fill="white"/>
</mask>
<g mask="url(#mask0_150_3158)">
<path d="M335.691 337.259L336.925 341.665H335.691V337.259Z" fill="#FDFDFD"/>
</g>
<mask id="mask1_150_3158" style="mask-type:luminance" maskUnits="userSpaceOnUse" x="336" y="327" width="14" height="14">
<path d="M343.009 340.946C346.653 340.946 349.607 337.992 349.607 334.347C349.607 330.703 346.653 327.748 343.009 327.748C339.364 327.748 336.41 330.703 336.41 334.347C336.41 337.992 339.364 340.946 343.009 340.946Z" fill="white"/>
</mask>
<g mask="url(#mask1_150_3158)">
<path d="M335.691 329.644L339.061 341.665H336.925L335.691 337.259V329.644Z" fill="#FCFCFC"/>
</g>
<mask id="mask2_150_3158" style="mask-type:luminance" maskUnits="userSpaceOnUse" x="336" y="327" width="14" height="14">
<path d="M343.009 340.946C346.653 340.946 349.607 337.992 349.607 334.347C349.607 330.703 346.653 327.748 343.009 327.748C339.364 327.748 336.41 330.703 336.41 334.347C336.41 337.992 339.364 340.946 343.009 340.946Z" fill="white"/>
</mask>
<g mask="url(#mask2_150_3158)">
<path d="M335.691 327.332L336.774 327.03H337.092L341.196 341.665H339.061L335.691 329.644V327.332Z" fill="#FBFBFB"/>
</g>
<mask id="mask3_150_3158" style="mask-type:luminance" maskUnits="userSpaceOnUse" x="336" y="327" width="14" height="14">
<path d="M343.009 340.946C346.653 340.946 349.607 337.992 349.607 334.347C349.607 330.703 346.653 327.748 343.009 327.748C339.364 327.748 336.41 330.703 336.41 334.347C336.41 337.992 339.364 340.946 343.009 340.946Z" fill="white"/>
</mask>
<g mask="url(#mask3_150_3158)">
<path d="M339.227 327.03L343.331 341.665H341.196L337.092 327.03H339.227Z" fill="#FAFAFA"/>
</g>
<mask id="mask4_150_3158" style="mask-type:luminance" maskUnits="userSpaceOnUse" x="336" y="327" width="14" height="14">
<path d="M343.009 340.946C346.653 340.946 349.607 337.992 349.607 334.347C349.607 330.703 346.653 327.748 343.009 327.748C339.364 327.748 336.41 330.703 336.41 334.347C336.41 337.992 339.364 340.946 343.009 340.946Z" fill="white"/>
</mask>
<g mask="url(#mask4_150_3158)">
<path d="M341.363 327.03L345.467 341.665H343.331L339.227 327.03H341.363Z" fill="#F9F9F9"/>
</g>
<mask id="mask5_150_3158" style="mask-type:luminance" maskUnits="userSpaceOnUse" x="336" y="327" width="14" height="14">
<path d="M343.009 340.946C346.653 340.946 349.607 337.992 349.607 334.347C349.607 330.703 346.653 327.748 343.009 327.748C339.364 327.748 336.41 330.703 336.41 334.347C336.41 337.992 339.364 340.946 343.009 340.946Z" fill="white"/>
</mask>
<g mask="url(#mask5_150_3158)">
<path d="M343.498 327.03L347.602 341.665H345.467L341.363 327.03H343.498Z" fill="#F8F8F8"/>
</g>
<mask id="mask6_150_3158" style="mask-type:luminance" maskUnits="userSpaceOnUse" x="336" y="327" width="14" height="14">
<path d="M343.009 340.946C346.653 340.946 349.607 337.992 349.607 334.347C349.607 330.703 346.653 327.748 343.009 327.748C339.364 327.748 336.41 330.703 336.41 334.347C336.41 337.992 339.364 340.946 343.009 340.946Z" fill="white"/>
</mask>
<g mask="url(#mask6_150_3158)">
<path d="M345.633 327.03L349.701 341.534L349.238 341.665H347.602L343.498 327.03H345.633Z" fill="#F7F7F7"/>
</g>
<mask id="mask7_150_3158" style="mask-type:luminance" maskUnits="userSpaceOnUse" x="336" y="327" width="14" height="14">
<path d="M343.009 340.946C346.653 340.946 349.607 337.992 349.607 334.347C349.607 330.703 346.653 327.748 343.009 327.748C339.364 327.748 336.41 330.703 336.41 334.347C336.41 337.992 339.364 340.946 343.009 340.946Z" fill="white"/>
</mask>
<g mask="url(#mask7_150_3158)">
<path d="M347.769 327.03L350.326 336.133V341.357L349.701 341.534L345.633 327.03H347.769Z" fill="#F5F5F5"/>
</g>
<mask id="mask8_150_3158" style="mask-type:luminance" maskUnits="userSpaceOnUse" x="336" y="327" width="14" height="14">
<path d="M343.009 340.946C346.653 340.946 349.607 337.992 349.607 334.347C349.607 330.703 346.653 327.748 343.009 327.748C339.364 327.748 336.41 330.703 336.41 334.347C336.41 337.992 339.364 340.946 343.009 340.946Z" fill="white"/>
</mask>
<g mask="url(#mask8_150_3158)">
<path d="M349.904 327.03L350.326 328.519V336.133L347.769 327.03H349.904Z" fill="#F4F4F4"/>
</g>
<path d="M343.008 339.061C345.612 339.061 347.722 336.95 347.722 334.347C347.722 331.744 345.612 329.634 343.008 329.634C340.405 329.634 338.295 331.744 338.295 334.347C338.295 336.95 340.405 339.061 343.008 339.061Z" fill="white"/>
<path d="M344.717 340.722C341.196 341.665 337.576 339.576 336.634 336.056C335.691 332.535 337.779 328.915 341.3 327.972C342.993 327.519 344.79 327.759 346.305 328.634L345.316 330.347C343.982 329.577 342.347 329.524 340.962 330.207C338.675 331.332 337.732 334.102 338.863 336.389C339.133 336.936 339.503 337.42 339.962 337.821C341.123 338.837 342.712 339.207 344.201 338.811L344.717 340.722Z" fill="#088466"/>
<mask id="mask9_150_3158" style="mask-type:luminance" maskUnits="userSpaceOnUse" x="217" y="20" width="267" height="267">
<path d="M449.35 118.68V88.5089C449.35 69.8062 434.189 54.6451 415.486 54.6451H385.315C385.315 35.5101 369.805 20 350.67 20C331.535 20 316.025 35.5101 316.025 54.6451H285.853C267.151 54.6451 251.99 69.8062 251.99 88.5089V118.68C241.844 118.68 232.714 123.045 226.381 129.998C220.766 136.154 217.344 144.341 217.344 153.33C217.344 162.304 220.761 170.486 226.365 176.637C232.704 183.601 241.839 187.97 251.995 187.97V218.141C251.995 236.844 267.156 252.005 285.859 252.005H316.03C316.03 271.14 331.54 286.65 350.675 286.65C369.81 286.65 385.32 271.14 385.32 252.005H415.491C434.194 252.005 449.355 236.844 449.355 218.141V187.97C468.49 187.97 484 172.46 484 153.325C483.99 134.19 468.48 118.68 449.35 118.68Z" fill="white"/>
</mask>
<g mask="url(#mask9_150_3158)">
<path d="M351.441 88.2797H423.606C427.632 88.2797 430.892 91.5452 430.892 95.566V114.253C430.892 118.279 427.626 121.539 423.606 121.539H351.441C347.415 121.539 344.154 118.274 344.154 114.253V95.566C344.154 91.54 347.415 88.2797 351.441 88.2797Z" fill="white"/>
<path d="M423.606 123.675H351.441C346.248 123.675 342.019 119.451 342.019 114.253V95.5659C342.019 90.3734 346.243 86.1443 351.441 86.1443H423.606C428.798 86.1443 433.027 90.3681 433.027 95.5659V114.253C433.022 119.451 428.798 123.675 423.606 123.675ZM351.441 90.4098C348.597 90.4098 346.285 92.7223 346.285 95.5659V114.253C346.285 117.097 348.597 119.409 351.441 119.409H423.606C426.449 119.409 428.762 117.097 428.762 114.253V95.5659C428.762 92.7223 426.449 90.4098 423.606 90.4098H351.441Z" fill="#E1E4E5"/>
<path d="M375.211 98.6335H420.074C421.163 98.6335 422.048 99.5189 422.048 100.607C422.048 101.696 421.163 102.581 420.074 102.581H375.211C374.122 102.581 373.237 101.696 373.237 100.607C373.242 99.5137 374.122 98.6335 375.211 98.6335Z" fill="#E1E4E5"/>
<path d="M375.211 107.014H402.819C403.908 107.014 404.793 107.899 404.793 108.988C404.793 110.076 403.908 110.962 402.819 110.962H375.211C374.122 110.962 373.237 110.076 373.237 108.988C373.242 107.899 374.122 107.014 375.211 107.014Z" fill="#E1E4E5"/>
<path fill-rule="evenodd" clip-rule="evenodd" d="M357.899 113.295C353.3 113.295 349.576 109.514 349.576 104.852C349.576 100.191 353.305 96.4098 357.899 96.4098C362.498 96.4098 366.227 100.191 366.227 104.852C366.227 109.519 362.498 113.295 357.899 113.295Z" fill="#83CC97"/>
<path d="M357.315 109.102C356.789 109.102 356.29 108.883 355.93 108.503L353.821 106.253C353.102 105.488 353.139 104.285 353.904 103.566C354.67 102.847 355.873 102.884 356.592 103.649L357.315 104.42L359.446 102.149C360.164 101.384 361.367 101.347 362.133 102.061C362.899 102.779 362.94 103.983 362.222 104.748L358.706 108.503C358.342 108.883 357.842 109.102 357.315 109.102Z" fill="white"/>
<path d="M361.529 138.289H433.694C437.72 138.289 440.98 141.554 440.98 145.575V164.262C440.98 168.288 437.715 171.549 433.694 171.549H361.529C357.503 171.549 354.242 168.283 354.242 164.262V145.575C354.237 141.549 357.503 138.289 361.529 138.289Z" fill="white"/>
<path d="M433.689 173.684H361.524C356.331 173.684 352.102 169.46 352.102 164.262V145.575C352.102 140.383 356.326 136.154 361.524 136.154H433.689C438.881 136.154 443.11 140.378 443.11 145.575V164.262C443.11 169.455 438.881 173.684 433.689 173.684ZM361.529 140.419C358.685 140.419 356.373 142.732 356.373 145.575V164.262C356.373 167.106 358.685 169.419 361.529 169.419H433.694C436.537 169.419 438.85 167.106 438.85 164.262V145.575C438.85 142.732 436.537 140.419 433.694 140.419H361.529Z" fill="#E1E4E5"/>
<path d="M385.299 148.643H430.163C431.251 148.643 432.137 149.528 432.137 150.617C432.137 151.705 431.251 152.591 430.163 152.591H385.299C384.211 152.591 383.325 151.705 383.325 150.617C383.325 149.523 384.211 148.643 385.299 148.643Z" fill="#E1E4E5"/>
<path d="M385.299 157.023H412.908C413.996 157.023 414.882 157.908 414.882 158.997C414.882 160.085 413.996 160.971 412.908 160.971H385.299C384.211 160.971 383.325 160.085 383.325 158.997C383.325 157.903 384.211 157.023 385.299 157.023Z" fill="#E1E4E5"/>
<path fill-rule="evenodd" clip-rule="evenodd" d="M367.987 163.304C363.388 163.304 359.664 159.523 359.664 154.862C359.664 150.2 363.393 146.419 367.987 146.419C372.586 146.419 376.315 150.2 376.315 154.862C376.31 159.523 372.58 163.304 367.987 163.304Z" fill="#088466"/>
<path d="M367.398 159.111C366.872 159.111 366.373 158.893 366.013 158.513L363.904 156.263C363.185 155.497 363.222 154.294 363.987 153.575C364.753 152.856 365.956 152.893 366.675 153.658L367.398 154.429L369.529 152.159C370.247 151.393 371.45 151.356 372.216 152.07C372.982 152.789 373.023 153.992 372.305 154.757L368.789 158.513C368.43 158.893 367.925 159.111 367.398 159.111Z" fill="white"/>
<path d="M351.441 188.298H423.606C427.632 188.298 430.892 191.564 430.892 195.585V214.272C430.892 218.298 427.626 221.558 423.606 221.558H351.441C347.415 221.558 344.154 218.292 344.154 214.272V195.585C344.154 191.559 347.415 188.298 351.441 188.298Z" fill="white"/>
<path d="M423.606 223.693H351.441C346.248 223.693 342.019 219.47 342.019 214.272V195.585C342.019 190.392 346.243 186.163 351.441 186.163H423.606C428.798 186.163 433.027 190.387 433.027 195.585V214.272C433.022 219.464 428.798 223.693 423.606 223.693ZM351.441 190.428C348.597 190.428 346.285 192.741 346.285 195.585V214.272C346.285 217.115 348.597 219.428 351.441 219.428H423.606C426.449 219.428 428.762 217.115 428.762 214.272V195.585C428.762 192.741 426.449 190.428 423.606 190.428H351.441Z" fill="#E1E4E5"/>
<path d="M375.211 198.652H420.074C421.163 198.652 422.048 199.538 422.048 200.626C422.048 201.715 421.163 202.6 420.074 202.6H375.211C374.122 202.6 373.237 201.715 373.237 200.626C373.242 199.533 374.122 198.652 375.211 198.652Z" fill="#E1E4E5"/>
<path d="M375.211 207.032H402.819C403.908 207.032 404.793 207.918 404.793 209.006C404.793 210.095 403.908 210.98 402.819 210.98H375.211C374.122 210.98 373.237 210.095 373.237 209.006C373.242 207.913 374.122 207.032 375.211 207.032Z" fill="#E1E4E5"/>
<path fill-rule="evenodd" clip-rule="evenodd" d="M357.899 213.313C353.3 213.313 349.576 209.532 349.576 204.871C349.576 200.21 353.305 196.428 357.899 196.428C362.498 196.428 366.227 200.21 366.227 204.871C366.227 209.532 362.498 213.313 357.899 213.313Z" fill="#231F20"/>
<path d="M357.315 209.121C356.789 209.121 356.289 208.902 355.93 208.517L353.82 206.267C353.102 205.501 353.138 204.298 353.909 203.579C354.675 202.86 355.878 202.897 356.596 203.668L357.32 204.438L359.451 202.168C360.169 201.402 361.372 201.366 362.138 202.079C362.904 202.798 362.945 204.001 362.227 204.767L358.711 208.522C358.341 208.902 357.841 209.121 357.315 209.121Z" fill="white"/>
<path fill-rule="evenodd" clip-rule="evenodd" d="M291.244 319.462L290.843 330.389H296.536L296.926 328.983C296.926 328.983 299.067 328.894 300.306 329.503C301.614 330.149 301.791 330.457 301.791 330.457L319.842 330.493C319.842 330.493 320.733 326.962 315.228 324.41C309.728 321.853 305.718 318.228 304.957 317.858C304.192 317.483 302.645 317.275 301.556 318.15C300.468 319.03 299.603 321.337 297.14 321.41C293.963 321.504 292.14 317.618 291.244 319.462ZM284.208 202.116C284.208 202.116 290.895 258.859 291.103 262.802C291.312 266.744 288.958 273.552 288.999 280.932C289.046 288.312 289.859 314.316 289.859 314.316L304.608 314.556C304.608 314.556 310.806 267.562 310.874 260.515C310.942 253.469 311.509 202.793 311.509 202.793L284.208 202.116Z" fill="#231F20"/>
<path fill-rule="evenodd" clip-rule="evenodd" d="M264.661 318.488C263.838 318.665 263.245 319.384 263.213 320.222L263.114 323.196C261.604 324.879 260.896 329.754 260.828 330.227C260.823 330.254 260.823 330.28 260.823 330.306C261 332.686 276.614 332.649 277.927 330.394C277.973 330.311 277.979 330.217 277.963 330.123C277.817 329.222 276.953 324.358 275.276 323.045L275.265 320.103C275.26 319.275 274.703 318.551 273.906 318.337L271.958 317.816C270.411 315.551 268.297 315.629 266.489 318.098L264.661 318.488ZM271.369 202.652C271.369 202.652 266.646 241.365 266.713 248.781C266.776 256.198 268.166 259.453 266.187 264.771C264.208 270.088 262.521 312.54 262.521 312.54L277.145 313.759C277.145 313.759 286.489 268.333 287.504 262.036C288.52 255.74 301.077 202.121 301.077 202.121L271.369 202.652Z" fill="#231F20"/>
<path fill-rule="evenodd" clip-rule="evenodd" d="M344.284 133.044C344.284 133.044 343.066 126.242 343.503 124.862C343.878 123.67 347.425 121.956 347.425 121.956C347.425 121.956 353.591 112.217 354.94 113.211C356.039 114.014 351.732 121.196 351.732 121.196C351.732 121.196 355.659 125.315 355.607 127.159C355.555 129.003 349.196 134.768 349.196 134.768L344.284 133.044ZM280.932 134.643C280.932 134.643 284.989 133.69 285.129 127.039C285.27 120.388 285.171 118.118 285.171 118.118L294.796 117.956C294.796 117.956 294.895 125.367 294.895 128.05C294.9 133.888 299.233 135.466 299.233 135.466C299.233 135.466 298.874 141.851 290.77 142.305C284.447 142.659 280.932 134.643 280.932 134.643Z" fill="#EFBDB1"/>
<path fill-rule="evenodd" clip-rule="evenodd" d="M284.286 114.753C280.296 114.597 280.947 120.44 285.093 120.43C285.093 120.43 289.546 129.383 296.541 129.409C299.91 129.419 301.009 126.42 302.02 124.315C303.03 122.211 303.77 119.06 303.832 117.133C303.9 115.076 303.905 108.321 303.905 108.321L284.135 108.311L284.286 114.753Z" fill="#EFBDB1"/>
<path fill-rule="evenodd" clip-rule="evenodd" d="M299.384 135.065C299.384 135.065 309.754 138.299 312.254 142.169C320.301 149.242 330.368 158.95 330.368 158.95C330.368 158.95 339.956 134.888 343.092 132.143C345.238 130.268 349.508 132.586 350.305 134.971C351.326 138.034 344.764 156.007 341.66 164.492C341.061 166.137 340.587 167.424 340.326 168.179C338.436 173.663 333.832 176.814 328.233 173.325C325.978 171.919 319.259 167.314 313.53 163.137C313.441 167.523 313.29 172.148 313.145 176.538C312.796 187.205 312.494 196.496 313.223 197.704C316.837 203.689 312.03 207.798 296.119 209.308C280.208 210.819 266.093 209.579 268.656 201.595C269.187 199.928 269.182 196.345 268.916 191.694C267.359 191.611 265.802 191.507 264.245 191.387C257.604 190.866 252.693 188.012 252.01 180.601C251.531 175.413 261.417 151.049 265.125 143.039C265.989 141.164 267.333 139.997 268.854 139.414C269.208 139.018 269.604 138.742 270.052 138.596C272.776 137.701 282.536 133.596 282.536 133.596L294.15 141.195L299.384 135.065ZM267.843 177.95L267.817 178.017L267.849 178.023L267.843 177.95Z" fill="#088466"/>
<path fill-rule="evenodd" clip-rule="evenodd" d="M293.614 184.377C293.614 184.377 297.155 183.663 298.608 182.528C300.056 181.387 304.447 180.585 304.447 180.585L303.04 183.543C303.04 183.543 313.801 182.533 314.056 183.595C314.311 184.658 311.197 185.809 311.197 185.809C311.197 185.809 309.66 188.679 308.176 190.34C306.77 191.913 299.785 191.725 297.338 190.746C295.223 189.897 292.921 190.324 292.921 190.324L293.614 184.377Z" fill="#EFBDB1"/>
<path d="M298.806 113.29C303.616 113.29 307.514 109.391 307.514 104.581C307.514 99.7721 303.616 95.8733 298.806 95.8733C293.997 95.8733 290.098 99.7721 290.098 104.581C290.098 109.391 293.997 113.29 298.806 113.29Z" fill="#231F20"/>
<path d="M288.551 113.29C293.361 113.29 297.259 109.391 297.259 104.581C297.259 99.7721 293.361 95.8733 288.551 95.8733C283.742 95.8733 279.843 99.7721 279.843 104.581C279.843 109.391 283.742 113.29 288.551 113.29Z" fill="#231F20"/>
<path d="M293.26 105.795C297.131 105.795 300.27 102.656 300.27 98.7847C300.27 94.913 297.131 91.7744 293.26 91.7744C289.388 91.7744 286.249 94.913 286.249 98.7847C286.249 102.656 289.388 105.795 293.26 105.795Z" fill="#231F20"/>
<path d="M283.593 115.336C286.331 115.336 288.551 113.116 288.551 110.378C288.551 107.64 286.331 105.42 283.593 105.42C280.855 105.42 278.635 107.64 278.635 110.378C278.635 113.116 280.855 115.336 283.593 115.336Z" fill="#231F20"/>
<path d="M281.63 116.883C282.493 116.883 283.192 116.184 283.192 115.321C283.192 114.458 282.493 113.758 281.63 113.758C280.767 113.758 280.067 114.458 280.067 115.321C280.067 116.184 280.767 116.883 281.63 116.883Z" fill="#231F20"/>
</g>
<g opacity="0.8">
<path fill-rule="evenodd" clip-rule="evenodd" d="M94.6182 141.956H173.002C176.2 141.956 178.793 139.362 178.793 136.164V124.529C178.793 121.331 176.2 118.737 173.002 118.737H94.6182C91.4204 118.737 88.8267 121.331 88.8267 124.529V136.164C88.8215 139.362 91.4151 141.956 94.6182 141.956Z" fill="#088466"/>
</g>
<g opacity="0.8">
<path fill-rule="evenodd" clip-rule="evenodd" d="M94.6182 173.231H173.002C176.2 173.231 178.793 170.637 178.793 167.439V155.804C178.793 152.606 176.2 150.013 173.002 150.013H94.6182C91.4204 150.013 88.8267 152.606 88.8267 155.804V167.439C88.8215 170.637 91.4151 173.231 94.6182 173.231Z" fill="#088466"/>
</g>
<g opacity="0.8">
<path fill-rule="evenodd" clip-rule="evenodd" d="M94.6182 204.511H173.002C176.2 204.511 178.793 201.918 178.793 198.72V187.085C178.793 183.887 176.2 181.293 173.002 181.293H94.6182C91.4204 181.293 88.8267 183.887 88.8267 187.085V198.72C88.8215 201.918 91.4151 204.511 94.6182 204.511Z" fill="#088466"/>
</g>
<path d="M102.582 135.997C105.849 135.997 108.498 133.348 108.498 130.081C108.498 126.813 105.849 124.164 102.582 124.164C99.314 124.164 96.665 126.813 96.665 130.081C96.665 133.348 99.314 135.997 102.582 135.997Z" fill="white"/>
<path d="M102.582 167.538C105.849 167.538 108.498 164.889 108.498 161.622C108.498 158.354 105.849 155.705 102.582 155.705C99.314 155.705 96.665 158.354 96.665 161.622C96.665 164.889 99.314 167.538 102.582 167.538Z" fill="white"/>
<path d="M102.582 199.079C105.849 199.079 108.498 196.43 108.498 193.163C108.498 189.895 105.849 187.246 102.582 187.246C99.314 187.246 96.665 189.895 96.665 193.163C96.665 196.43 99.314 199.079 102.582 199.079Z" fill="white"/>
<path d="M159.757 175.424C158.83 172.564 160.393 169.491 163.252 168.564C166.111 167.637 169.184 169.2 170.111 172.059L174.361 185.142L164.002 188.507L159.757 175.424Z" fill="#E1E4E5"/>
<path d="M162.221 185.173L173.314 181.569C174.616 181.147 176.017 181.861 176.439 183.163L192.522 232.667C192.944 233.969 192.231 235.37 190.929 235.792L179.835 239.396C178.533 239.818 177.132 239.104 176.71 237.802L160.627 188.298C160.205 186.996 160.919 185.595 162.221 185.173Z" fill="#088466"/>
<path fill-rule="evenodd" clip-rule="evenodd" d="M229.584 224.157L225.73 218.115C221.001 210.704 214.303 204.756 206.381 200.939L190.585 193.329C188.038 192.1 185.246 191.465 182.418 191.465H179.064L180.34 195.694L162.388 191.309C160.299 190.798 158.242 192.257 158.033 194.397C157.908 195.663 158.476 196.897 159.513 197.626L164.476 201.126C161.367 202.626 160.934 206.876 163.679 208.97L166.2 210.892C163.804 212.371 163.669 215.803 165.934 217.47L169.59 220.162C169.127 222.516 170.314 224.886 172.476 225.917L176.387 227.787C176.965 228.063 177.569 228.287 178.189 228.459L196.277 233.433L216.464 246.964L229.584 224.157Z" fill="#EFBDB1"/>
<path fill-rule="evenodd" clip-rule="evenodd" d="M166.413 109.837C148.268 103.232 128.201 112.586 121.597 130.732C114.993 148.877 124.352 168.939 142.497 175.543C160.643 182.147 180.71 172.793 187.314 154.648C193.918 136.503 184.559 116.441 166.413 109.837ZM179.33 151.69C174.325 165.45 159.106 172.543 145.346 167.533C131.586 162.523 124.492 147.31 129.498 133.555C134.503 119.795 149.721 112.701 163.481 117.711C177.241 122.716 184.335 137.93 179.33 151.69Z" fill="#83CC97"/>
<mask id="mask10_150_3158" style="mask-type:luminance" maskUnits="userSpaceOnUse" x="20" y="54" width="232" height="198">
<path d="M217.35 153.325C217.35 172.455 232.865 187.965 251.995 187.965V218.136C251.995 236.839 236.834 252 218.131 252H187.96C187.955 232.865 172.45 217.36 153.315 217.36C134.185 217.36 118.675 232.865 118.67 252H88.5037C69.801 252 54.6399 236.839 54.6399 218.136V187.965C35.5101 187.965 20 172.455 20 153.325C20 134.19 35.5101 118.68 54.6399 118.68V88.5088C54.6399 69.8061 69.801 54.645 88.5037 54.645H118.675C118.675 73.78 134.185 89.2901 153.32 89.2901C172.45 89.2901 187.96 73.78 187.96 54.645H218.131C236.834 54.645 251.995 69.8061 251.995 88.5088V118.68C232.865 118.68 217.35 134.19 217.35 153.325Z" fill="white"/>
</mask>
<g mask="url(#mask10_150_3158)">
<path fill-rule="evenodd" clip-rule="evenodd" d="M263.026 250.151L219.272 208.251L189.147 238.62L201.235 250.146H263.026V250.151Z" fill="#231F20"/>
</g>
<mask id="mask11_150_3158" style="mask-type:luminance" maskUnits="userSpaceOnUse" x="54" y="217" width="198" height="267">
<path d="M217.35 350.68C217.35 369.81 232.865 385.32 251.995 385.32V415.491C251.995 434.194 236.833 449.355 218.131 449.355H187.96C187.96 468.49 172.45 484 153.32 484C134.185 484 118.675 468.49 118.675 449.355H88.5035C69.8008 449.355 54.6396 434.194 54.6396 415.491V285.864C54.6396 267.161 69.8008 252 88.5035 252H118.675C118.675 232.865 134.185 217.355 153.32 217.355C172.45 217.355 187.96 232.865 187.96 252H218.131C236.833 252 251.995 267.161 251.995 285.864V316.035C232.865 316.035 217.35 331.545 217.35 350.68Z" fill="white"/>
</mask>
<g mask="url(#mask11_150_3158)">
<path d="M75.7072 398.07L33.6716 395.205L36.4112 424.027L73.4155 417.356L75.7072 398.07Z" fill="#231F20"/>
</g>
</svg>
